G04 Layer_Color=8388736*
%FSLAX25Y25*%
%MOIN*%
G70*
G01*
G75*
%ADD28R,0.01968X0.01968*%
%ADD52R,0.03550X0.03550*%
%ADD53O,0.01384X0.03550*%
%ADD54O,0.03550X0.01384*%
%ADD55R,0.14967X0.14967*%
%ADD56R,0.04140X0.03747*%
%ADD57O,0.07093X0.02762*%
%ADD58R,0.09258X0.03550*%
%ADD59R,0.09258X0.12802*%
%ADD60R,0.02762X0.03747*%
%ADD61R,0.05124X0.05124*%
%ADD62R,0.06305X0.06699*%
%ADD63R,0.03550X0.03943*%
%ADD64R,0.04101X0.03707*%
%ADD65O,0.02762X0.06109*%
%ADD66R,0.03747X0.04140*%
%ADD67R,0.03353X0.04140*%
%ADD68R,0.04140X0.03353*%
%ADD69R,0.02172X0.02329*%
%ADD70C,0.03600*%
%ADD71R,0.06305X0.06305*%
%ADD72C,0.06305*%
%ADD73C,0.04337*%
%ADD74C,0.02800*%
D28*
X289200Y409200D02*
D03*
X281000D02*
D03*
D52*
X186525Y407157D02*
D03*
X180029D02*
D03*
X186525Y398157D02*
D03*
X180029D02*
D03*
X187029Y388157D02*
D03*
X180533D02*
D03*
D53*
X224090Y355747D02*
D03*
X222121D02*
D03*
X220153D02*
D03*
X218184D02*
D03*
X216216D02*
D03*
X214247D02*
D03*
X212279D02*
D03*
X210310D02*
D03*
Y336653D02*
D03*
X212279D02*
D03*
X214247D02*
D03*
X216216D02*
D03*
X218184D02*
D03*
X220153D02*
D03*
X222121D02*
D03*
X224090D02*
D03*
D54*
X207653Y353090D02*
D03*
Y351121D02*
D03*
Y349153D02*
D03*
Y347184D02*
D03*
Y345216D02*
D03*
Y343247D02*
D03*
Y341279D02*
D03*
Y339310D02*
D03*
X226747D02*
D03*
Y341279D02*
D03*
Y343247D02*
D03*
Y345216D02*
D03*
Y347184D02*
D03*
Y349153D02*
D03*
Y351121D02*
D03*
Y353090D02*
D03*
D55*
X217200Y346200D02*
D03*
D56*
X253929Y341448D02*
D03*
X248220D02*
D03*
X253929Y345975D02*
D03*
X248220D02*
D03*
X265763Y384442D02*
D03*
Y389757D02*
D03*
X261429Y340790D02*
D03*
Y346105D02*
D03*
X240929Y346505D02*
D03*
Y341190D02*
D03*
X242787Y307943D02*
D03*
Y313258D02*
D03*
X279929Y317814D02*
D03*
Y312499D02*
D03*
X280366Y281162D02*
D03*
Y286477D02*
D03*
X218232Y368757D02*
D03*
Y374072D02*
D03*
X211129Y374172D02*
D03*
Y368857D02*
D03*
X173000Y249642D02*
D03*
Y254958D02*
D03*
D57*
X234306Y302657D02*
D03*
Y307657D02*
D03*
Y312657D02*
D03*
Y317657D02*
D03*
X206353Y302657D02*
D03*
Y307657D02*
D03*
Y312657D02*
D03*
Y317657D02*
D03*
D58*
X260010Y263312D02*
D03*
Y254257D02*
D03*
Y245202D02*
D03*
D59*
X282648Y254257D02*
D03*
D60*
X259926Y278900D02*
D03*
X263666D02*
D03*
X267406D02*
D03*
Y288939D02*
D03*
X259926D02*
D03*
D61*
X277913Y352063D02*
D03*
Y359937D02*
D03*
D62*
X290709Y356000D02*
D03*
D63*
X263675Y322800D02*
D03*
X268400D02*
D03*
X328024Y342000D02*
D03*
X323300D02*
D03*
X340991Y351857D02*
D03*
X336267D02*
D03*
D64*
X246832Y389760D02*
D03*
Y384957D02*
D03*
X323029Y366816D02*
D03*
Y362013D02*
D03*
X332000Y362098D02*
D03*
Y366902D02*
D03*
D65*
X310829Y309300D02*
D03*
X315829D02*
D03*
X320829D02*
D03*
X325829D02*
D03*
X330829D02*
D03*
X335829D02*
D03*
X340829D02*
D03*
X310829Y330757D02*
D03*
X315829D02*
D03*
X320829D02*
D03*
X325829D02*
D03*
X330829D02*
D03*
X335829D02*
D03*
X340829D02*
D03*
D66*
X253640Y389800D02*
D03*
X258955D02*
D03*
X269000Y307100D02*
D03*
X263685D02*
D03*
X322972Y351657D02*
D03*
X328287D02*
D03*
X341728Y288943D02*
D03*
X336413D02*
D03*
X341144Y342657D02*
D03*
X335829D02*
D03*
X241429Y254357D02*
D03*
X246744D02*
D03*
X241372Y245357D02*
D03*
X246687D02*
D03*
X240357Y353313D02*
D03*
X235043D02*
D03*
D67*
X283358Y370500D02*
D03*
X278043D02*
D03*
X336000Y296500D02*
D03*
X341315D02*
D03*
X194372Y407157D02*
D03*
X199687D02*
D03*
X235542Y364900D02*
D03*
X240858D02*
D03*
X186287Y274867D02*
D03*
X180972D02*
D03*
X185987Y267757D02*
D03*
X180672D02*
D03*
X194714Y398157D02*
D03*
X200029D02*
D03*
X194843Y388400D02*
D03*
X200157D02*
D03*
D68*
X313500Y366657D02*
D03*
Y361343D02*
D03*
X342029Y367072D02*
D03*
Y361757D02*
D03*
X247666Y286377D02*
D03*
Y281062D02*
D03*
D69*
X184570Y257157D02*
D03*
X182011D02*
D03*
X179452D02*
D03*
X187129D02*
D03*
X184570Y249519D02*
D03*
X182011D02*
D03*
X179452D02*
D03*
X187129D02*
D03*
D70*
X287402Y314961D02*
D03*
X277402Y304961D02*
D03*
X267402Y314961D02*
D03*
D71*
X171102Y360709D02*
D03*
D72*
X181102D02*
D03*
X171102Y350709D02*
D03*
X181102D02*
D03*
X171102Y340709D02*
D03*
X181102D02*
D03*
X171102Y330709D02*
D03*
X181102D02*
D03*
X171102Y320709D02*
D03*
X181102D02*
D03*
X171102Y310709D02*
D03*
X181102D02*
D03*
D73*
X212598Y263779D02*
D03*
X220472D02*
D03*
X322126Y263800D02*
D03*
X330000D02*
D03*
D74*
X200500Y382700D02*
D03*
X211700Y359500D02*
D03*
X209000Y331600D02*
D03*
X196400Y347300D02*
D03*
Y368800D02*
D03*
X235000Y357800D02*
D03*
X179700Y402800D02*
D03*
X315700Y302700D02*
D03*
X246900Y317400D02*
D03*
Y294900D02*
D03*
X175197Y259843D02*
D03*
X224400Y363700D02*
D03*
X228700Y358600D02*
D03*
M02*
