G04 Layer_Physical_Order=2*
G04 Layer_Color=16711680*
%FSLAX25Y25*%
%MOIN*%
G70*
G01*
G75*
%ADD29C,0.01600*%
%ADD30C,0.01000*%
%ADD41C,0.03200*%
%ADD42R,0.05905X0.05905*%
%ADD43C,0.05905*%
%ADD44C,0.03937*%
%ADD45C,0.02400*%
G36*
X354331Y236221D02*
X157480D01*
Y433071D01*
X232283D01*
Y405512D01*
X295276D01*
Y433071D01*
X354331D01*
Y236221D01*
D02*
G37*
%LPC*%
G36*
X200500Y384535D02*
X199798Y384396D01*
X199202Y383998D01*
X198804Y383402D01*
X198665Y382700D01*
X198804Y381998D01*
X199202Y381402D01*
X199378Y381285D01*
Y372261D01*
X198916Y372070D01*
X198093Y372893D01*
X197729Y373136D01*
X197300Y373222D01*
X197300Y373221D01*
X186000D01*
X186000Y373222D01*
X185571Y373136D01*
X185207Y372893D01*
X185207Y372893D01*
X175807Y363493D01*
X175564Y363129D01*
X175478Y362700D01*
X175478Y362700D01*
Y355665D01*
X173308Y353494D01*
X172894Y353812D01*
X172030Y354170D01*
X171102Y354292D01*
X170175Y354170D01*
X169311Y353812D01*
X168569Y353242D01*
X167999Y352500D01*
X167641Y351636D01*
X167519Y350709D01*
X167641Y349781D01*
X167999Y348917D01*
X168569Y348175D01*
X169311Y347605D01*
X170175Y347247D01*
X171102Y347125D01*
X172030Y347247D01*
X172894Y347605D01*
X173636Y348175D01*
X174206Y348917D01*
X174564Y349781D01*
X174686Y350709D01*
X174571Y351584D01*
X177393Y354407D01*
X177393Y354407D01*
X177636Y354771D01*
X177722Y355200D01*
X177722Y355200D01*
Y362235D01*
X186465Y370978D01*
X195473D01*
X195678Y370515D01*
X195672Y370479D01*
X195102Y370098D01*
X194704Y369502D01*
X194565Y368800D01*
X194704Y368098D01*
X194973Y367696D01*
Y348404D01*
X194704Y348002D01*
X194565Y347300D01*
X194704Y346598D01*
X194973Y346196D01*
Y337300D01*
X194973Y337300D01*
X195081Y336754D01*
X195391Y336291D01*
X201091Y330591D01*
X201091Y330591D01*
X201554Y330281D01*
X202100Y330173D01*
X202100Y330173D01*
X207896D01*
X208298Y329904D01*
X209000Y329765D01*
X209702Y329904D01*
X210298Y330302D01*
X210696Y330898D01*
X210835Y331600D01*
X210696Y332302D01*
X210298Y332898D01*
X209702Y333296D01*
X209000Y333435D01*
X208298Y333296D01*
X207896Y333027D01*
X202691D01*
X197827Y337891D01*
Y345873D01*
X230600D01*
X230600Y345873D01*
X231146Y345981D01*
X231609Y346291D01*
X236009Y350691D01*
X236319Y351154D01*
X236427Y351700D01*
X236427Y351700D01*
Y356696D01*
X236696Y357098D01*
X236835Y357800D01*
X236696Y358502D01*
X236427Y358904D01*
Y361600D01*
X236427Y361600D01*
X236319Y362146D01*
X236009Y362609D01*
X236009Y362609D01*
X233909Y364709D01*
X233446Y365019D01*
X232900Y365127D01*
X232900Y365127D01*
X225504D01*
X225102Y365396D01*
X224400Y365535D01*
X223698Y365396D01*
X223102Y364998D01*
X222704Y364402D01*
X222565Y363700D01*
X222704Y362998D01*
X223102Y362402D01*
X223698Y362004D01*
X224400Y361865D01*
X225102Y362004D01*
X225504Y362273D01*
X232309D01*
X233573Y361009D01*
Y358904D01*
X233304Y358502D01*
X233165Y357800D01*
X233304Y357098D01*
X233573Y356696D01*
Y352291D01*
X230009Y348727D01*
X197827D01*
Y365579D01*
X198327Y365787D01*
X213407Y350707D01*
X213407Y350707D01*
X213771Y350464D01*
X214200Y350378D01*
X214200Y350378D01*
X223000D01*
X223000Y350378D01*
X223429Y350464D01*
X223793Y350707D01*
X229493Y356407D01*
X229493Y356407D01*
X229736Y356771D01*
X229818Y357182D01*
X229998Y357302D01*
X230396Y357898D01*
X230535Y358600D01*
X230396Y359302D01*
X229998Y359898D01*
X229402Y360296D01*
X228700Y360435D01*
X227998Y360296D01*
X227402Y359898D01*
X227004Y359302D01*
X226865Y358600D01*
X227004Y357898D01*
X227328Y357414D01*
X222535Y352622D01*
X214665D01*
X200022Y367265D01*
Y368939D01*
X200483Y369130D01*
X209906Y359708D01*
X209865Y359500D01*
X210004Y358798D01*
X210402Y358202D01*
X210998Y357804D01*
X211700Y357665D01*
X212402Y357804D01*
X212998Y358202D01*
X213396Y358798D01*
X213535Y359500D01*
X213396Y360202D01*
X212998Y360798D01*
X212402Y361196D01*
X211700Y361335D01*
X211492Y361294D01*
X201622Y371165D01*
Y381285D01*
X201798Y381402D01*
X202196Y381998D01*
X202335Y382700D01*
X202196Y383402D01*
X201798Y383998D01*
X201202Y384396D01*
X200500Y384535D01*
D02*
G37*
G36*
X174055Y364311D02*
X168150D01*
X167690Y364121D01*
X167500Y363661D01*
Y357756D01*
X167690Y357297D01*
X168150Y357106D01*
X174055D01*
X174514Y357297D01*
X174705Y357756D01*
Y363661D01*
X174514Y364121D01*
X174055Y364311D01*
D02*
G37*
G36*
X181102Y354292D02*
X180175Y354170D01*
X179311Y353812D01*
X178569Y353242D01*
X177999Y352500D01*
X177641Y351636D01*
X177519Y350709D01*
X177641Y349781D01*
X177999Y348917D01*
X178569Y348175D01*
X179311Y347605D01*
X180175Y347247D01*
X181102Y347125D01*
X182030Y347247D01*
X182894Y347605D01*
X183636Y348175D01*
X184206Y348917D01*
X184564Y349781D01*
X184686Y350709D01*
X184564Y351636D01*
X184206Y352500D01*
X183636Y353242D01*
X182894Y353812D01*
X182030Y354170D01*
X181102Y354292D01*
D02*
G37*
G36*
X171102Y344292D02*
X170175Y344170D01*
X169311Y343812D01*
X168569Y343243D01*
X167999Y342500D01*
X167641Y341636D01*
X167519Y340709D01*
X167641Y339781D01*
X167999Y338917D01*
X168569Y338175D01*
X169311Y337605D01*
X170175Y337247D01*
X171102Y337125D01*
X172030Y337247D01*
X172894Y337605D01*
X173636Y338175D01*
X174206Y338917D01*
X174564Y339781D01*
X174686Y340709D01*
X174564Y341636D01*
X174206Y342500D01*
X173636Y343243D01*
X172894Y343812D01*
X172030Y344170D01*
X171102Y344292D01*
D02*
G37*
G36*
X181102Y334292D02*
X180175Y334170D01*
X179311Y333812D01*
X178569Y333243D01*
X177999Y332500D01*
X177641Y331636D01*
X177519Y330709D01*
X177641Y329781D01*
X177999Y328917D01*
X178569Y328175D01*
X179311Y327605D01*
X180175Y327247D01*
X181102Y327125D01*
X182030Y327247D01*
X182894Y327605D01*
X183636Y328175D01*
X184206Y328917D01*
X184564Y329781D01*
X184686Y330709D01*
X184564Y331636D01*
X184206Y332500D01*
X183636Y333243D01*
X182894Y333812D01*
X182030Y334170D01*
X181102Y334292D01*
D02*
G37*
G36*
X171102D02*
X170175Y334170D01*
X169311Y333812D01*
X168569Y333243D01*
X167999Y332500D01*
X167641Y331636D01*
X167519Y330709D01*
X167641Y329781D01*
X167999Y328917D01*
X168569Y328175D01*
X169311Y327605D01*
X170175Y327247D01*
X171102Y327125D01*
X172030Y327247D01*
X172894Y327605D01*
X173636Y328175D01*
X174206Y328917D01*
X174564Y329781D01*
X174686Y330709D01*
X174564Y331636D01*
X174206Y332500D01*
X173636Y333243D01*
X172894Y333812D01*
X172030Y334170D01*
X171102Y334292D01*
D02*
G37*
G36*
X181102Y324292D02*
X180175Y324170D01*
X179311Y323812D01*
X178569Y323242D01*
X177999Y322500D01*
X177641Y321636D01*
X177519Y320709D01*
X177641Y319781D01*
X177999Y318917D01*
X178569Y318175D01*
X179311Y317605D01*
X180175Y317247D01*
X181102Y317125D01*
X182030Y317247D01*
X182894Y317605D01*
X183636Y318175D01*
X184206Y318917D01*
X184564Y319781D01*
X184686Y320709D01*
X184564Y321636D01*
X184206Y322500D01*
X183636Y323242D01*
X182894Y323812D01*
X182030Y324170D01*
X181102Y324292D01*
D02*
G37*
G36*
X171102D02*
X170175Y324170D01*
X169311Y323812D01*
X168569Y323242D01*
X167999Y322500D01*
X167641Y321636D01*
X167519Y320709D01*
X167641Y319781D01*
X167999Y318917D01*
X168569Y318175D01*
X169311Y317605D01*
X170175Y317247D01*
X171102Y317125D01*
X172030Y317247D01*
X172894Y317605D01*
X173636Y318175D01*
X174206Y318917D01*
X174564Y319781D01*
X174686Y320709D01*
X174564Y321636D01*
X174206Y322500D01*
X173636Y323242D01*
X172894Y323812D01*
X172030Y324170D01*
X171102Y324292D01*
D02*
G37*
G36*
X288263Y318053D02*
X286275Y317966D01*
X285824Y317756D01*
X284480Y316289D01*
X284310Y315822D01*
X284396Y313833D01*
X284606Y313383D01*
X286074Y312039D01*
X286541Y311869D01*
X288529Y311955D01*
X288979Y312165D01*
X290324Y313633D01*
X290494Y314100D01*
X290407Y316088D01*
X290197Y316538D01*
X288730Y317883D01*
X288263Y318053D01*
D02*
G37*
G36*
X171102Y314292D02*
X170175Y314170D01*
X169311Y313812D01*
X168569Y313243D01*
X167999Y312500D01*
X167641Y311636D01*
X167519Y310709D01*
X167641Y309781D01*
X167999Y308917D01*
X168569Y308175D01*
X169311Y307605D01*
X170175Y307247D01*
X171102Y307125D01*
X172030Y307247D01*
X172894Y307605D01*
X173636Y308175D01*
X174206Y308917D01*
X174564Y309781D01*
X174686Y310709D01*
X174564Y311636D01*
X174206Y312500D01*
X173636Y313243D01*
X172894Y313812D01*
X172030Y314170D01*
X171102Y314292D01*
D02*
G37*
G36*
X278262Y308053D02*
X276274Y307966D01*
X275824Y307756D01*
X274480Y306289D01*
X274310Y305821D01*
X274396Y303834D01*
X274606Y303383D01*
X276074Y302039D01*
X276541Y301869D01*
X278529Y301955D01*
X278979Y302166D01*
X280324Y303633D01*
X280494Y304100D01*
X280407Y306088D01*
X280197Y306538D01*
X278730Y307883D01*
X278262Y308053D01*
D02*
G37*
G36*
X179700Y404635D02*
X178998Y404496D01*
X178402Y404098D01*
X178004Y403502D01*
X177865Y402800D01*
X178004Y402098D01*
X178402Y401502D01*
X178998Y401104D01*
X179700Y400965D01*
X180402Y401104D01*
X180998Y401502D01*
X181115Y401679D01*
X217335D01*
X273707Y345307D01*
X273707Y345307D01*
X274071Y345064D01*
X274500Y344978D01*
X274500Y344978D01*
X290835D01*
X298779Y337035D01*
Y308800D01*
X298778Y308800D01*
X298864Y308371D01*
X299107Y308007D01*
X305207Y301907D01*
X305207Y301907D01*
X305571Y301664D01*
X306000Y301578D01*
X314285D01*
X314402Y301402D01*
X314998Y301004D01*
X315700Y300865D01*
X316402Y301004D01*
X316998Y301402D01*
X317396Y301998D01*
X317535Y302700D01*
X317396Y303402D01*
X316998Y303998D01*
X316402Y304396D01*
X315700Y304535D01*
X314998Y304396D01*
X314402Y303998D01*
X314285Y303821D01*
X306465D01*
X301022Y309265D01*
Y337500D01*
X301022Y337500D01*
X300936Y337929D01*
X300693Y338293D01*
X300693Y338293D01*
X292093Y346893D01*
X291729Y347136D01*
X291300Y347222D01*
X291300Y347221D01*
X274965D01*
X218593Y403593D01*
X218229Y403836D01*
X217800Y403922D01*
X217800Y403922D01*
X181115D01*
X180998Y404098D01*
X180402Y404496D01*
X179700Y404635D01*
D02*
G37*
G36*
X246900Y319235D02*
X246198Y319096D01*
X245602Y318698D01*
X245204Y318102D01*
X245065Y317400D01*
X245204Y316698D01*
X245473Y316296D01*
Y296004D01*
X245204Y295602D01*
X245065Y294900D01*
X245204Y294198D01*
X245602Y293602D01*
X246198Y293204D01*
X246900Y293065D01*
X247602Y293204D01*
X248198Y293602D01*
X248596Y294198D01*
X248735Y294900D01*
X248596Y295602D01*
X248327Y296004D01*
Y316296D01*
X248596Y316698D01*
X248735Y317400D01*
X248596Y318102D01*
X248198Y318698D01*
X247602Y319096D01*
X246900Y319235D01*
D02*
G37*
G36*
X330000Y266391D02*
X329329Y266302D01*
X328705Y266044D01*
X328168Y265632D01*
X327756Y265095D01*
X327498Y264471D01*
X327409Y263800D01*
X327498Y263129D01*
X327756Y262505D01*
X328168Y261968D01*
X328705Y261556D01*
X329329Y261298D01*
X330000Y261209D01*
X330670Y261298D01*
X331295Y261556D01*
X331832Y261968D01*
X332244Y262505D01*
X332502Y263129D01*
X332591Y263800D01*
X332502Y264471D01*
X332244Y265095D01*
X331832Y265632D01*
X331295Y266044D01*
X330670Y266302D01*
X330000Y266391D01*
D02*
G37*
G36*
X220472Y266370D02*
X219802Y266282D01*
X219177Y266023D01*
X218641Y265611D01*
X218229Y265075D01*
X217970Y264450D01*
X217882Y263779D01*
X217970Y263109D01*
X218229Y262484D01*
X218641Y261948D01*
X219177Y261536D01*
X219802Y261277D01*
X220472Y261189D01*
X221143Y261277D01*
X221768Y261536D01*
X222304Y261948D01*
X222716Y262484D01*
X222975Y263109D01*
X223063Y263779D01*
X222975Y264450D01*
X222716Y265075D01*
X222304Y265611D01*
X221768Y266023D01*
X221143Y266282D01*
X220472Y266370D01*
D02*
G37*
%LPD*%
G36*
X289758Y316059D02*
X289845Y314071D01*
X288500Y312604D01*
X286512Y312517D01*
X285045Y313862D01*
X284958Y315850D01*
X286303Y317317D01*
X288291Y317404D01*
X289758Y316059D01*
D02*
G37*
G36*
X279758Y306059D02*
X279845Y304071D01*
X278500Y302604D01*
X276512Y302517D01*
X275045Y303862D01*
X274958Y305850D01*
X276303Y307317D01*
X278291Y307404D01*
X279758Y306059D01*
D02*
G37*
D29*
X224400Y363700D02*
X229800D01*
X232900D01*
X235000Y361600D01*
Y357800D02*
Y361600D01*
X202100Y331600D02*
X209000D01*
X196400Y337300D02*
X202100Y331600D01*
X196400Y368800D02*
X196500Y368900D01*
X196400Y347300D02*
X230600D01*
X235000Y351700D01*
Y357800D01*
X246900Y294900D02*
Y317400D01*
X196400Y337300D02*
Y347300D01*
Y368800D01*
D30*
X223000Y351500D02*
X228700Y357200D01*
Y358600D01*
X172109Y350709D02*
X176600Y355200D01*
X171102Y350709D02*
X172109D01*
X176600Y355200D02*
Y362700D01*
X186000Y372100D01*
X197300D01*
X198900Y370500D01*
Y366800D02*
Y370500D01*
Y366800D02*
X214200Y351500D01*
X223000D01*
X306000Y302700D02*
X315700D01*
X299900Y308800D02*
X306000Y302700D01*
X299900Y308800D02*
Y337500D01*
X291300Y346100D02*
X299900Y337500D01*
X274500Y346100D02*
X291300D01*
X217800Y402800D02*
X274500Y346100D01*
X179700Y402800D02*
X217800D01*
X200500Y370700D02*
Y382700D01*
Y370700D02*
X211700Y359500D01*
D41*
X287402Y314961D02*
D03*
X277402Y304961D02*
D03*
X267402Y314961D02*
D03*
D42*
X171102Y360709D02*
D03*
D43*
X181102D02*
D03*
X171102Y350709D02*
D03*
X181102D02*
D03*
X171102Y340709D02*
D03*
X181102D02*
D03*
X171102Y330709D02*
D03*
X181102D02*
D03*
X171102Y320709D02*
D03*
X181102D02*
D03*
X171102Y310709D02*
D03*
X181102D02*
D03*
D44*
X212598Y263779D02*
D03*
X220472D02*
D03*
X322126Y263800D02*
D03*
X330000D02*
D03*
D45*
X200500Y382700D02*
D03*
X211700Y359500D02*
D03*
X209000Y331600D02*
D03*
X196400Y347300D02*
D03*
Y368800D02*
D03*
X235000Y357800D02*
D03*
X179700Y402800D02*
D03*
X315700Y302700D02*
D03*
X246900Y317400D02*
D03*
Y294900D02*
D03*
X175197Y259843D02*
D03*
X159449Y419291D02*
D03*
X162402Y425197D02*
D03*
X168307Y259842D02*
D03*
Y283465D02*
D03*
Y295276D02*
D03*
Y377953D02*
D03*
Y389764D02*
D03*
Y401575D02*
D03*
Y425197D02*
D03*
X174213Y259842D02*
D03*
X171260Y277559D02*
D03*
X174213Y283465D02*
D03*
X171260Y289370D02*
D03*
X174213Y295276D02*
D03*
X171260Y301181D02*
D03*
X174213Y377953D02*
D03*
X171260Y383858D02*
D03*
X174213Y389764D02*
D03*
X171260Y395669D02*
D03*
X174213Y401575D02*
D03*
X171260Y407480D02*
D03*
X174213Y425197D02*
D03*
X177165Y253937D02*
D03*
Y277559D02*
D03*
X180118Y283465D02*
D03*
X177165Y289370D02*
D03*
X180118Y295276D02*
D03*
X177165Y301181D02*
D03*
X180118Y377953D02*
D03*
X177165Y383858D02*
D03*
X180118Y425197D02*
D03*
X183071Y289370D02*
D03*
X186024Y295276D02*
D03*
X183071Y301181D02*
D03*
X186024Y307087D02*
D03*
Y377953D02*
D03*
X183071Y383858D02*
D03*
Y395669D02*
D03*
X186024Y425197D02*
D03*
X191929Y342520D02*
D03*
Y377953D02*
D03*
X188976Y383858D02*
D03*
X191929Y425197D02*
D03*
X197835Y295276D02*
D03*
Y377953D02*
D03*
X194882Y383858D02*
D03*
X197835Y425197D02*
D03*
X203740Y248031D02*
D03*
Y259842D02*
D03*
Y271654D02*
D03*
X200787Y289370D02*
D03*
X203740Y295276D02*
D03*
X200787Y301181D02*
D03*
X203740Y377953D02*
D03*
Y389764D02*
D03*
X200787Y419291D02*
D03*
X203740Y425197D02*
D03*
X206693Y242126D02*
D03*
X209646Y248031D02*
D03*
X206693Y253937D02*
D03*
X209646Y259842D02*
D03*
X206693Y265748D02*
D03*
X209646Y271654D02*
D03*
X206693Y289370D02*
D03*
X209646Y295276D02*
D03*
X206693Y336614D02*
D03*
X209646Y377953D02*
D03*
X206693Y383858D02*
D03*
X209646Y389764D02*
D03*
X206693Y395669D02*
D03*
Y407480D02*
D03*
X209646Y413386D02*
D03*
X206693Y419291D02*
D03*
X209646Y425197D02*
D03*
X212598Y242126D02*
D03*
X215551Y248031D02*
D03*
X212598Y253937D02*
D03*
X215551Y259842D02*
D03*
Y271654D02*
D03*
X212598Y289370D02*
D03*
X215551Y295276D02*
D03*
X212598Y301181D02*
D03*
X215551Y377953D02*
D03*
X212598Y383858D02*
D03*
X215551Y389764D02*
D03*
X212598Y395669D02*
D03*
Y407480D02*
D03*
X215551Y413386D02*
D03*
X212598Y419291D02*
D03*
X215551Y425197D02*
D03*
X221457Y271654D02*
D03*
X218504Y289370D02*
D03*
X221457Y295276D02*
D03*
X218504Y301181D02*
D03*
X221457Y377953D02*
D03*
X218504Y383858D02*
D03*
X221457Y389764D02*
D03*
X218504Y395669D02*
D03*
Y407480D02*
D03*
X221457Y413386D02*
D03*
X218504Y419291D02*
D03*
X221457Y425197D02*
D03*
X227362Y248031D02*
D03*
Y259842D02*
D03*
X224410Y289370D02*
D03*
Y301181D02*
D03*
Y324803D02*
D03*
X227362Y377953D02*
D03*
X224410Y383858D02*
D03*
X227362Y389764D02*
D03*
Y401575D02*
D03*
X224410Y407480D02*
D03*
X227362Y413386D02*
D03*
X224410Y419291D02*
D03*
X227362Y425197D02*
D03*
X233268Y248031D02*
D03*
X230315Y253937D02*
D03*
X233268Y259842D02*
D03*
X230315Y265748D02*
D03*
X233268Y330709D02*
D03*
X230315Y336614D02*
D03*
Y372047D02*
D03*
Y383858D02*
D03*
Y395669D02*
D03*
X233268Y401575D02*
D03*
X230315Y407480D02*
D03*
Y419291D02*
D03*
X236221Y253937D02*
D03*
X239173Y259842D02*
D03*
X236221Y265748D02*
D03*
X239173Y283465D02*
D03*
Y330709D02*
D03*
X236221Y336614D02*
D03*
Y372047D02*
D03*
X239173Y377953D02*
D03*
Y389764D02*
D03*
X236221Y395669D02*
D03*
X239173Y401575D02*
D03*
X242126Y277559D02*
D03*
Y289370D02*
D03*
X245079Y330709D02*
D03*
X242126Y336614D02*
D03*
X245079Y354331D02*
D03*
Y366142D02*
D03*
X242126Y372047D02*
D03*
Y383858D02*
D03*
Y395669D02*
D03*
X245079Y401575D02*
D03*
X250984Y271654D02*
D03*
X248031Y277559D02*
D03*
X250984Y283465D02*
D03*
Y330709D02*
D03*
X248031Y336614D02*
D03*
X250984Y354331D02*
D03*
X248031Y360236D02*
D03*
X250984Y366142D02*
D03*
Y377953D02*
D03*
X248031Y395669D02*
D03*
X250984Y401575D02*
D03*
X256890Y259842D02*
D03*
X253937Y265748D02*
D03*
X256890Y271654D02*
D03*
X253937Y277559D02*
D03*
X256890Y283465D02*
D03*
X253937Y301181D02*
D03*
X256890Y318898D02*
D03*
X253937Y324803D02*
D03*
X256890Y330709D02*
D03*
X253937Y336614D02*
D03*
X256890Y354331D02*
D03*
X253937Y360236D02*
D03*
Y372047D02*
D03*
X256890Y377953D02*
D03*
X253937Y383858D02*
D03*
Y395669D02*
D03*
X256890Y401575D02*
D03*
X262795Y259842D02*
D03*
Y271654D02*
D03*
Y283465D02*
D03*
X259842Y312992D02*
D03*
Y324803D02*
D03*
X262795Y330709D02*
D03*
X259842Y336614D02*
D03*
X262795Y354331D02*
D03*
Y366142D02*
D03*
X259842Y372047D02*
D03*
X262795Y377953D02*
D03*
X259842Y383858D02*
D03*
Y395669D02*
D03*
X262795Y401575D02*
D03*
X268701Y318898D02*
D03*
X265748Y336614D02*
D03*
X268701Y342520D02*
D03*
X265748Y348425D02*
D03*
Y360236D02*
D03*
X268701Y366142D02*
D03*
X265748Y372047D02*
D03*
X268701Y377953D02*
D03*
X265748Y395669D02*
D03*
X268701Y401575D02*
D03*
X271654Y242126D02*
D03*
X274606Y248031D02*
D03*
Y259842D02*
D03*
Y271654D02*
D03*
Y283465D02*
D03*
X271654Y312992D02*
D03*
X274606Y318898D02*
D03*
Y330709D02*
D03*
Y342520D02*
D03*
X271654Y360236D02*
D03*
X274606Y366142D02*
D03*
X271654Y372047D02*
D03*
X274606Y377953D02*
D03*
X271654Y383858D02*
D03*
Y395669D02*
D03*
X274606Y401575D02*
D03*
X277559Y242126D02*
D03*
Y265748D02*
D03*
X280512Y271654D02*
D03*
X277559Y277559D02*
D03*
Y324803D02*
D03*
X280512Y330709D02*
D03*
Y342520D02*
D03*
Y366142D02*
D03*
Y377953D02*
D03*
X277559Y383858D02*
D03*
X280512Y389764D02*
D03*
X283465Y242126D02*
D03*
Y265748D02*
D03*
X286417Y271654D02*
D03*
X283465Y277559D02*
D03*
X286417Y307087D02*
D03*
X283465Y324803D02*
D03*
X286417Y330709D02*
D03*
Y342520D02*
D03*
X283465Y360236D02*
D03*
X286417Y366142D02*
D03*
Y377953D02*
D03*
X283465Y383858D02*
D03*
X286417Y389764D02*
D03*
X283465Y395669D02*
D03*
X286417Y401575D02*
D03*
X289370Y242126D02*
D03*
X292323Y248031D02*
D03*
X289370Y253937D02*
D03*
X292323Y259842D02*
D03*
X289370Y265748D02*
D03*
X292323Y271654D02*
D03*
X289370Y277559D02*
D03*
X292323Y307087D02*
D03*
Y318898D02*
D03*
X289370Y324803D02*
D03*
X292323Y330709D02*
D03*
Y366142D02*
D03*
X289370Y372047D02*
D03*
X292323Y377953D02*
D03*
X289370Y383858D02*
D03*
X292323Y389764D02*
D03*
X289370Y395669D02*
D03*
X292323Y401575D02*
D03*
X295276Y242126D02*
D03*
X298228Y248031D02*
D03*
X295276Y253937D02*
D03*
X298228Y259842D02*
D03*
X295276Y265748D02*
D03*
X298228Y271654D02*
D03*
X295276Y277559D02*
D03*
X298228Y307087D02*
D03*
X295276Y324803D02*
D03*
X298228Y342520D02*
D03*
X295276Y360236D02*
D03*
X298228Y366142D02*
D03*
X295276Y372047D02*
D03*
X298228Y377953D02*
D03*
X295276Y383858D02*
D03*
X298228Y389764D02*
D03*
X295276Y395669D02*
D03*
X298228Y401575D02*
D03*
Y413386D02*
D03*
Y425197D02*
D03*
X301181Y242126D02*
D03*
X304134Y248031D02*
D03*
X301181Y253937D02*
D03*
X304134Y259842D02*
D03*
X301181Y265748D02*
D03*
X304134Y271654D02*
D03*
X301181Y277559D02*
D03*
X304134Y318898D02*
D03*
Y330709D02*
D03*
Y342520D02*
D03*
X301181Y360236D02*
D03*
Y372047D02*
D03*
X304134Y377953D02*
D03*
X301181Y383858D02*
D03*
X304134Y389764D02*
D03*
X301181Y395669D02*
D03*
X304134Y401575D02*
D03*
X301181Y407480D02*
D03*
X304134Y413386D02*
D03*
X301181Y419291D02*
D03*
X304134Y425197D02*
D03*
X307087Y242126D02*
D03*
X310039Y248031D02*
D03*
X307087Y253937D02*
D03*
X310039Y259842D02*
D03*
X307087Y265748D02*
D03*
X310039Y271654D02*
D03*
X307087Y277559D02*
D03*
Y324803D02*
D03*
X310039Y342520D02*
D03*
X307087Y348425D02*
D03*
X310039Y354331D02*
D03*
Y377953D02*
D03*
X307087Y383858D02*
D03*
X310039Y389764D02*
D03*
X307087Y395669D02*
D03*
X310039Y401575D02*
D03*
X307087Y407480D02*
D03*
X310039Y413386D02*
D03*
X307087Y419291D02*
D03*
X310039Y425197D02*
D03*
X312992Y242126D02*
D03*
X315945Y248031D02*
D03*
X312992Y253937D02*
D03*
X315945Y259842D02*
D03*
X312992Y265748D02*
D03*
X315945Y271654D02*
D03*
X312992Y277559D02*
D03*
X315945Y318898D02*
D03*
X312992Y324803D02*
D03*
X315945Y342520D02*
D03*
X312992Y348425D02*
D03*
X315945Y354331D02*
D03*
Y377953D02*
D03*
X312992Y383858D02*
D03*
X315945Y389764D02*
D03*
X312992Y395669D02*
D03*
X315945Y401575D02*
D03*
X312992Y407480D02*
D03*
X315945Y413386D02*
D03*
X312992Y419291D02*
D03*
X315945Y425197D02*
D03*
X318898Y242126D02*
D03*
X321850Y248031D02*
D03*
X318898Y253937D02*
D03*
X321850Y259842D02*
D03*
X318898Y265748D02*
D03*
X321850Y271654D02*
D03*
X318898Y289370D02*
D03*
X321850Y318898D02*
D03*
X318898Y324803D02*
D03*
Y348425D02*
D03*
Y360236D02*
D03*
X321850Y377953D02*
D03*
X318898Y383858D02*
D03*
X321850Y389764D02*
D03*
X318898Y395669D02*
D03*
X321850Y401575D02*
D03*
X318898Y407480D02*
D03*
X321850Y413386D02*
D03*
X318898Y419291D02*
D03*
X321850Y425197D02*
D03*
X324803Y242126D02*
D03*
X327756Y248031D02*
D03*
X324803Y253937D02*
D03*
X327756Y283465D02*
D03*
X324803Y289370D02*
D03*
X327756Y295276D02*
D03*
Y318898D02*
D03*
X324803Y324803D02*
D03*
X327756Y377953D02*
D03*
X324803Y383858D02*
D03*
X327756Y389764D02*
D03*
X324803Y395669D02*
D03*
X327756Y401575D02*
D03*
X324803Y407480D02*
D03*
X327756Y413386D02*
D03*
X324803Y419291D02*
D03*
X327756Y425197D02*
D03*
X330709Y242126D02*
D03*
X333661Y248031D02*
D03*
X330709Y253937D02*
D03*
Y277559D02*
D03*
X333661Y283465D02*
D03*
X330709Y289370D02*
D03*
Y301181D02*
D03*
X333661Y318898D02*
D03*
Y377953D02*
D03*
X330709Y383858D02*
D03*
X333661Y389764D02*
D03*
X330709Y395669D02*
D03*
X333661Y401575D02*
D03*
X330709Y407480D02*
D03*
X333661Y413386D02*
D03*
X330709Y419291D02*
D03*
X333661Y425197D02*
D03*
X336614Y242126D02*
D03*
X339567Y248031D02*
D03*
X336614Y253937D02*
D03*
X339567Y259842D02*
D03*
X336614Y265748D02*
D03*
X339567Y271654D02*
D03*
X336614Y277559D02*
D03*
X339567Y283465D02*
D03*
Y318898D02*
D03*
X336614Y360236D02*
D03*
X339567Y377953D02*
D03*
X336614Y383858D02*
D03*
X339567Y389764D02*
D03*
X336614Y395669D02*
D03*
X339567Y401575D02*
D03*
X336614Y407480D02*
D03*
X339567Y413386D02*
D03*
X336614Y419291D02*
D03*
X339567Y425197D02*
D03*
X342520Y242126D02*
D03*
X345472Y248031D02*
D03*
X342520Y253937D02*
D03*
X345472Y259842D02*
D03*
X342520Y265748D02*
D03*
X345472Y271654D02*
D03*
X342520Y277559D02*
D03*
X345472Y283465D02*
D03*
Y295276D02*
D03*
Y307087D02*
D03*
Y318898D02*
D03*
Y377953D02*
D03*
X342520Y383858D02*
D03*
X345472Y389764D02*
D03*
X342520Y395669D02*
D03*
X345472Y401575D02*
D03*
X342520Y407480D02*
D03*
X345472Y413386D02*
D03*
X342520Y419291D02*
D03*
X345472Y425197D02*
D03*
X348425Y242126D02*
D03*
X351378Y248031D02*
D03*
X348425Y253937D02*
D03*
X351378Y259842D02*
D03*
X348425Y265748D02*
D03*
X351378Y271654D02*
D03*
X348425Y277559D02*
D03*
X351378Y283465D02*
D03*
X348425Y289370D02*
D03*
X351378Y295276D02*
D03*
X348425Y301181D02*
D03*
X351378Y307087D02*
D03*
X348425Y312992D02*
D03*
X351378Y318898D02*
D03*
X348425Y324803D02*
D03*
X351378Y330709D02*
D03*
Y342520D02*
D03*
Y354331D02*
D03*
Y366142D02*
D03*
X348425Y372047D02*
D03*
X351378Y377953D02*
D03*
X348425Y383858D02*
D03*
X351378Y389764D02*
D03*
X348425Y395669D02*
D03*
X351378Y401575D02*
D03*
X348425Y407480D02*
D03*
X351378Y413386D02*
D03*
X348425Y419291D02*
D03*
X351378Y425197D02*
D03*
X227362Y318898D02*
D03*
X242126Y360236D02*
D03*
X224400Y363700D02*
D03*
X228700Y358600D02*
D03*
M02*
