M48
;Layer_Color=9474304
;FILE_FORMAT=2:5
INCH,TZ
;TYPE=PLATED
T1F00S00C0.01200
T2F00S00C0.02362
T3F00S00C0.03200
T4F00S00C0.03543
%
T01
X312992Y242126
X318898
X324803
X330709
X336614
X342520
X348425
X351378Y248031
X345472
X339567
X333661
X327756
X321850
X315945
X312992Y253937
X318898
X324803
X330709
X336614
X342520
X348425
X351378Y259842
X345472
X339567
X336614Y265748
X342520
X348425
X351378Y271654
X345472
X339567
X336614Y277559
X330709
X333661Y283465
X327756
X324803Y289370
X318898
X330709
X327756Y295276
X330709Y301181
X315700Y302700
X312992Y277559
X315945Y271654
X321850
X318898Y265748
X312992
X315945Y259842
X321850
X342520Y277559
X348425
X351378Y283465
X345472
X339567
X348425Y289370
X351378Y295276
X345472
X348425Y301181
X351378Y307087
X345472
X298228
X292323
X286417
X283465Y277559
X277559
X280512Y271654
X274606
X277559Y265748
X283465
X289370
X295276
X301181
X307087
X310039Y259842
X304134
X298228
X292323
X289370Y253937
X295276
X301181
X307087
X310039Y248031
X304134
X298228
X292323
X289370Y242126
X283465
X277559
X271654
X274606Y248031
Y259842
X262795
X256890
X253937Y265748
X256890Y271654
X250984
X248031Y277559
X242126
X239173Y283465
X242126Y289370
X246900Y294900
X253937Y301181
X256890Y283465
X250984
X253937Y277559
X262795Y271654
Y283465
X274606
X289370Y277559
X295276
X301181
X307087
X310039Y271654
X304134
X298228
X292323
X286417
X295276Y242126
X301181
X307087
X233268Y248031
X227362
X230315Y253937
X236221
X239173Y259842
X233268
X227362
X230315Y265748
X236221
X221457Y271654
X215551
X209646
X203740
X206693Y265748
X209646Y259842
X203740
X206693Y253937
X212598
X215551Y248031
X209646
X203740
X206693Y242126
X212598
X215551Y259842
X212598Y289370
X206693
X200787
X203740Y295276
X197835
X200787Y301181
X212598
X218504
X224410
X221457Y295276
X215551
X209646
X218504Y289370
X224410
X183071
X177165
X171260
X174213Y283465
X168307
X171260Y277559
X177165
X180118Y283465
Y295276
X174213
X168307
X171260Y301181
X177165
X183071
X186024Y295276
Y307087
X175197Y259843
X174213Y259842
X168307
X177165Y253937
X191929Y342520
X196400Y347300
X206693Y336614
X209000Y331600
X224410Y324803
X227362Y318898
X233268Y330709
X239173
X245079
X250984
X256890
X262795
X259842Y324803
X253937
X256890Y318898
X259842Y312992
X271654
X274606Y318898
X268701
X277559Y324803
X283465
X289370
X295276
X292323Y318898
Y330709
X286417
X280512
X274606
Y342520
X268701
X265748Y336614
X259842
X253937
X248031
X242126
X236221
X230315
X228700Y358600
X235000Y357800
X242126Y360236
X248031
X253937
X256890Y354331
X250984
X245079
Y366142
X250984
X253937Y372047
X259842
X265748
X271654
X274606Y366142
X268701
X262795
X265748Y360236
X271654
X283465
X286417Y366142
X280512
Y377953
X274606
X268701
X262795
X256890
X250984
X253937Y383858
X259842
Y395669
X253937
X248031
X242126
X236221
X230315
X233268Y401575
X227362
X224410Y407480
X218504
X212598
X206693
X209646Y413386
X215551
X221457
X227362
X224410Y419291
X218504
X212598
X206693
X200787
X203740Y425197
X197835
X191929
X186024
X180118
X174213
X168307
X162402
X159449Y419291
X171260Y407480
X174213Y401575
X168307
X171260Y395669
X174213Y389764
X168307
X171260Y383858
X177165
X183071
X188976
X194882
X200500Y382700
X206693Y383858
X212598
X218504
X224410
X230315
X227362Y377953
X221457
X215551
X209646
X203740
X197835
X191929
X186024
X180118
X174213
X168307
X183071Y395669
X179700Y402800
X206693Y395669
X212598
X218504
X221457Y389764
X215551
X209646
X203740
X227362
X239173
X242126Y383858
X239173Y377953
X236221Y372047
X230315
X242126
X224400Y363700
X211700Y359500
X196400Y368800
X209646Y425197
X215551
X221457
X227362
X230315Y419291
Y407480
X239173Y401575
X245079
X250984
X256890
X262795
X268701
X274606
X271654Y395669
X265748
X271654Y383858
X277559
X283465
X289370
X295276
X301181
X307087
X310039Y377953
X304134
X298228
X292323
X286417
X289370Y372047
X295276
X301181
X298228Y366142
X292323
X295276Y360236
X301181
X310039Y354331
X307087Y348425
X310039Y342520
X304134
X298228
X286417
X280512
X265748Y348425
X262795Y354331
X246900Y317400
X304134Y318898
X307087Y324803
X304134Y330709
Y389764
X298228
X292323
X286417
X280512
X283465Y395669
X289370
X295276
X301181
X307087
X310039Y389764
Y401575
X304134
X298228
X292323
X286417
X301181Y407480
X307087
X310039Y413386
X304134
X298228
X301181Y419291
X307087
X310039Y425197
X304134
X298228
X315945
X321850
X327756
X333661
X339567
X345472
X351378
X348425Y419291
X342520
X336614
X330709
X324803
X318898
X312992
X315945Y413386
X321850
X327756
X333661
X339567
X345472
X351378
X348425Y407480
X342520
X336614
X330709
X324803
X318898
X312992
X315945Y401575
X321850
X327756
X333661
X339567
X345472
X351378
X348425Y395669
X342520
X336614
X330709
X324803
X318898
X312992
X315945Y389764
X321850
X327756
X333661
X339567
X345472
X351378
X348425Y383858
X342520
X336614
X330709
X324803
X318898
X312992
X315945Y377953
X321850
X327756
X333661
X339567
X345472
X351378
X348425Y372047
X351378Y366142
Y354331
Y342520
Y330709
X348425Y324803
X351378Y318898
X345472
X339567
X333661
X327756
X321850
X315945
X312992Y324803
X318898
X324803
X315945Y342520
X312992Y348425
X318898
X315945Y354331
X318898Y360236
X336614
X348425Y312992
T02
X322126Y263800
X330000
X220472Y263779
X212598
T03
X277402Y304961
X287402Y314961
X267402
T04
X171102Y310709
X181102
Y320709
Y330709
Y340709
Y350709
Y360709
X171102
Y350709
Y340709
Y330709
Y320709
M30
