G04 Layer_Physical_Order=2*
G04 Layer_Color=16711680*
%FSLAX25Y25*%
%MOIN*%
G70*
G01*
G75*
%ADD28C,0.01000*%
%ADD32C,0.01600*%
%ADD33R,0.05905X0.05905*%
%ADD34C,0.05905*%
%ADD35C,0.03937*%
%ADD36C,0.03200*%
%ADD37C,0.02400*%
G36*
X226271Y433071D02*
X226700Y432571D01*
X226700Y405100D01*
X296700Y405100D01*
X296700Y433071D01*
X354331Y433071D01*
X354331Y236592D01*
X353959Y236221D01*
X157834D01*
X157481Y236575D01*
X158079Y433071D01*
X226271Y433071D01*
D02*
G37*
%LPC*%
G36*
X211700Y361335D02*
X210998Y361196D01*
X210402Y360798D01*
X210004Y360202D01*
X209865Y359500D01*
X210004Y358798D01*
X210402Y358202D01*
X210998Y357804D01*
X211700Y357665D01*
X212402Y357804D01*
X212998Y358202D01*
X213396Y358798D01*
X213535Y359500D01*
X213396Y360202D01*
X212998Y360798D01*
X212402Y361196D01*
X211700Y361335D01*
D02*
G37*
G36*
X174055Y364311D02*
X168150D01*
X167690Y364121D01*
X167500Y363661D01*
Y357756D01*
X167690Y357297D01*
X168150Y357106D01*
X174055D01*
X174514Y357297D01*
X174705Y357756D01*
Y363661D01*
X174514Y364121D01*
X174055Y364311D01*
D02*
G37*
G36*
X181102Y354292D02*
X180175Y354170D01*
X179311Y353812D01*
X178569Y353242D01*
X177999Y352500D01*
X177641Y351636D01*
X177519Y350709D01*
X177641Y349781D01*
X177999Y348917D01*
X178569Y348175D01*
X179311Y347605D01*
X180175Y347247D01*
X181102Y347125D01*
X182030Y347247D01*
X182894Y347605D01*
X183636Y348175D01*
X184206Y348917D01*
X184564Y349781D01*
X184686Y350709D01*
X184564Y351636D01*
X184206Y352500D01*
X183636Y353242D01*
X182894Y353812D01*
X182030Y354170D01*
X181102Y354292D01*
D02*
G37*
G36*
X171102D02*
X170175Y354170D01*
X169311Y353812D01*
X168569Y353242D01*
X167999Y352500D01*
X167641Y351636D01*
X167519Y350709D01*
X167641Y349781D01*
X167999Y348917D01*
X168569Y348175D01*
X169311Y347605D01*
X170175Y347247D01*
X171102Y347125D01*
X172030Y347247D01*
X172894Y347605D01*
X173636Y348175D01*
X174206Y348917D01*
X174564Y349781D01*
X174686Y350709D01*
X174564Y351636D01*
X174206Y352500D01*
X173636Y353242D01*
X172894Y353812D01*
X172030Y354170D01*
X171102Y354292D01*
D02*
G37*
G36*
X196400Y370635D02*
X195698Y370496D01*
X195102Y370098D01*
X194704Y369502D01*
X194565Y368800D01*
X194704Y368098D01*
X194973Y367696D01*
Y348404D01*
X194704Y348002D01*
X194565Y347300D01*
X194704Y346598D01*
X194973Y346196D01*
Y337300D01*
X194973Y337300D01*
X195081Y336754D01*
X195391Y336291D01*
X201091Y330591D01*
X201091Y330591D01*
X201554Y330281D01*
X202100Y330173D01*
X202100Y330173D01*
X207896D01*
X208298Y329904D01*
X209000Y329765D01*
X209702Y329904D01*
X210298Y330302D01*
X210696Y330898D01*
X210835Y331600D01*
X210696Y332302D01*
X210298Y332898D01*
X209702Y333296D01*
X209000Y333435D01*
X208298Y333296D01*
X207896Y333027D01*
X202691D01*
X197827Y337891D01*
Y345873D01*
X230600D01*
X230600Y345873D01*
X231146Y345981D01*
X231609Y346291D01*
X236009Y350691D01*
X236319Y351154D01*
X236427Y351700D01*
X236427Y351700D01*
Y356696D01*
X236696Y357098D01*
X236835Y357800D01*
X236696Y358502D01*
X236298Y359098D01*
X235702Y359496D01*
X235000Y359635D01*
X234298Y359496D01*
X233702Y359098D01*
X233304Y358502D01*
X233165Y357800D01*
X233304Y357098D01*
X233573Y356696D01*
Y352291D01*
X230009Y348727D01*
X197827D01*
Y367696D01*
X198096Y368098D01*
X198235Y368800D01*
X198096Y369502D01*
X197698Y370098D01*
X197102Y370496D01*
X196400Y370635D01*
D02*
G37*
G36*
X181102Y344292D02*
X180175Y344170D01*
X179311Y343812D01*
X178569Y343243D01*
X177999Y342500D01*
X177641Y341636D01*
X177519Y340709D01*
X177641Y339781D01*
X177999Y338917D01*
X178569Y338175D01*
X179311Y337605D01*
X180175Y337247D01*
X181102Y337125D01*
X182030Y337247D01*
X182894Y337605D01*
X183636Y338175D01*
X184206Y338917D01*
X184564Y339781D01*
X184686Y340709D01*
X184564Y341636D01*
X184206Y342500D01*
X183636Y343243D01*
X182894Y343812D01*
X182030Y344170D01*
X181102Y344292D01*
D02*
G37*
G36*
X171102D02*
X170175Y344170D01*
X169311Y343812D01*
X168569Y343243D01*
X167999Y342500D01*
X167641Y341636D01*
X167519Y340709D01*
X167641Y339781D01*
X167999Y338917D01*
X168569Y338175D01*
X169311Y337605D01*
X170175Y337247D01*
X171102Y337125D01*
X172030Y337247D01*
X172894Y337605D01*
X173636Y338175D01*
X174206Y338917D01*
X174564Y339781D01*
X174686Y340709D01*
X174564Y341636D01*
X174206Y342500D01*
X173636Y343243D01*
X172894Y343812D01*
X172030Y344170D01*
X171102Y344292D01*
D02*
G37*
G36*
X181102Y334292D02*
X180175Y334170D01*
X179311Y333812D01*
X178569Y333243D01*
X177999Y332500D01*
X177641Y331636D01*
X177519Y330709D01*
X177641Y329781D01*
X177999Y328917D01*
X178569Y328175D01*
X179311Y327605D01*
X180175Y327247D01*
X181102Y327125D01*
X182030Y327247D01*
X182894Y327605D01*
X183636Y328175D01*
X184206Y328917D01*
X184564Y329781D01*
X184686Y330709D01*
X184564Y331636D01*
X184206Y332500D01*
X183636Y333243D01*
X182894Y333812D01*
X182030Y334170D01*
X181102Y334292D01*
D02*
G37*
G36*
X171102D02*
X170175Y334170D01*
X169311Y333812D01*
X168569Y333243D01*
X167999Y332500D01*
X167641Y331636D01*
X167519Y330709D01*
X167641Y329781D01*
X167999Y328917D01*
X168569Y328175D01*
X169311Y327605D01*
X170175Y327247D01*
X171102Y327125D01*
X172030Y327247D01*
X172894Y327605D01*
X173636Y328175D01*
X174206Y328917D01*
X174564Y329781D01*
X174686Y330709D01*
X174564Y331636D01*
X174206Y332500D01*
X173636Y333243D01*
X172894Y333812D01*
X172030Y334170D01*
X171102Y334292D01*
D02*
G37*
G36*
X181102Y324292D02*
X180175Y324170D01*
X179311Y323812D01*
X178569Y323242D01*
X177999Y322500D01*
X177641Y321636D01*
X177519Y320709D01*
X177641Y319781D01*
X177999Y318917D01*
X178569Y318175D01*
X179311Y317605D01*
X180175Y317247D01*
X181102Y317125D01*
X182030Y317247D01*
X182894Y317605D01*
X183636Y318175D01*
X184206Y318917D01*
X184564Y319781D01*
X184686Y320709D01*
X184564Y321636D01*
X184206Y322500D01*
X183636Y323242D01*
X182894Y323812D01*
X182030Y324170D01*
X181102Y324292D01*
D02*
G37*
G36*
X171102D02*
X170175Y324170D01*
X169311Y323812D01*
X168569Y323242D01*
X167999Y322500D01*
X167641Y321636D01*
X167519Y320709D01*
X167641Y319781D01*
X167999Y318917D01*
X168569Y318175D01*
X169311Y317605D01*
X170175Y317247D01*
X171102Y317125D01*
X172030Y317247D01*
X172894Y317605D01*
X173636Y318175D01*
X174206Y318917D01*
X174564Y319781D01*
X174686Y320709D01*
X174564Y321636D01*
X174206Y322500D01*
X173636Y323242D01*
X172894Y323812D01*
X172030Y324170D01*
X171102Y324292D01*
D02*
G37*
G36*
X288263Y318053D02*
X286274Y317966D01*
X285824Y317756D01*
X284480Y316289D01*
X284310Y315822D01*
X284396Y313833D01*
X284606Y313383D01*
X286074Y312039D01*
X286541Y311869D01*
X288529Y311955D01*
X288979Y312165D01*
X290324Y313633D01*
X290494Y314100D01*
X290407Y316088D01*
X290197Y316538D01*
X288730Y317883D01*
X288263Y318053D01*
D02*
G37*
G36*
X268263D02*
X266274Y317966D01*
X265824Y317756D01*
X264480Y316289D01*
X264310Y315822D01*
X264396Y313833D01*
X264606Y313383D01*
X266074Y312039D01*
X266541Y311869D01*
X268529Y311955D01*
X268979Y312165D01*
X270324Y313633D01*
X270494Y314100D01*
X270407Y316088D01*
X270197Y316538D01*
X268730Y317883D01*
X268263Y318053D01*
D02*
G37*
G36*
X181102Y314292D02*
X180175Y314170D01*
X179311Y313812D01*
X178569Y313243D01*
X177999Y312500D01*
X177641Y311636D01*
X177519Y310709D01*
X177641Y309781D01*
X177999Y308917D01*
X178569Y308175D01*
X179311Y307605D01*
X180175Y307247D01*
X181102Y307125D01*
X182030Y307247D01*
X182894Y307605D01*
X183636Y308175D01*
X184206Y308917D01*
X184564Y309781D01*
X184686Y310709D01*
X184564Y311636D01*
X184206Y312500D01*
X183636Y313243D01*
X182894Y313812D01*
X182030Y314170D01*
X181102Y314292D01*
D02*
G37*
G36*
X171102D02*
X170175Y314170D01*
X169311Y313812D01*
X168569Y313243D01*
X167999Y312500D01*
X167641Y311636D01*
X167519Y310709D01*
X167641Y309781D01*
X167999Y308917D01*
X168569Y308175D01*
X169311Y307605D01*
X170175Y307247D01*
X171102Y307125D01*
X172030Y307247D01*
X172894Y307605D01*
X173636Y308175D01*
X174206Y308917D01*
X174564Y309781D01*
X174686Y310709D01*
X174564Y311636D01*
X174206Y312500D01*
X173636Y313243D01*
X172894Y313812D01*
X172030Y314170D01*
X171102Y314292D01*
D02*
G37*
G36*
X278262Y308053D02*
X276274Y307966D01*
X275824Y307756D01*
X274480Y306289D01*
X274310Y305821D01*
X274396Y303834D01*
X274606Y303383D01*
X276074Y302039D01*
X276541Y301869D01*
X278529Y301955D01*
X278979Y302166D01*
X280324Y303633D01*
X280494Y304100D01*
X280407Y306088D01*
X280197Y306538D01*
X278730Y307883D01*
X278262Y308053D01*
D02*
G37*
G36*
X179700Y404635D02*
X178998Y404496D01*
X178402Y404098D01*
X178004Y403502D01*
X177865Y402800D01*
X178004Y402098D01*
X178402Y401502D01*
X178998Y401104D01*
X179700Y400965D01*
X180402Y401104D01*
X180998Y401502D01*
X181115Y401679D01*
X217335D01*
X273707Y345307D01*
X273707Y345307D01*
X274071Y345064D01*
X274500Y344978D01*
X274500Y344978D01*
X290835D01*
X298779Y337035D01*
Y308800D01*
X298778Y308800D01*
X298864Y308371D01*
X299107Y308007D01*
X305207Y301907D01*
X305207Y301907D01*
X305571Y301664D01*
X306000Y301578D01*
X314285D01*
X314402Y301402D01*
X314998Y301004D01*
X315700Y300865D01*
X316402Y301004D01*
X316998Y301402D01*
X317396Y301998D01*
X317535Y302700D01*
X317396Y303402D01*
X316998Y303998D01*
X316402Y304396D01*
X315700Y304535D01*
X314998Y304396D01*
X314402Y303998D01*
X314285Y303821D01*
X306465D01*
X301022Y309265D01*
Y337500D01*
X301022Y337500D01*
X300936Y337929D01*
X300693Y338293D01*
X300693Y338293D01*
X292093Y346893D01*
X291729Y347136D01*
X291300Y347222D01*
X291300Y347221D01*
X274965D01*
X218593Y403593D01*
X218229Y403836D01*
X217800Y403922D01*
X217800Y403922D01*
X181115D01*
X180998Y404098D01*
X180402Y404496D01*
X179700Y404635D01*
D02*
G37*
G36*
X246900Y319235D02*
X246198Y319096D01*
X245602Y318698D01*
X245204Y318102D01*
X245065Y317400D01*
X245204Y316698D01*
X245473Y316296D01*
Y296004D01*
X245204Y295602D01*
X245065Y294900D01*
X245204Y294198D01*
X245602Y293602D01*
X246198Y293204D01*
X246900Y293065D01*
X247602Y293204D01*
X248198Y293602D01*
X248596Y294198D01*
X248735Y294900D01*
X248596Y295602D01*
X248327Y296004D01*
Y316296D01*
X248596Y316698D01*
X248735Y317400D01*
X248596Y318102D01*
X248198Y318698D01*
X247602Y319096D01*
X246900Y319235D01*
D02*
G37*
G36*
X220472Y266370D02*
X219802Y266282D01*
X219177Y266023D01*
X218640Y265612D01*
X218229Y265075D01*
X217970Y264450D01*
X217882Y263780D01*
X217970Y263109D01*
X218229Y262484D01*
X218640Y261948D01*
X219177Y261536D01*
X219802Y261277D01*
X220472Y261189D01*
X221143Y261277D01*
X221768Y261536D01*
X222304Y261948D01*
X222716Y262484D01*
X222975Y263109D01*
X223063Y263780D01*
X222975Y264450D01*
X222716Y265075D01*
X222304Y265612D01*
X221768Y266023D01*
X221143Y266282D01*
X220472Y266370D01*
D02*
G37*
G36*
X319803Y265047D02*
X319133Y264959D01*
X318508Y264700D01*
X317971Y264288D01*
X317560Y263752D01*
X317301Y263127D01*
X317213Y262457D01*
X317301Y261786D01*
X317560Y261161D01*
X317971Y260625D01*
X318508Y260213D01*
X319133Y259954D01*
X319803Y259866D01*
X320474Y259954D01*
X321098Y260213D01*
X321635Y260625D01*
X322047Y261161D01*
X322306Y261786D01*
X322394Y262457D01*
X322306Y263127D01*
X322047Y263752D01*
X321635Y264288D01*
X321098Y264700D01*
X320474Y264959D01*
X319803Y265047D01*
D02*
G37*
%LPD*%
G36*
X289758Y316059D02*
X289845Y314071D01*
X288500Y312604D01*
X286512Y312517D01*
X285045Y313862D01*
X284958Y315850D01*
X286303Y317317D01*
X288291Y317404D01*
X289758Y316059D01*
D02*
G37*
G36*
X269758D02*
X269845Y314071D01*
X268500Y312604D01*
X266512Y312517D01*
X265045Y313862D01*
X264958Y315850D01*
X266303Y317317D01*
X268291Y317404D01*
X269758Y316059D01*
D02*
G37*
G36*
X279758Y306059D02*
X279845Y304071D01*
X278500Y302604D01*
X276512Y302517D01*
X275045Y303862D01*
X274958Y305850D01*
X276303Y307317D01*
X278291Y307404D01*
X279758Y306059D01*
D02*
G37*
D28*
X306000Y302700D02*
X315700D01*
X299900Y308800D02*
X306000Y302700D01*
X299900Y308800D02*
Y337500D01*
X291300Y346100D02*
X299900Y337500D01*
X274500Y346100D02*
X291300D01*
X217800Y402800D02*
X274500Y346100D01*
X179700Y402800D02*
X217800D01*
D32*
X202100Y331600D02*
X209000D01*
X196400Y337300D02*
X202100Y331600D01*
X196400Y368800D02*
X196500Y368900D01*
X196400Y347300D02*
X230600D01*
X235000Y351700D01*
Y357800D01*
X246900Y294900D02*
Y317400D01*
X196400Y337300D02*
Y347300D01*
Y368800D01*
D33*
X171102Y360709D02*
D03*
D34*
X181102D02*
D03*
X171102Y350709D02*
D03*
X181102D02*
D03*
X171102Y340709D02*
D03*
X181102D02*
D03*
X171102Y330709D02*
D03*
X181102D02*
D03*
X171102Y320709D02*
D03*
X181102D02*
D03*
X171102Y310709D02*
D03*
X181102D02*
D03*
D35*
X212598Y263779D02*
D03*
X220472D02*
D03*
X311929Y262457D02*
D03*
X319803D02*
D03*
D36*
X287402Y314961D02*
D03*
X277402Y304961D02*
D03*
X267402Y314961D02*
D03*
D37*
X211700Y359500D02*
D03*
X209000Y331600D02*
D03*
X196400Y347300D02*
D03*
Y368800D02*
D03*
X235000Y357800D02*
D03*
X179700Y402800D02*
D03*
X315700Y302700D02*
D03*
X246900Y317400D02*
D03*
Y294900D02*
D03*
X261600Y362700D02*
D03*
X342900Y266100D02*
D03*
X227700Y388700D02*
D03*
X186800Y377200D02*
D03*
X176900Y287700D02*
D03*
X341900Y243900D02*
D03*
X300600Y344300D02*
D03*
X289300Y396400D02*
D03*
M02*
