G04 Layer_Physical_Order=1*
G04 Layer_Color=255*
%FSLAX25Y25*%
%MOIN*%
G70*
G01*
G75*
%ADD10R,0.03150X0.03150*%
%ADD11O,0.00984X0.03150*%
%ADD12O,0.03150X0.00984*%
%ADD13R,0.14567X0.14567*%
%ADD14R,0.03740X0.03347*%
%ADD15O,0.06693X0.02362*%
%ADD16R,0.08858X0.03150*%
%ADD17R,0.08858X0.12402*%
%ADD18R,0.02362X0.03347*%
%ADD19R,0.04724X0.04724*%
%ADD20R,0.05905X0.06299*%
%ADD21R,0.03150X0.03543*%
%ADD22R,0.03701X0.03307*%
%ADD23O,0.02362X0.05709*%
%ADD24R,0.03347X0.03740*%
%ADD25R,0.02953X0.03740*%
%ADD26R,0.03740X0.02953*%
%ADD27R,0.01772X0.01929*%
%ADD28C,0.01000*%
%ADD29C,0.00800*%
%ADD30C,0.00600*%
%ADD31C,0.01200*%
%ADD32C,0.01600*%
%ADD33R,0.05905X0.05905*%
%ADD34C,0.05905*%
%ADD35C,0.03937*%
%ADD36C,0.03200*%
%ADD37C,0.02400*%
G36*
X226700Y432893D02*
X226700Y405000D01*
X279978Y405000D01*
Y398765D01*
X272093Y390879D01*
X268283D01*
Y391431D01*
X268093Y391890D01*
X267633Y392080D01*
X263893D01*
X263434Y391890D01*
X263244Y391431D01*
Y390921D01*
X261278D01*
Y391670D01*
X261088Y392129D01*
X260629Y392319D01*
X257282D01*
X256823Y392129D01*
X256633Y391670D01*
Y387930D01*
X256823Y387471D01*
X257282Y387280D01*
X260629D01*
X261088Y387471D01*
X261278Y387930D01*
Y388678D01*
X263244D01*
Y388084D01*
X263434Y387625D01*
X263893Y387435D01*
X267633D01*
X268093Y387625D01*
X268283Y388084D01*
Y388636D01*
X272557D01*
X272557Y388636D01*
X272987Y388721D01*
X273351Y388964D01*
X281893Y397507D01*
X281893Y397507D01*
X282136Y397871D01*
X282222Y398300D01*
Y405000D01*
X296700D01*
X296700Y433000D01*
X354400D01*
Y236300D01*
X250860Y236300D01*
X250761Y236800D01*
X250859Y236841D01*
X252459Y238441D01*
X252649Y238900D01*
Y241251D01*
X266000D01*
X266459Y241441D01*
X270359Y245341D01*
X270549Y245800D01*
Y281800D01*
X270359Y282259D01*
X269900Y282449D01*
X266217D01*
X266082Y282394D01*
X265936Y282386D01*
X265519Y282186D01*
X265444Y282102D01*
X265341Y282059D01*
X265285Y281924D01*
X265187Y281816D01*
X265194Y281704D01*
X265151Y281600D01*
Y273000D01*
X265151Y272999D01*
X265151Y272997D01*
X265222Y256620D01*
X264723Y256363D01*
X264439Y256481D01*
X262949D01*
Y258700D01*
X262759Y259159D01*
X262300Y259349D01*
X250049D01*
Y273700D01*
X249859Y274159D01*
X249400Y274349D01*
X236649D01*
Y290800D01*
X236459Y291259D01*
X236449Y291263D01*
Y292251D01*
X323100Y292251D01*
X323559Y292441D01*
X323749Y292900D01*
X323749Y295700D01*
X323749Y295700D01*
Y306633D01*
X324249Y306785D01*
X324545Y306343D01*
X325134Y305949D01*
X325829Y305811D01*
X326524Y305949D01*
X327113Y306343D01*
X327507Y306932D01*
X327645Y307627D01*
Y310973D01*
X327507Y311668D01*
X327185Y312151D01*
X327356Y312651D01*
X328251D01*
Y306554D01*
X328441Y306094D01*
X328794Y305741D01*
X329254Y305551D01*
X329800Y305551D01*
X332146Y305551D01*
X332606Y305741D01*
X332959Y306094D01*
X333149Y306554D01*
X333149Y312931D01*
X333169Y312951D01*
X334683D01*
X334834Y312451D01*
X334545Y312257D01*
X334151Y311668D01*
X334013Y310973D01*
Y307627D01*
X334151Y306932D01*
X334545Y306343D01*
X334708Y306234D01*
Y299020D01*
X334524D01*
X334064Y298829D01*
X333874Y298370D01*
Y294630D01*
X334064Y294171D01*
X334524Y293981D01*
X335292D01*
Y291463D01*
X334740D01*
X334281Y291273D01*
X334091Y290813D01*
Y287073D01*
X334281Y286614D01*
X334740Y286424D01*
X338087D01*
X338546Y286614D01*
X338736Y287073D01*
Y290813D01*
X338546Y291273D01*
X338087Y291463D01*
X337535D01*
Y294005D01*
X337936Y294171D01*
X338126Y294630D01*
Y298370D01*
X337936Y298829D01*
X337476Y299020D01*
X336951D01*
Y306234D01*
X337113Y306343D01*
X337507Y306932D01*
X337645Y307627D01*
Y310973D01*
X337507Y311668D01*
X337113Y312257D01*
X336824Y312451D01*
X336976Y312951D01*
X338451D01*
Y306500D01*
X338641Y306041D01*
X339100Y305851D01*
X339708D01*
Y298965D01*
X339379Y298829D01*
X339189Y298370D01*
Y294630D01*
X339379Y294171D01*
X339839Y293981D01*
X342791D01*
X343251Y294171D01*
X343441Y294630D01*
Y298370D01*
X343251Y298829D01*
X342791Y299020D01*
X341951D01*
Y305851D01*
X342800D01*
X343259Y306041D01*
X343449Y306500D01*
Y316200D01*
X343259Y316659D01*
X342800Y316849D01*
X319000D01*
X318541Y316659D01*
X318351Y316200D01*
Y312400D01*
Y306200D01*
Y298549D01*
X231000Y298549D01*
X229000D01*
X228541Y298359D01*
X228351Y297900D01*
Y290800D01*
Y284249D01*
X198700D01*
X194043Y284249D01*
X194017Y284280D01*
X193793Y284707D01*
X194036Y285071D01*
X194122Y285500D01*
X194122Y285500D01*
Y307134D01*
X194622Y307183D01*
X194664Y306971D01*
X194907Y306607D01*
X197307Y304207D01*
X197307Y304207D01*
X197671Y303964D01*
X198100Y303878D01*
X222000D01*
X222000Y303878D01*
X222429Y303964D01*
X222793Y304207D01*
X230121Y311535D01*
X230748D01*
X230856Y311372D01*
X231445Y310979D01*
X232140Y310841D01*
X236471D01*
X237166Y310979D01*
X237755Y311372D01*
X238149Y311962D01*
X238287Y312657D01*
X238149Y313351D01*
X238063Y313480D01*
X238330Y313980D01*
X240267D01*
Y311584D01*
X240458Y311125D01*
X240917Y310935D01*
X244657D01*
X245116Y311125D01*
X245306Y311584D01*
Y314931D01*
X245116Y315390D01*
X244657Y315580D01*
X242784D01*
X242667Y315729D01*
X242910Y316229D01*
X245517D01*
X245602Y316102D01*
X246198Y315704D01*
X246900Y315565D01*
X247602Y315704D01*
X248198Y316102D01*
X248378Y316373D01*
X248879Y316221D01*
Y305965D01*
X246692Y303778D01*
X237864D01*
X237755Y303941D01*
X237166Y304334D01*
X236471Y304473D01*
X232140D01*
X231445Y304334D01*
X230856Y303941D01*
X230463Y303351D01*
X230324Y302657D01*
X230463Y301962D01*
X230856Y301373D01*
X231445Y300979D01*
X232140Y300841D01*
X236471D01*
X237166Y300979D01*
X237755Y301373D01*
X237864Y301535D01*
X247157D01*
X247157Y301535D01*
X247586Y301620D01*
X247950Y301864D01*
X250793Y304707D01*
X250793Y304707D01*
X251036Y305071D01*
X251121Y305500D01*
Y309033D01*
X251559Y309190D01*
X251622Y309192D01*
X261407Y299407D01*
X261407Y299407D01*
X261771Y299164D01*
X262200Y299078D01*
X306700D01*
X306700Y299078D01*
X307129Y299164D01*
X307493Y299407D01*
X311622Y303536D01*
X311865Y303900D01*
X311951Y304329D01*
X311951Y304329D01*
Y306234D01*
X312113Y306343D01*
X312507Y306932D01*
X312645Y307627D01*
Y310973D01*
X312507Y311668D01*
X312113Y312257D01*
X311524Y312651D01*
X310829Y312789D01*
X310134Y312651D01*
X309545Y312257D01*
X309151Y311668D01*
X309013Y310973D01*
Y307627D01*
X309151Y306932D01*
X309545Y306343D01*
X309708Y306234D01*
Y304794D01*
X306235Y301322D01*
X274299D01*
X274263Y301416D01*
X274216Y301821D01*
X274493Y302007D01*
X275265Y302779D01*
X276074Y302039D01*
X276541Y301869D01*
X278529Y301955D01*
X278979Y302166D01*
X280324Y303633D01*
X280494Y304100D01*
X280407Y306088D01*
X280197Y306538D01*
X278730Y307883D01*
X278262Y308053D01*
X276274Y307966D01*
X275824Y307756D01*
X274480Y306289D01*
X274310Y305821D01*
X274344Y305030D01*
X273235Y303922D01*
X268450D01*
X266008Y306364D01*
Y308970D01*
X265817Y309429D01*
X265358Y309619D01*
X264797D01*
Y312587D01*
X265255Y312789D01*
X266074Y312039D01*
X266541Y311869D01*
X268529Y311955D01*
X268979Y312165D01*
X270324Y313633D01*
X270494Y314100D01*
X270407Y316088D01*
X270197Y316538D01*
X268730Y317883D01*
X268263Y318053D01*
X266274Y317966D01*
X265824Y317756D01*
X265263Y317144D01*
X264797Y317325D01*
Y320379D01*
X265250D01*
X265710Y320569D01*
X265900Y321028D01*
Y324572D01*
X265710Y325031D01*
X265250Y325221D01*
X264695D01*
Y327453D01*
X272522Y335280D01*
X317778D01*
X319465Y333594D01*
X319151Y333125D01*
X319013Y332430D01*
Y329083D01*
X319151Y328388D01*
X319545Y327799D01*
X320134Y327406D01*
X320829Y327267D01*
X321524Y327406D01*
X322113Y327799D01*
X322507Y328388D01*
X322645Y329083D01*
Y332430D01*
X322507Y333125D01*
X322113Y333714D01*
X321798Y333924D01*
X321771Y334061D01*
X321550Y334392D01*
X318921Y337021D01*
X318590Y337242D01*
X318200Y337320D01*
X272100D01*
X271710Y337242D01*
X271379Y337021D01*
X262955Y328597D01*
X262734Y328266D01*
X262656Y327876D01*
Y325221D01*
X262101D01*
X261642Y325031D01*
X261451Y324572D01*
Y321028D01*
X261642Y320569D01*
X262101Y320379D01*
X262554D01*
Y309619D01*
X262012D01*
X261553Y309429D01*
X261362Y308970D01*
Y305230D01*
X261553Y304771D01*
X262012Y304580D01*
X264618D01*
X267192Y302007D01*
X267192Y302007D01*
X267469Y301821D01*
X267422Y301416D01*
X267386Y301322D01*
X262665D01*
X253521Y310465D01*
Y322400D01*
X253522Y322400D01*
X253436Y322829D01*
X253193Y323193D01*
X247293Y329093D01*
X246929Y329336D01*
X246500Y329422D01*
X246500Y329421D01*
X230165D01*
X225211Y334375D01*
Y336653D01*
X225203Y336693D01*
Y337736D01*
X225194Y337781D01*
X225620Y338206D01*
X225664Y338197D01*
X227830D01*
X228256Y338282D01*
X228617Y338523D01*
X228859Y338884D01*
X228943Y339310D01*
X228859Y339737D01*
X228713Y339954D01*
X228652Y340295D01*
X228713Y340635D01*
X228859Y340853D01*
X228943Y341279D01*
X228874Y341626D01*
X228998Y341889D01*
X229179Y342126D01*
X232288D01*
X234017Y340397D01*
X234381Y340154D01*
X234810Y340069D01*
X234810Y340069D01*
X238410D01*
Y339517D01*
X238600Y339058D01*
X239059Y338867D01*
X242799D01*
X243259Y339058D01*
X243449Y339517D01*
Y342863D01*
X243259Y343323D01*
X242799Y343513D01*
X239059D01*
X238600Y343323D01*
X238410Y342863D01*
Y342312D01*
X235274D01*
X233839Y343747D01*
X233926Y344367D01*
X234009Y344423D01*
X238165Y348579D01*
X251430D01*
X251600Y348108D01*
X251410Y347648D01*
Y345441D01*
X250948Y345250D01*
X249574Y346624D01*
X249276Y346823D01*
X248925Y346893D01*
X248735D01*
X248727Y346934D01*
X248483Y347298D01*
X248120Y347541D01*
X247690Y347627D01*
X240929D01*
X240500Y347541D01*
X240136Y347298D01*
X239893Y346934D01*
X239808Y346505D01*
X239893Y346076D01*
X240136Y345712D01*
X240500Y345469D01*
X240929Y345384D01*
X247533D01*
X247571Y345326D01*
X247869Y345127D01*
X248220Y345058D01*
X248545D01*
X249370Y344232D01*
X249179Y343770D01*
X246350D01*
X245891Y343580D01*
X245701Y343121D01*
Y339774D01*
X245891Y339315D01*
X246350Y339125D01*
X250091D01*
X250550Y339315D01*
X250740Y339774D01*
Y342209D01*
X251202Y342400D01*
X252803Y340799D01*
X253101Y340600D01*
X253268Y340567D01*
X253500Y340411D01*
X253929Y340326D01*
X260307D01*
X260636Y339997D01*
X261000Y339754D01*
X261429Y339669D01*
X261858Y339754D01*
X262222Y339997D01*
X262465Y340361D01*
X262551Y340790D01*
X262465Y341219D01*
X262222Y341583D01*
X261565Y342241D01*
X261201Y342484D01*
X260772Y342569D01*
X260772Y342569D01*
X253929D01*
X253678Y342519D01*
X253007Y343191D01*
X253199Y343653D01*
X255799D01*
X256259Y343843D01*
X256449Y344302D01*
Y347648D01*
X256259Y348108D01*
X256429Y348579D01*
X257135D01*
X258910Y346804D01*
Y344432D01*
X259100Y343973D01*
X259559Y343782D01*
X263299D01*
X263758Y343973D01*
X263949Y344432D01*
Y347778D01*
X263758Y348238D01*
X263299Y348428D01*
X260458D01*
X258393Y350493D01*
X258029Y350736D01*
X257600Y350822D01*
X257600Y350821D01*
X237700D01*
X237700Y350822D01*
X237644Y350811D01*
X237285Y351249D01*
X237365Y351443D01*
Y355183D01*
X237175Y355643D01*
X236716Y355833D01*
X236427D01*
Y356696D01*
X236696Y357098D01*
X236835Y357800D01*
X236696Y358502D01*
X236298Y359098D01*
X235702Y359496D01*
X235000Y359635D01*
X234298Y359496D01*
X233702Y359098D01*
X233304Y358502D01*
X233165Y357800D01*
X233304Y357098D01*
X233573Y356696D01*
Y355905D01*
X233377Y355833D01*
X233369D01*
X233301Y355804D01*
X233113Y355735D01*
X232622Y356007D01*
Y360393D01*
X234609Y362380D01*
X237019D01*
X237478Y362571D01*
X237668Y363030D01*
Y366770D01*
X237478Y367229D01*
X237019Y367419D01*
X234066D01*
X233607Y367229D01*
X233417Y366770D01*
Y364360D01*
X230707Y361650D01*
X230464Y361286D01*
X230378Y360857D01*
X230379Y360857D01*
Y354465D01*
X229379Y353465D01*
X229174Y353485D01*
X228804Y353597D01*
X228617Y353877D01*
X228256Y354119D01*
X227830Y354203D01*
X225664D01*
X225620Y354194D01*
X225194Y354620D01*
X225203Y354665D01*
Y356830D01*
X225119Y357256D01*
X224877Y357617D01*
X224516Y357859D01*
X224090Y357944D01*
X223664Y357859D01*
X223641Y357844D01*
X223141Y358111D01*
Y368799D01*
X242822Y388480D01*
X244332D01*
Y388106D01*
X244522Y387647D01*
X244982Y387457D01*
X248682D01*
X249142Y387647D01*
X249332Y388106D01*
Y388780D01*
X251318D01*
Y387930D01*
X251508Y387471D01*
X251967Y387280D01*
X255313D01*
X255773Y387471D01*
X255963Y387930D01*
Y391670D01*
X255773Y392129D01*
X255313Y392319D01*
X251967D01*
X251508Y392129D01*
X251318Y391670D01*
Y390820D01*
X249332D01*
Y391413D01*
X249142Y391873D01*
X248682Y392063D01*
X244982D01*
X244522Y391873D01*
X244332Y391413D01*
Y390520D01*
X242400D01*
X242010Y390442D01*
X241679Y390221D01*
X221400Y369942D01*
X221252Y369720D01*
X220752Y369831D01*
Y370430D01*
X220562Y370889D01*
X220103Y371079D01*
X216362D01*
X215949Y370908D01*
X215449Y371089D01*
Y371800D01*
X215259Y372259D01*
X215045Y372348D01*
X215144Y372848D01*
X218232D01*
X218701Y372941D01*
X219098Y373206D01*
X219363Y373603D01*
X219456Y374072D01*
X219363Y374540D01*
X219098Y374937D01*
X218701Y375202D01*
X218232Y375295D01*
X211608D01*
X211597Y375302D01*
X211129Y375395D01*
X210661Y375302D01*
X210264Y375037D01*
X209999Y374640D01*
X209906Y374172D01*
X209999Y373703D01*
X210264Y373306D01*
X210364Y373206D01*
X210761Y372941D01*
X210670Y372449D01*
X166949D01*
Y400400D01*
Y413251D01*
X196851D01*
Y409481D01*
X196351Y409381D01*
X196307Y409486D01*
X195848Y409676D01*
X192895D01*
X192436Y409486D01*
X192246Y409027D01*
Y408278D01*
X188749D01*
Y408731D01*
X188559Y409191D01*
X188100Y409381D01*
X184950D01*
X184491Y409191D01*
X184301Y408731D01*
Y405582D01*
X184491Y405123D01*
X184950Y404932D01*
X188100D01*
X188559Y405123D01*
X188749Y405582D01*
Y406035D01*
X192246D01*
Y405287D01*
X192436Y404827D01*
X192895Y404637D01*
X195848D01*
X196307Y404827D01*
X196351Y404932D01*
X196851Y404833D01*
X196851Y400938D01*
X196351Y400610D01*
X196191Y400676D01*
X193238D01*
X192779Y400486D01*
X192588Y400027D01*
Y399278D01*
X188749D01*
Y399731D01*
X188559Y400191D01*
X188100Y400381D01*
X184950D01*
X184491Y400191D01*
X184301Y399731D01*
Y396582D01*
X184491Y396123D01*
X184950Y395932D01*
X188100D01*
X188559Y396123D01*
X188749Y396582D01*
Y397035D01*
X192588D01*
Y396287D01*
X192779Y395827D01*
X193238Y395637D01*
X196191D01*
X196351Y395703D01*
X196851Y395375D01*
Y394900D01*
X197041Y394441D01*
X197500Y394251D01*
X203000D01*
X203459Y394441D01*
X203649Y394900D01*
X203649Y419100D01*
X203459Y419559D01*
X203000Y419749D01*
X159500D01*
X159041Y419559D01*
X158851Y419100D01*
Y400142D01*
Y238900D01*
X159041Y238441D01*
X159500Y238251D01*
X198500Y238251D01*
X198959Y238441D01*
X199959Y239441D01*
X200149Y239900D01*
X200149Y276051D01*
X228351Y276051D01*
Y267700D01*
X228541Y267241D01*
X229000Y267051D01*
X242908D01*
X243626Y251136D01*
X243677Y251025D01*
X243680Y250903D01*
X243779Y250809D01*
X243836Y250686D01*
X243951Y250644D01*
X244040Y250560D01*
X244465Y250395D01*
X244587Y250397D01*
X244700Y250351D01*
X262147D01*
X262266Y250400D01*
X262395D01*
X262487Y250491D01*
X262606Y250541D01*
X262655Y250660D01*
X262747Y250751D01*
X262938Y251213D01*
Y251343D01*
X262987Y251462D01*
X262949Y251554D01*
Y252032D01*
X264439D01*
X264742Y252157D01*
X265243Y251913D01*
X265249Y250368D01*
X263731Y248849D01*
X252241D01*
X252000Y248949D01*
X244853D01*
X244734Y248900D01*
X244605D01*
X244554Y248849D01*
X243700D01*
X243241Y248659D01*
X243051Y248200D01*
Y242449D01*
X225349D01*
Y267800D01*
X225159Y268259D01*
X224700Y268449D01*
X218017Y268449D01*
X217988Y268438D01*
X217959Y268447D01*
X217763Y268344D01*
X217558Y268259D01*
X217546Y268231D01*
X217518Y268216D01*
X217101Y267716D01*
X217035Y267505D01*
X216951Y267300D01*
Y237600D01*
X217141Y237141D01*
X217600Y236951D01*
X249584D01*
X249721Y236800D01*
X249500Y236300D01*
X156834Y236300D01*
X156482Y236654D01*
X157480Y433000D01*
X226100D01*
X226271Y433171D01*
X226700Y432893D01*
D02*
G37*
G36*
X203000Y394900D02*
X197500D01*
X197500Y413900D01*
X166300D01*
Y413600D01*
Y400400D01*
Y371800D01*
X214800D01*
Y369932D01*
X211680D01*
X211597Y369987D01*
X211129Y370080D01*
X210661Y369987D01*
X210264Y369722D01*
X209999Y369325D01*
X209906Y368857D01*
X209999Y368388D01*
X210264Y367991D01*
X210412Y367843D01*
X210809Y367578D01*
X211277Y367485D01*
X214214D01*
X214445Y367075D01*
X214341Y366900D01*
X206600D01*
X175200Y366973D01*
Y357700D01*
X175000Y357500D01*
X166300D01*
X166300Y269900D01*
X179550D01*
Y265900D01*
X166300D01*
Y251800D01*
X176100D01*
Y250662D01*
X173038D01*
X172647Y250585D01*
X172317Y250363D01*
X172096Y250033D01*
X172018Y249642D01*
X172096Y249252D01*
X172317Y248921D01*
X172647Y248700D01*
X173038Y248623D01*
X176100D01*
Y245500D01*
X194000D01*
X194000Y283600D01*
X198700Y283600D01*
X229000D01*
Y290800D01*
Y296900D01*
Y297900D01*
X231000D01*
X319000Y297900D01*
Y306200D01*
Y312400D01*
Y315500D01*
Y316200D01*
X342800D01*
Y306500D01*
X341951D01*
Y309300D01*
X341865Y309729D01*
X341622Y310093D01*
X341258Y310336D01*
X340829Y310421D01*
X340400Y310336D01*
X340036Y310093D01*
X339793Y309729D01*
X339708Y309300D01*
Y306500D01*
X339100D01*
Y313600D01*
X333100D01*
X333000Y313700D01*
X332500Y313200D01*
X332500Y306554D01*
X332146Y306200D01*
X329800Y306200D01*
X329254Y306200D01*
X328900Y306554D01*
Y313300D01*
X323500D01*
X323100Y313700D01*
Y307900D01*
Y306200D01*
Y295700D01*
X323100Y295700D01*
X323100Y292900D01*
X235800Y292900D01*
Y290800D01*
X236000D01*
Y273700D01*
X249400D01*
Y258700D01*
X262300D01*
Y251500D01*
X262338Y251462D01*
X262147Y251000D01*
X244700D01*
X244274Y251165D01*
X243529Y267700D01*
X229000D01*
Y276700D01*
X199500Y276700D01*
X199500Y239900D01*
X198500Y238900D01*
X159500Y238900D01*
Y400142D01*
D01*
Y419100D01*
X203000D01*
X203000Y394900D01*
D02*
G37*
G36*
X215691Y367093D02*
X215728Y367046D01*
X215903Y366624D01*
X216362Y366434D01*
X217063D01*
Y360600D01*
X217063Y360600D01*
X217063Y360600D01*
Y358179D01*
X216826Y357999D01*
X216563Y357875D01*
X216216Y357944D01*
X215790Y357859D01*
X215767Y357844D01*
X215267Y358111D01*
Y359953D01*
X215189Y360343D01*
X214968Y360674D01*
X212921Y362721D01*
X212590Y362942D01*
X212200Y363020D01*
X192394D01*
X192004Y362942D01*
X191673Y362721D01*
X182802Y353850D01*
X182030Y354170D01*
X181102Y354292D01*
X180175Y354170D01*
X179311Y353812D01*
X178569Y353242D01*
X177999Y352500D01*
X177641Y351636D01*
X177519Y350709D01*
X177641Y349781D01*
X177999Y348917D01*
X178569Y348175D01*
X179162Y347720D01*
X178992Y347220D01*
X177000D01*
X176610Y347142D01*
X176279Y346921D01*
X173050Y343692D01*
X172894Y343812D01*
X172030Y344170D01*
X171102Y344292D01*
X170175Y344170D01*
X169311Y343812D01*
X168569Y343243D01*
X167999Y342500D01*
X167641Y341636D01*
X167519Y340709D01*
X167641Y339781D01*
X167999Y338917D01*
X168569Y338175D01*
X169311Y337605D01*
X170175Y337247D01*
X171102Y337125D01*
X172030Y337247D01*
X172894Y337605D01*
X173636Y338175D01*
X174206Y338917D01*
X174564Y339781D01*
X174686Y340709D01*
X174564Y341636D01*
X174363Y342121D01*
X177422Y345180D01*
X183700D01*
X184090Y345258D01*
X184421Y345479D01*
X193670Y354728D01*
X208607D01*
X208617Y354703D01*
X208283Y354203D01*
X207693D01*
X207653Y354211D01*
X195590D01*
X195590Y354211D01*
X195161Y354126D01*
X194797Y353883D01*
X194797Y353883D01*
X186207Y345293D01*
X185964Y344929D01*
X185878Y344500D01*
X185878Y344500D01*
Y337965D01*
X184035Y336122D01*
X175394D01*
X175394Y336122D01*
X174965Y336036D01*
X174601Y335793D01*
X174601Y335793D01*
X172700Y333892D01*
X172030Y334170D01*
X171102Y334292D01*
X170175Y334170D01*
X169311Y333812D01*
X168569Y333243D01*
X167999Y332500D01*
X167641Y331636D01*
X167519Y330709D01*
X167641Y329781D01*
X167999Y328917D01*
X168569Y328175D01*
X169311Y327605D01*
X170175Y327247D01*
X171102Y327125D01*
X172030Y327247D01*
X172894Y327605D01*
X173636Y328175D01*
X174206Y328917D01*
X174564Y329781D01*
X174686Y330709D01*
X174564Y331636D01*
X174286Y332306D01*
X175858Y333878D01*
X178576D01*
X178746Y333379D01*
X178569Y333243D01*
X177999Y332500D01*
X177641Y331636D01*
X177519Y330709D01*
X177641Y329781D01*
X177999Y328917D01*
X178569Y328175D01*
X179311Y327605D01*
X180175Y327247D01*
X181102Y327125D01*
X182030Y327247D01*
X182894Y327605D01*
X183636Y328175D01*
X184206Y328917D01*
X184483Y329587D01*
X186208D01*
X186209Y329587D01*
X186638Y329672D01*
X187002Y329915D01*
X190093Y333007D01*
X190336Y333371D01*
X190422Y333800D01*
X190422Y333800D01*
Y343335D01*
X194110Y347024D01*
X194652Y346859D01*
X194704Y346598D01*
X195102Y346002D01*
X195698Y345604D01*
X196209Y345503D01*
X196409Y344996D01*
X191607Y340193D01*
X191364Y339829D01*
X191278Y339400D01*
X191278Y339400D01*
Y329865D01*
X187535Y326121D01*
X175394D01*
X175394Y326122D01*
X174965Y326036D01*
X174601Y325793D01*
X174601Y325793D01*
X172700Y323892D01*
X172030Y324170D01*
X171102Y324292D01*
X170175Y324170D01*
X169311Y323812D01*
X168569Y323242D01*
X167999Y322500D01*
X167641Y321636D01*
X167519Y320709D01*
X167641Y319781D01*
X167999Y318917D01*
X168569Y318175D01*
X169311Y317605D01*
X170175Y317247D01*
X171102Y317125D01*
X172030Y317247D01*
X172894Y317605D01*
X173636Y318175D01*
X174206Y318917D01*
X174564Y319781D01*
X174686Y320709D01*
X174564Y321636D01*
X174286Y322306D01*
X175858Y323879D01*
X178576D01*
X178746Y323378D01*
X178569Y323242D01*
X177999Y322500D01*
X177641Y321636D01*
X177519Y320709D01*
X177641Y319781D01*
X177999Y318917D01*
X178569Y318175D01*
X179311Y317605D01*
X180175Y317247D01*
X181102Y317125D01*
X182030Y317247D01*
X182894Y317605D01*
X183636Y318175D01*
X184206Y318917D01*
X184483Y319587D01*
X186294D01*
X186501Y319087D01*
X183535Y316122D01*
X175394D01*
X175394Y316122D01*
X174965Y316036D01*
X174601Y315793D01*
X174601Y315793D01*
X172700Y313892D01*
X172030Y314170D01*
X171102Y314292D01*
X170175Y314170D01*
X169311Y313812D01*
X168569Y313243D01*
X167999Y312500D01*
X167641Y311636D01*
X167519Y310709D01*
X167641Y309781D01*
X167999Y308917D01*
X168569Y308175D01*
X169311Y307605D01*
X170175Y307247D01*
X171102Y307125D01*
X172030Y307247D01*
X172894Y307605D01*
X173636Y308175D01*
X174206Y308917D01*
X174564Y309781D01*
X174686Y310709D01*
X174564Y311636D01*
X174286Y312306D01*
X175858Y313878D01*
X178576D01*
X178746Y313379D01*
X178569Y313243D01*
X177999Y312500D01*
X177641Y311636D01*
X177519Y310709D01*
X177641Y309781D01*
X177999Y308917D01*
X178569Y308175D01*
X179311Y307605D01*
X180175Y307247D01*
X181102Y307125D01*
X182030Y307247D01*
X182894Y307605D01*
X183636Y308175D01*
X184206Y308917D01*
X184564Y309781D01*
X184686Y310709D01*
X184564Y311636D01*
X184206Y312500D01*
X183636Y313243D01*
X183459Y313379D01*
X183629Y313878D01*
X184000D01*
X184000Y313878D01*
X184429Y313964D01*
X184793Y314207D01*
X189082Y318496D01*
X189582Y318289D01*
Y286880D01*
X182851Y280149D01*
X182652Y279851D01*
X182582Y279500D01*
Y277476D01*
X182448Y277386D01*
X179495D01*
X179036Y277196D01*
X178846Y276737D01*
Y272997D01*
X179036Y272537D01*
X179495Y272347D01*
X179550D01*
Y270549D01*
X166949D01*
X166949Y356851D01*
X175000D01*
X175459Y357041D01*
X175659Y357241D01*
X175849Y357700D01*
Y365968D01*
X176203Y366321D01*
X206598Y366251D01*
X206599Y366251D01*
X206600Y366251D01*
X214341D01*
X214418Y366283D01*
X214500Y366270D01*
X214640Y366374D01*
X214800Y366441D01*
X214832Y366518D01*
X214899Y366568D01*
X215003Y366743D01*
X215016Y366831D01*
X215071Y366901D01*
X215233Y367020D01*
X215659Y367109D01*
X215691Y367093D01*
D02*
G37*
G36*
X210190Y360480D02*
X210004Y360202D01*
X209865Y359500D01*
X210004Y358798D01*
X210253Y358426D01*
X210039Y357890D01*
X209884Y357859D01*
X209523Y357617D01*
X209281Y357256D01*
X209197Y356830D01*
Y356767D01*
X193247D01*
X192857Y356689D01*
X192526Y356468D01*
X184378Y348319D01*
X184001Y348650D01*
X184206Y348917D01*
X184564Y349781D01*
X184686Y350709D01*
X184564Y351636D01*
X184244Y352408D01*
X192816Y360980D01*
X209923D01*
X210190Y360480D01*
D02*
G37*
G36*
X209206Y337781D02*
X209197Y337736D01*
Y337146D01*
X209180Y337121D01*
X209087Y336653D01*
Y333506D01*
X209000Y333435D01*
X208298Y333296D01*
X207702Y332898D01*
X207304Y332302D01*
X207165Y331600D01*
X207304Y330898D01*
X207702Y330302D01*
X208298Y329904D01*
X209000Y329765D01*
X209702Y329904D01*
X210298Y330302D01*
X210391Y330441D01*
X211060Y330543D01*
X211157Y330465D01*
Y324243D01*
X211035Y324121D01*
X201500D01*
X201500Y324122D01*
X201394Y324100D01*
X201147Y324561D01*
X201793Y325207D01*
X201793Y325207D01*
X202036Y325571D01*
X202122Y326000D01*
X202122Y326000D01*
Y335035D01*
X205275Y338189D01*
X207653D01*
X207693Y338197D01*
X208735D01*
X208780Y338206D01*
X209206Y337781D01*
D02*
G37*
G36*
X228207Y325207D02*
X228207Y325207D01*
X228571Y324964D01*
X229000Y324879D01*
X245035D01*
X248879Y321035D01*
Y318579D01*
X248378Y318427D01*
X248198Y318698D01*
X247602Y319096D01*
X246900Y319235D01*
X246198Y319096D01*
X246180Y319084D01*
X237541D01*
X237166Y319334D01*
X236471Y319473D01*
X232140D01*
X231445Y319334D01*
X230856Y318941D01*
X230463Y318352D01*
X230324Y317657D01*
X230463Y316962D01*
X230758Y316520D01*
X230553Y316020D01*
X228954D01*
X228929Y316036D01*
X228500Y316122D01*
X228071Y316036D01*
X227707Y315793D01*
X223035Y311122D01*
X216141D01*
X216086Y311620D01*
X216450Y311863D01*
X220946Y316359D01*
X220946Y316359D01*
X221189Y316723D01*
X221274Y317153D01*
Y331433D01*
X221774Y331640D01*
X228207Y325207D01*
D02*
G37*
G36*
X269758Y316059D02*
X269845Y314071D01*
X268500Y312604D01*
X266512Y312517D01*
X265045Y313862D01*
X264958Y315850D01*
X266303Y317317D01*
X268291Y317404D01*
X269758Y316059D01*
D02*
G37*
G36*
X223853Y308439D02*
X221535Y306121D01*
X210236D01*
X209969Y306622D01*
X210196Y306962D01*
X210334Y307657D01*
X210196Y308351D01*
X210139Y308437D01*
X210374Y308878D01*
X223500D01*
X223500Y308878D01*
X223606Y308900D01*
X223853Y308439D01*
D02*
G37*
G36*
X279758Y306059D02*
X279845Y304071D01*
X278500Y302604D01*
X276512Y302517D01*
X275045Y303862D01*
X274958Y305850D01*
X276303Y307317D01*
X278291Y307404D01*
X279758Y306059D01*
D02*
G37*
G36*
X193238Y283652D02*
X193351Y283557D01*
X193351Y246149D01*
X176749D01*
Y248623D01*
X177917D01*
Y248554D01*
X178107Y248095D01*
X178566Y247905D01*
X180338D01*
X180797Y248095D01*
X180987Y248554D01*
Y250483D01*
X180865Y250778D01*
X181114Y251278D01*
X182908D01*
X183157Y250778D01*
X183035Y250483D01*
Y248554D01*
X183225Y248095D01*
X183684Y247905D01*
X185456D01*
X185915Y248095D01*
X186106Y248554D01*
Y250483D01*
X185915Y250943D01*
X185692Y251035D01*
Y251830D01*
X185671Y251934D01*
X185868Y252201D01*
X186082Y252379D01*
X188000D01*
X188000Y252378D01*
X188429Y252464D01*
X188793Y252707D01*
X190793Y254707D01*
X190793Y254707D01*
X191036Y255071D01*
X191122Y255500D01*
X191122Y255500D01*
Y274000D01*
X191122Y274000D01*
X191036Y274429D01*
X190793Y274793D01*
X189926Y275660D01*
X189562Y275903D01*
X189133Y275988D01*
X189133Y275988D01*
X188412D01*
Y276737D01*
X188222Y277196D01*
X187763Y277386D01*
X187408D01*
Y278322D01*
X192896Y283810D01*
X193238Y283652D01*
D02*
G37*
G36*
X179195Y265237D02*
X179550D01*
Y264329D01*
X179550Y264328D01*
X179635Y263899D01*
X179878Y263535D01*
X180889Y262524D01*
Y258673D01*
X180666Y258580D01*
X180476Y258121D01*
Y256192D01*
X180666Y255733D01*
X181125Y255543D01*
X182897D01*
X182949Y255564D01*
X183449Y255230D01*
Y254930D01*
X183449Y254930D01*
X183534Y254501D01*
X183777Y254137D01*
X183892Y254022D01*
X183685Y253521D01*
X180200D01*
X179771Y253436D01*
X179407Y253193D01*
X179407Y253193D01*
X178659Y252445D01*
X178416Y252081D01*
X178330Y251652D01*
X178330Y251652D01*
Y251035D01*
X178107Y250943D01*
X177991Y250662D01*
X176749D01*
Y251800D01*
X176559Y252259D01*
X176100Y252449D01*
X166949D01*
Y265251D01*
X179163D01*
X179195Y265237D01*
D02*
G37*
G36*
X269900Y245800D02*
X266000Y241900D01*
X252000D01*
Y238900D01*
X250400Y237300D01*
X250100Y237600D01*
X217600D01*
Y267300D01*
X218017Y267800D01*
X224700Y267800D01*
Y241800D01*
X244800D01*
Y241900D01*
X243800D01*
X243700Y242000D01*
Y248200D01*
X244812D01*
X244853Y248300D01*
X252000D01*
Y248200D01*
X264000D01*
X265900Y250100D01*
X265800Y273000D01*
Y281600D01*
X266217Y281800D01*
X269900D01*
Y245800D01*
D02*
G37*
%LPC*%
G36*
X181604Y409381D02*
X178454D01*
X177995Y409191D01*
X177805Y408731D01*
Y405582D01*
X177995Y405123D01*
X178454Y404932D01*
X178908D01*
Y404435D01*
X178402Y404098D01*
X178004Y403502D01*
X177865Y402800D01*
X178004Y402098D01*
X178402Y401502D01*
X178998Y401104D01*
X179700Y400965D01*
X180402Y401104D01*
X180998Y401502D01*
X181396Y402098D01*
X181535Y402800D01*
X181396Y403502D01*
X181151Y403869D01*
Y404932D01*
X181604D01*
X182063Y405123D01*
X182253Y405582D01*
Y408731D01*
X182063Y409191D01*
X181604Y409381D01*
D02*
G37*
G36*
X196319Y390920D02*
X193366D01*
X192907Y390729D01*
X192717Y390270D01*
Y389522D01*
X189253D01*
Y389731D01*
X189063Y390191D01*
X188604Y390381D01*
X185454D01*
X184995Y390191D01*
X184805Y389731D01*
Y386582D01*
X184995Y386123D01*
X185454Y385932D01*
X188604D01*
X189063Y386123D01*
X189253Y386582D01*
Y387279D01*
X192717D01*
Y386530D01*
X192907Y386071D01*
X193366Y385881D01*
X196319D01*
X196778Y386071D01*
X196968Y386530D01*
Y390270D01*
X196778Y390729D01*
X196319Y390920D01*
D02*
G37*
G36*
X180029Y389782D02*
X179600Y389697D01*
X179236Y389454D01*
X178993Y389090D01*
X178908Y388660D01*
X178993Y388231D01*
X179236Y387867D01*
X179740Y387364D01*
X180104Y387120D01*
X180533Y387035D01*
X180962Y387120D01*
X181326Y387364D01*
X181569Y387727D01*
X181655Y388157D01*
X181569Y388586D01*
X181326Y388950D01*
X180822Y389454D01*
X180458Y389697D01*
X180029Y389782D01*
D02*
G37*
G36*
X201634Y390920D02*
X198681D01*
X198222Y390729D01*
X198032Y390270D01*
Y386530D01*
X198222Y386071D01*
X198681Y385881D01*
X201634D01*
X202093Y386071D01*
X202283Y386530D01*
Y390270D01*
X202093Y390729D01*
X201634Y390920D01*
D02*
G37*
G36*
X342800Y374522D02*
X342800Y374521D01*
X308600D01*
X308600Y374522D01*
X308171Y374436D01*
X307807Y374193D01*
X307807Y374193D01*
X305107Y371493D01*
X304864Y371129D01*
X304778Y370700D01*
X304779Y370700D01*
Y363665D01*
X298236Y357122D01*
X294311D01*
Y359150D01*
X294121Y359609D01*
X293661Y359799D01*
X287756D01*
X287297Y359609D01*
X287106Y359150D01*
Y352851D01*
X286953Y352622D01*
X280925D01*
Y354425D01*
X280735Y354884D01*
X280276Y355075D01*
X275551D01*
X275092Y354884D01*
X274902Y354425D01*
Y349701D01*
X275092Y349241D01*
X275551Y349051D01*
X280276D01*
X280735Y349241D01*
X280925Y349701D01*
Y350378D01*
X301300D01*
X301300Y350378D01*
X301729Y350464D01*
X302093Y350707D01*
X309793Y358407D01*
X309793Y358407D01*
X310036Y358771D01*
X310121Y359200D01*
Y368835D01*
X310765Y369479D01*
X320741D01*
X320840Y368979D01*
X320720Y368929D01*
X320529Y368469D01*
Y367937D01*
X316020D01*
Y368134D01*
X315829Y368593D01*
X315370Y368783D01*
X311630D01*
X311171Y368593D01*
X310981Y368134D01*
Y365181D01*
X311171Y364722D01*
X311630Y364532D01*
X315370D01*
X315829Y364722D01*
X316020Y365181D01*
Y365694D01*
X320529D01*
Y365162D01*
X320720Y364703D01*
X320764Y364685D01*
Y364144D01*
X320720Y364125D01*
X320529Y363666D01*
Y360359D01*
X320720Y359900D01*
X321179Y359710D01*
X321908D01*
Y354176D01*
X321298D01*
X320839Y353986D01*
X320649Y353527D01*
Y349786D01*
X320839Y349327D01*
X321298Y349137D01*
X321783D01*
Y344378D01*
X321330D01*
X320871Y344187D01*
X320681Y343728D01*
Y340185D01*
X320871Y339726D01*
X321330Y339535D01*
X321783D01*
Y338595D01*
X321783Y338595D01*
X321869Y338166D01*
X322112Y337802D01*
X324708Y335206D01*
Y333822D01*
X324545Y333714D01*
X324151Y333125D01*
X324013Y332430D01*
Y329083D01*
X324151Y328388D01*
X324545Y327799D01*
X325134Y327406D01*
X325829Y327267D01*
X326524Y327406D01*
X327113Y327799D01*
X327507Y328388D01*
X327645Y329083D01*
Y332430D01*
X327507Y333125D01*
X327113Y333714D01*
X326951Y333822D01*
Y335671D01*
X326951Y335671D01*
X326930Y335777D01*
X327390Y336023D01*
X329559Y333855D01*
X329545Y333714D01*
X329151Y333125D01*
X329013Y332430D01*
Y329083D01*
X329151Y328388D01*
X329545Y327799D01*
X329708Y327691D01*
Y324871D01*
X329708Y324871D01*
X329793Y324442D01*
X330036Y324078D01*
X330407Y323707D01*
X330771Y323464D01*
X331200Y323378D01*
X331200Y323378D01*
X341900D01*
X341900Y323378D01*
X342329Y323464D01*
X342693Y323707D01*
X347093Y328107D01*
X347336Y328471D01*
X347422Y328900D01*
X347422Y328900D01*
Y369900D01*
X347422Y369900D01*
X347336Y370329D01*
X347093Y370693D01*
X347093Y370693D01*
X343593Y374193D01*
X343229Y374436D01*
X342800Y374522D01*
D02*
G37*
G36*
X246044Y362878D02*
X245615Y362793D01*
X245251Y362550D01*
X245008Y362186D01*
X244923Y361757D01*
X245008Y361327D01*
X245251Y360964D01*
X245351Y360863D01*
X245715Y360620D01*
X246144Y360535D01*
X246573Y360620D01*
X246937Y360863D01*
X247180Y361227D01*
X247266Y361657D01*
X247180Y362086D01*
X246937Y362450D01*
X246837Y362550D01*
X246473Y362793D01*
X246044Y362878D01*
D02*
G37*
G36*
X279519Y373019D02*
X276566D01*
X276107Y372829D01*
X275917Y372370D01*
Y368630D01*
X276107Y368171D01*
X276566Y367980D01*
X276792D01*
Y362949D01*
X275551D01*
X275092Y362758D01*
X274902Y362299D01*
Y357575D01*
X275092Y357116D01*
X275551Y356926D01*
X280276D01*
X280735Y357116D01*
X280925Y357575D01*
Y362299D01*
X280735Y362758D01*
X280276Y362949D01*
X279035D01*
Y367980D01*
X279519D01*
X279978Y368171D01*
X280168Y368630D01*
Y372370D01*
X279978Y372829D01*
X279519Y373019D01*
D02*
G37*
G36*
X315829Y334246D02*
X315134Y334108D01*
X314545Y333714D01*
X314151Y333125D01*
X314013Y332430D01*
Y329083D01*
X314151Y328388D01*
X314545Y327799D01*
X314810Y327623D01*
Y323652D01*
X307138Y315980D01*
X290411D01*
X290407Y316088D01*
X290197Y316538D01*
X288730Y317883D01*
X288263Y318053D01*
X286274Y317966D01*
X286075Y317873D01*
X285341Y318607D01*
X284977Y318850D01*
X284548Y318936D01*
X284548Y318936D01*
X282449D01*
Y319487D01*
X282259Y319947D01*
X281799Y320137D01*
X278059D01*
X277600Y319947D01*
X277410Y319487D01*
Y316141D01*
X277600Y315682D01*
X278059Y315492D01*
X281799D01*
X282259Y315682D01*
X282449Y316141D01*
Y316693D01*
X284083D01*
X284483Y316293D01*
X284480Y316289D01*
X284310Y315822D01*
X284396Y313833D01*
X284606Y313383D01*
X286074Y312039D01*
X286541Y311869D01*
X288529Y311955D01*
X288979Y312165D01*
X290324Y313633D01*
X290436Y313941D01*
X307561D01*
X307951Y314019D01*
X308282Y314240D01*
X316550Y322508D01*
X316771Y322839D01*
X316849Y323229D01*
Y327623D01*
X317113Y327799D01*
X317507Y328388D01*
X317645Y329083D01*
Y332430D01*
X317507Y333125D01*
X317113Y333714D01*
X316524Y334108D01*
X315829Y334246D01*
D02*
G37*
G36*
X244657Y310265D02*
X240917D01*
X240458Y310075D01*
X240267Y309616D01*
Y308676D01*
X237932D01*
X237755Y308941D01*
X237166Y309334D01*
X236471Y309473D01*
X232140D01*
X231445Y309334D01*
X230856Y308941D01*
X230463Y308351D01*
X230324Y307657D01*
X230463Y306962D01*
X230856Y306372D01*
X231445Y305979D01*
X232140Y305841D01*
X236471D01*
X237166Y305979D01*
X237755Y306372D01*
X237932Y306637D01*
X240267D01*
Y306269D01*
X240458Y305810D01*
X240917Y305620D01*
X244657D01*
X245116Y305810D01*
X245306Y306269D01*
Y309616D01*
X245116Y310075D01*
X244657Y310265D01*
D02*
G37*
G36*
X315829Y312789D02*
X315134Y312651D01*
X314545Y312257D01*
X314151Y311668D01*
X314013Y310973D01*
Y307627D01*
X314151Y306932D01*
X314545Y306343D01*
X314708Y306234D01*
Y304202D01*
X314402Y303998D01*
X314004Y303402D01*
X313865Y302700D01*
X314004Y301998D01*
X314402Y301402D01*
X314998Y301004D01*
X315700Y300865D01*
X316402Y301004D01*
X316998Y301402D01*
X317396Y301998D01*
X317535Y302700D01*
X317396Y303402D01*
X316998Y303998D01*
X316951Y304029D01*
Y306234D01*
X317113Y306343D01*
X317507Y306932D01*
X317645Y307627D01*
Y310973D01*
X317507Y311668D01*
X317113Y312257D01*
X316524Y312651D01*
X315829Y312789D01*
D02*
G37*
G36*
X261107Y291262D02*
X258745D01*
X258286Y291072D01*
X258096Y290613D01*
Y290061D01*
X250229D01*
X250228Y290061D01*
X249799Y289976D01*
X249435Y289733D01*
X249435Y289732D01*
X248206Y288503D01*
X245796D01*
X245337Y288313D01*
X245147Y287854D01*
Y284901D01*
X245337Y284442D01*
X245796Y284251D01*
X249536D01*
X249995Y284442D01*
X250186Y284901D01*
Y287311D01*
X250693Y287818D01*
X258096D01*
Y287266D01*
X258286Y286807D01*
X258745Y286617D01*
X261107D01*
X261566Y286807D01*
X261756Y287266D01*
Y290613D01*
X261566Y291072D01*
X261107Y291262D01*
D02*
G37*
G36*
Y281223D02*
X258745D01*
X258286Y281032D01*
X258096Y280573D01*
Y277227D01*
X258286Y276767D01*
X258745Y276577D01*
X261107D01*
X261566Y276767D01*
X261756Y277227D01*
Y280573D01*
X261566Y281032D01*
X261107Y281223D01*
D02*
G37*
G36*
X268587Y291262D02*
X266225D01*
X265766Y291072D01*
X265633Y290749D01*
X264500D01*
X264041Y290559D01*
X263851Y290100D01*
Y286669D01*
X263841Y286659D01*
X263651Y286200D01*
X263841Y285741D01*
X264641Y284941D01*
X265100Y284751D01*
X275531D01*
X277341Y282941D01*
X277800Y282751D01*
X278291D01*
X278411Y282800D01*
X278540D01*
X278625Y282835D01*
X282107D01*
X282193Y282800D01*
X282322D01*
X282441Y282751D01*
X309947D01*
X310170Y282639D01*
X316151Y278557D01*
Y259300D01*
X316341Y258841D01*
X316800Y258651D01*
X322700D01*
X323159Y258841D01*
X323349Y259300D01*
Y282200D01*
X323159Y282659D01*
X315259Y290559D01*
X314800Y290749D01*
X269180D01*
X269047Y291072D01*
X268587Y291262D01*
D02*
G37*
G36*
X287077Y261107D02*
X278219D01*
X277760Y260917D01*
X277569Y260457D01*
Y248056D01*
X277760Y247597D01*
X278219Y247406D01*
X287077D01*
X287536Y247597D01*
X287727Y248056D01*
Y260457D01*
X287536Y260917D01*
X287077Y261107D01*
D02*
G37*
%LPD*%
G36*
X345179Y369435D02*
Y329365D01*
X341435Y325622D01*
X331951D01*
Y327691D01*
X332113Y327799D01*
X332507Y328388D01*
X332645Y329083D01*
Y332430D01*
X332507Y333125D01*
X332113Y333714D01*
X331951Y333822D01*
Y334171D01*
X331865Y334600D01*
X331622Y334964D01*
X331622Y334964D01*
X328751Y337835D01*
Y339535D01*
X329204D01*
X329663Y339726D01*
X329853Y340185D01*
Y343728D01*
X329663Y344187D01*
X329204Y344378D01*
X328751D01*
Y345165D01*
X329080Y345494D01*
X329080Y345494D01*
X329323Y345857D01*
X329408Y346287D01*
Y349137D01*
X329960D01*
X330419Y349327D01*
X330609Y349786D01*
Y353527D01*
X330419Y353986D01*
X329960Y354176D01*
X326613D01*
X326154Y353986D01*
X325964Y353527D01*
Y349786D01*
X326154Y349327D01*
X326613Y349137D01*
X327165D01*
Y346751D01*
X326836Y346422D01*
X326593Y346058D01*
X326508Y345629D01*
X326508Y345629D01*
Y344378D01*
X326054D01*
X325595Y344187D01*
X325538Y344049D01*
X324996D01*
X324939Y344187D01*
X324480Y344378D01*
X324026D01*
Y349137D01*
X324645D01*
X325104Y349327D01*
X325294Y349786D01*
Y353527D01*
X325104Y353986D01*
X324645Y354176D01*
X324151D01*
Y359710D01*
X324880D01*
X325339Y359900D01*
X325529Y360359D01*
Y360977D01*
X329500D01*
Y360445D01*
X329691Y359986D01*
X330150Y359795D01*
X333851D01*
X334310Y359986D01*
X334500Y360445D01*
Y363752D01*
X334310Y364211D01*
X334266Y364229D01*
Y364771D01*
X334310Y364789D01*
X334500Y365248D01*
Y365950D01*
X339510D01*
Y365595D01*
X339700Y365136D01*
X340159Y364946D01*
X343899D01*
X344358Y365136D01*
X344549Y365595D01*
Y368548D01*
X344358Y369007D01*
X343899Y369197D01*
X340159D01*
X339700Y369007D01*
X339510Y368548D01*
Y368193D01*
X334500D01*
Y368555D01*
X334310Y369014D01*
X333851Y369205D01*
X330150D01*
X329691Y369014D01*
X329500Y368555D01*
Y365248D01*
X329691Y364789D01*
X329734Y364771D01*
Y364229D01*
X329691Y364211D01*
X329500Y363752D01*
Y363220D01*
X328821D01*
Y368300D01*
X328822Y368300D01*
X328736Y368729D01*
X328493Y369093D01*
X328493Y369093D01*
X326193Y371393D01*
X325829Y371636D01*
X325400Y371722D01*
X325400Y371722D01*
X310300D01*
X310300Y371722D01*
X309871Y371636D01*
X309507Y371393D01*
X309507Y371393D01*
X308207Y370093D01*
X307964Y369729D01*
X307878Y369300D01*
X307878Y369300D01*
Y359665D01*
X300835Y352622D01*
X294464D01*
X294311Y352851D01*
Y354878D01*
X298700D01*
X298700Y354878D01*
X299129Y354964D01*
X299493Y355207D01*
X306693Y362407D01*
X306936Y362771D01*
X307022Y363200D01*
X307021Y363200D01*
Y370235D01*
X309065Y372278D01*
X342335D01*
X345179Y369435D01*
D02*
G37*
%LPC*%
G36*
X337502Y345176D02*
X334156D01*
X333697Y344986D01*
X333506Y344527D01*
Y340787D01*
X333697Y340327D01*
X334156Y340137D01*
X337502D01*
X337962Y340327D01*
X338152Y340787D01*
Y344527D01*
X337962Y344986D01*
X337502Y345176D01*
D02*
G37*
G36*
X343899Y363882D02*
X340159D01*
X339700Y363692D01*
X339510Y363233D01*
Y360280D01*
X339700Y359821D01*
X340159Y359631D01*
X341010D01*
Y358041D01*
X337246Y354278D01*
X334692D01*
X334233Y354087D01*
X334043Y353628D01*
Y350085D01*
X334233Y349626D01*
X334692Y349435D01*
X337842D01*
X338301Y349626D01*
X338359Y349765D01*
X338900D01*
X338957Y349626D01*
X339417Y349435D01*
X339870D01*
Y345176D01*
X339471D01*
X339012Y344986D01*
X338822Y344527D01*
Y340787D01*
X339012Y340327D01*
X339471Y340137D01*
X340023D01*
Y334033D01*
X339545Y333714D01*
X339151Y333125D01*
X339013Y332430D01*
Y329083D01*
X339151Y328388D01*
X339545Y327799D01*
X340134Y327406D01*
X340829Y327267D01*
X341524Y327406D01*
X342113Y327799D01*
X342507Y328388D01*
X342645Y329083D01*
Y332430D01*
X342507Y333125D01*
X342266Y333486D01*
Y340137D01*
X342817D01*
X343277Y340327D01*
X343467Y340787D01*
Y344527D01*
X343277Y344986D01*
X342817Y345176D01*
X342113D01*
Y349435D01*
X342566D01*
X343025Y349626D01*
X343216Y350085D01*
Y353628D01*
X343025Y354087D01*
X342566Y354278D01*
X340783D01*
X340592Y354740D01*
X342750Y356898D01*
X342971Y357229D01*
X343049Y357619D01*
Y359631D01*
X343899D01*
X344358Y359821D01*
X344549Y360280D01*
Y363233D01*
X344358Y363692D01*
X343899Y363882D01*
D02*
G37*
G36*
X335829Y334246D02*
X335134Y334108D01*
X334545Y333714D01*
X334151Y333125D01*
X334013Y332430D01*
Y329083D01*
X334151Y328388D01*
X334545Y327799D01*
X335134Y327406D01*
X335829Y327267D01*
X336524Y327406D01*
X337113Y327799D01*
X337507Y328388D01*
X337645Y329083D01*
Y332430D01*
X337507Y333125D01*
X337113Y333714D01*
X336524Y334108D01*
X335829Y334246D01*
D02*
G37*
%LPD*%
G36*
X289758Y316059D02*
X289845Y314071D01*
X288500Y312604D01*
X286512Y312517D01*
X285045Y313862D01*
X284958Y315850D01*
X286303Y317317D01*
X288291Y317404D01*
X289758Y316059D01*
D02*
G37*
G36*
X322700Y282200D02*
Y259300D01*
X316800D01*
Y278900D01*
X310500Y283200D01*
X310100Y283400D01*
X282441D01*
X282236Y283485D01*
X278496D01*
X278291Y283400D01*
X277800D01*
X275800Y285400D01*
X265100D01*
X264300Y286200D01*
X264500Y286400D01*
Y290100D01*
X314800D01*
X322700Y282200D01*
D02*
G37*
%LPC*%
G36*
X199687Y399621D02*
X199257Y399535D01*
X198893Y399292D01*
X198650Y398928D01*
X198565Y398499D01*
X198650Y398070D01*
X198893Y397706D01*
X199236Y397363D01*
X199600Y397120D01*
X200029Y397035D01*
X200458Y397120D01*
X200822Y397363D01*
X201065Y397727D01*
X201151Y398157D01*
X201065Y398586D01*
X200822Y398950D01*
X200480Y399292D01*
X200116Y399535D01*
X199687Y399621D01*
D02*
G37*
G36*
X171102Y354292D02*
X170175Y354170D01*
X169311Y353812D01*
X168569Y353242D01*
X167999Y352500D01*
X167641Y351636D01*
X167519Y350709D01*
X167641Y349781D01*
X167999Y348917D01*
X168569Y348175D01*
X169311Y347605D01*
X170175Y347247D01*
X171102Y347125D01*
X172030Y347247D01*
X172894Y347605D01*
X173636Y348175D01*
X174206Y348917D01*
X174564Y349781D01*
X174686Y350709D01*
X174564Y351636D01*
X174206Y352500D01*
X173636Y353242D01*
X172894Y353812D01*
X172030Y354170D01*
X171102Y354292D01*
D02*
G37*
G36*
X181102Y344292D02*
X180175Y344170D01*
X179311Y343812D01*
X178569Y343243D01*
X177999Y342500D01*
X177641Y341636D01*
X177519Y340709D01*
X177641Y339781D01*
X177999Y338917D01*
X178569Y338175D01*
X179311Y337605D01*
X180175Y337247D01*
X181102Y337125D01*
X182030Y337247D01*
X182894Y337605D01*
X183636Y338175D01*
X184206Y338917D01*
X184564Y339781D01*
X184686Y340709D01*
X184564Y341636D01*
X184206Y342500D01*
X183636Y343243D01*
X182894Y343812D01*
X182030Y344170D01*
X181102Y344292D01*
D02*
G37*
%LPD*%
D10*
X186525Y407157D02*
D03*
X180029D02*
D03*
X186525Y398157D02*
D03*
X180029D02*
D03*
X187029Y388157D02*
D03*
X180533D02*
D03*
D11*
X224090Y355747D02*
D03*
X222121D02*
D03*
X220153D02*
D03*
X218184D02*
D03*
X216216D02*
D03*
X214247D02*
D03*
X212279D02*
D03*
X210310D02*
D03*
Y336653D02*
D03*
X212279D02*
D03*
X214247D02*
D03*
X216216D02*
D03*
X218184D02*
D03*
X220153D02*
D03*
X222121D02*
D03*
X224090D02*
D03*
D12*
X207653Y353090D02*
D03*
Y351121D02*
D03*
Y349153D02*
D03*
Y347184D02*
D03*
Y345216D02*
D03*
Y343247D02*
D03*
Y341279D02*
D03*
Y339310D02*
D03*
X226747D02*
D03*
Y341279D02*
D03*
Y343247D02*
D03*
Y345216D02*
D03*
Y347184D02*
D03*
Y349153D02*
D03*
Y351121D02*
D03*
Y353090D02*
D03*
D13*
X217200Y346200D02*
D03*
D14*
X253929Y341448D02*
D03*
X248220D02*
D03*
X253929Y345975D02*
D03*
X248220D02*
D03*
X265763Y384442D02*
D03*
Y389757D02*
D03*
X261429Y340790D02*
D03*
Y346105D02*
D03*
X240929Y346505D02*
D03*
Y341190D02*
D03*
X242787Y307943D02*
D03*
Y313258D02*
D03*
X279929Y317814D02*
D03*
Y312499D02*
D03*
X280366Y281162D02*
D03*
Y286477D02*
D03*
X218232Y368757D02*
D03*
Y374072D02*
D03*
X211129Y374172D02*
D03*
Y368857D02*
D03*
X173038Y249642D02*
D03*
Y254958D02*
D03*
D15*
X234306Y302657D02*
D03*
Y307657D02*
D03*
Y312657D02*
D03*
Y317657D02*
D03*
X206353Y302657D02*
D03*
Y307657D02*
D03*
Y312657D02*
D03*
Y317657D02*
D03*
D16*
X260010Y263312D02*
D03*
Y254257D02*
D03*
Y245202D02*
D03*
D17*
X282648Y254257D02*
D03*
D18*
X259926Y278900D02*
D03*
X263666D02*
D03*
X267406D02*
D03*
Y288939D02*
D03*
X259926D02*
D03*
D19*
X277913Y352063D02*
D03*
Y359937D02*
D03*
D20*
X290709Y356000D02*
D03*
D21*
X263675Y322800D02*
D03*
X268400D02*
D03*
X327629Y341957D02*
D03*
X322905D02*
D03*
X340991Y351857D02*
D03*
X336267D02*
D03*
D22*
X246832Y389760D02*
D03*
Y384957D02*
D03*
X323029Y366816D02*
D03*
Y362013D02*
D03*
X332000Y362098D02*
D03*
Y366902D02*
D03*
D23*
X310829Y309300D02*
D03*
X315829D02*
D03*
X320829D02*
D03*
X325829D02*
D03*
X330829D02*
D03*
X335829D02*
D03*
X340829D02*
D03*
X310829Y330757D02*
D03*
X315829D02*
D03*
X320829D02*
D03*
X325829D02*
D03*
X330829D02*
D03*
X335829D02*
D03*
X340829D02*
D03*
D24*
X253640Y389800D02*
D03*
X258955D02*
D03*
X269000Y307100D02*
D03*
X263685D02*
D03*
X322972Y351657D02*
D03*
X328287D02*
D03*
X341728Y288943D02*
D03*
X336413D02*
D03*
X341144Y342657D02*
D03*
X335829D02*
D03*
X241429Y254357D02*
D03*
X246744D02*
D03*
X241372Y245357D02*
D03*
X246687D02*
D03*
X240357Y353313D02*
D03*
X235043D02*
D03*
D25*
X283358Y370500D02*
D03*
X278043D02*
D03*
X336000Y296500D02*
D03*
X341315D02*
D03*
X194372Y407157D02*
D03*
X199687D02*
D03*
X235542Y364900D02*
D03*
X240858D02*
D03*
X186287Y274867D02*
D03*
X180972D02*
D03*
X185987Y267757D02*
D03*
X180672D02*
D03*
X194714Y398157D02*
D03*
X200029D02*
D03*
X194843Y388400D02*
D03*
X200157D02*
D03*
D26*
X313500Y366657D02*
D03*
Y361343D02*
D03*
X342029Y367072D02*
D03*
Y361757D02*
D03*
X247666Y286377D02*
D03*
Y281062D02*
D03*
D27*
X184570Y257157D02*
D03*
X182011D02*
D03*
X179452D02*
D03*
X187129D02*
D03*
X184570Y249519D02*
D03*
X182011D02*
D03*
X179452D02*
D03*
X187129D02*
D03*
D28*
X198100Y305000D02*
X222000D01*
X195700Y307400D02*
X198100Y305000D01*
X195700Y307400D02*
Y317200D01*
X201500Y323000D01*
X246500Y328300D02*
X252400Y322400D01*
X229700Y328300D02*
X246500D01*
X224090Y333910D02*
X229700Y328300D01*
X222121Y332879D02*
X229000Y326000D01*
X245500D01*
X252400Y310000D02*
Y322400D01*
Y310000D02*
X262200Y300200D01*
X192400Y339400D02*
X200184Y347184D01*
X192400Y329400D02*
Y339400D01*
X188000Y325000D02*
X192400Y329400D01*
X175394Y325000D02*
X188000D01*
X186209Y330709D02*
X189300Y333800D01*
X181102Y330709D02*
X186209D01*
X189300Y333800D02*
Y343800D01*
X196621Y351121D01*
X207653D01*
X346300Y328900D02*
Y369900D01*
X341900Y324500D02*
X346300Y328900D01*
X342800Y373400D02*
X346300Y369900D01*
X278476Y351500D02*
X285100D01*
X301300D01*
X309000Y359200D01*
X298700Y356000D02*
X305900Y363200D01*
X290709Y356000D02*
X298700D01*
X305900Y363200D02*
Y370700D01*
X323115Y362098D02*
X332000D01*
X323029Y362013D02*
X323115Y362098D01*
X332170Y367072D02*
X342029D01*
X332000Y366902D02*
X332170Y367072D01*
X340991Y342809D02*
Y351857D01*
X313658Y366816D02*
X323029D01*
X313500Y366657D02*
X313658Y366816D01*
X323029Y351714D02*
Y362013D01*
X322905Y351590D02*
X323029Y351714D01*
X322905Y338595D02*
Y351590D01*
X341144Y331072D02*
Y342657D01*
X340829Y330757D02*
X341144Y331072D01*
X322905Y338595D02*
X325829Y335671D01*
Y330757D02*
Y335671D01*
X327629Y345629D02*
X328287Y346287D01*
Y351657D01*
X327629Y337371D02*
X330829Y334171D01*
X340829Y296986D02*
Y309300D01*
X336413Y288943D02*
Y296087D01*
X335829Y296671D02*
Y309300D01*
X222121Y332879D02*
Y336653D01*
X245500Y326000D02*
X250000Y321500D01*
Y305500D02*
Y321500D01*
X247157Y302657D02*
X250000Y305500D01*
X234306Y302657D02*
X247157D01*
X220153Y317153D02*
Y336653D01*
X215657Y312657D02*
X220153Y317153D01*
X206353Y312657D02*
X215657D01*
X206353Y317657D02*
X213657D01*
X216216Y320216D01*
Y336653D01*
X214247Y322747D02*
Y336653D01*
X211500Y320000D02*
X214247Y322747D01*
X201500Y320000D02*
X211500D01*
X198500Y317000D02*
X201500Y320000D01*
X198500Y308500D02*
Y317000D01*
Y308500D02*
X199343Y307657D01*
X206353D01*
X218184Y318684D02*
Y336653D01*
X214500Y315000D02*
X218184Y318684D01*
X201500Y315000D02*
X214500D01*
X200500Y314000D02*
X201500Y315000D01*
X200500Y311500D02*
Y314000D01*
Y311500D02*
X202000Y310000D01*
X212279Y323779D02*
Y336653D01*
X211500Y323000D02*
X212279Y323779D01*
X201500Y323000D02*
X211500D01*
X222000Y305000D02*
X229657Y312657D01*
X234306D01*
X202500Y310000D02*
X223500D01*
X228500Y315000D01*
X204810Y339310D02*
X207653D01*
X201000Y335500D02*
X204810Y339310D01*
X201000Y326000D02*
Y335500D01*
X193000Y318000D02*
X201000Y326000D01*
X193000Y285500D02*
Y318000D01*
X186287Y278787D02*
X193000Y285500D01*
X186287Y274867D02*
Y278787D01*
X185987Y262513D02*
Y267757D01*
Y262513D02*
X187129Y261371D01*
Y257157D02*
Y261371D01*
X186287Y274867D02*
X189133D01*
X190000Y274000D01*
Y255500D02*
Y274000D01*
X188000Y253500D02*
X190000Y255500D01*
X186000Y253500D02*
X188000D01*
X184570Y254930D02*
X186000Y253500D01*
X184570Y254930D02*
Y257157D01*
X182011D02*
Y262989D01*
X180672Y264328D02*
X182011Y262989D01*
X180672Y274567D02*
X180972Y274867D01*
X202747Y343247D02*
X207653D01*
X197000Y337500D02*
X202747Y343247D01*
X197000Y328000D02*
Y337500D01*
X184000Y315000D02*
X197000Y328000D01*
X175394Y315000D02*
X184000D01*
X171102Y310709D02*
X175394Y315000D01*
X201716Y345216D02*
X207653D01*
X194500Y338000D02*
X201716Y345216D01*
X194500Y328500D02*
Y338000D01*
X186709Y320709D02*
X194500Y328500D01*
X181102Y320709D02*
X186709D01*
X171102D02*
X175394Y325000D01*
X195590Y353090D02*
X207653D01*
X187000Y344500D02*
X195590Y353090D01*
X187000Y337500D02*
Y344500D01*
X184500Y335000D02*
X187000Y337500D01*
X175394Y335000D02*
X184500D01*
X171102Y330709D02*
X175394Y335000D01*
X226747Y343247D02*
X232753D01*
X234810Y341190D01*
X240929D01*
Y346505D02*
X247690D01*
X253929Y341448D02*
X260772D01*
X261429Y340790D01*
X261195Y346105D02*
X261429D01*
X257600Y349700D02*
X261195Y346105D01*
X237700Y349700D02*
X257600D01*
X233216Y345216D02*
X237700Y349700D01*
X226747Y345216D02*
X233216D01*
X220153Y355747D02*
Y358632D01*
X218184Y360600D02*
X220153Y358632D01*
X246044Y361757D02*
X246144Y361657D01*
X180029Y388660D02*
X180533Y388157D01*
X187273Y388400D02*
X194843D01*
X187029Y388157D02*
X187273Y388400D01*
X186525Y398157D02*
X194714D01*
X186525Y407157D02*
X194372D01*
X199687Y398499D02*
X200029Y398157D01*
X263676Y307109D02*
Y322800D01*
X275861Y304961D02*
X277402D01*
X273700Y302800D02*
X275861Y304961D01*
X267985Y302800D02*
X273700D01*
X279929Y317814D02*
X284548D01*
X287402Y314961D01*
X309000Y359200D02*
Y369300D01*
X310300Y370600D01*
X325400D01*
X327700Y368300D01*
Y362098D02*
Y368300D01*
X330829Y324871D02*
X331200Y324500D01*
X341900D01*
X308600Y373400D02*
X342800D01*
X305900Y370700D02*
X308600Y373400D01*
X310829Y304329D02*
Y309300D01*
X224090Y333910D02*
Y336653D01*
X250228Y288939D02*
X259926D01*
X247666Y286377D02*
X250228Y288939D01*
X277913Y359937D02*
Y370371D01*
X306700Y300200D02*
X310829Y304329D01*
X262200Y300200D02*
X306700D01*
X200184Y347184D02*
X207653D01*
X226747Y351121D02*
X228621D01*
X231500Y354000D01*
Y360857D01*
X235543Y364900D01*
X180029Y403129D02*
Y407157D01*
X179700Y402800D02*
X180029Y403129D01*
X315829Y302829D02*
Y309300D01*
X315700Y302700D02*
X315829Y302829D01*
X258955Y389800D02*
X265721D01*
X265763Y389757D01*
X272557D01*
X281100Y398300D01*
Y412700D01*
X179452Y249519D02*
Y251652D01*
X180200Y252400D01*
X184570Y249519D02*
Y251830D01*
X184000Y252400D02*
X184570Y251830D01*
X180200Y252400D02*
X184000D01*
X289300Y396400D02*
Y412700D01*
X218184Y355747D02*
Y360600D01*
Y368708D01*
X180672Y264328D02*
Y274567D01*
X327629Y337371D02*
Y345629D01*
X330829Y324871D02*
Y334171D01*
X335829Y296671D02*
X336413Y296087D01*
X263676Y307109D02*
X267985Y302800D01*
D29*
X318200Y336300D02*
X320829Y333671D01*
X272100Y336300D02*
X318200D01*
X263676Y327876D02*
X272100Y336300D01*
X263676Y322800D02*
Y327876D01*
X193247Y355747D02*
X210310D01*
X183700Y346200D02*
X193247Y355747D01*
X177000Y346200D02*
X183700D01*
X171509Y340709D02*
X177000Y346200D01*
X336267Y351857D02*
X342029Y357619D01*
Y361757D01*
X181102Y350709D02*
X192394Y362000D01*
X212200D01*
X214247Y359953D01*
Y355747D02*
Y359953D01*
X212279Y355747D02*
Y358921D01*
X211700Y359500D02*
X212279Y358921D01*
X173038Y249642D02*
X179328D01*
X241600Y315000D02*
X242787Y313813D01*
X228500Y315000D02*
X241600D01*
X234306Y307657D02*
X242501D01*
X222121Y355747D02*
Y369221D01*
X242400Y389500D01*
X246572D01*
X246872Y389800D02*
X253640D01*
X171102Y340709D02*
X171509D01*
X287402Y314961D02*
X307561D01*
X315829Y323229D01*
Y330757D01*
X320829D02*
Y333671D01*
X246572Y389500D02*
X246872Y389800D01*
D30*
X183500Y279500D02*
X190500Y286500D01*
X183500Y270243D02*
Y279500D01*
Y270243D02*
X185987Y267757D01*
X190500Y286500D02*
Y318500D01*
X199000Y327000D01*
Y336500D01*
X203779Y341279D02*
X207653D01*
X199000Y336500D02*
X203779Y341279D01*
X253452Y341448D02*
X253929D01*
X248925Y345975D02*
X253452Y341448D01*
X248220Y345975D02*
X248925D01*
D31*
X218184Y368708D02*
X218232Y368757D01*
X211277Y368708D02*
X218184D01*
X211129Y368857D02*
X211277Y368708D01*
X211229Y374072D02*
X218232D01*
X211129Y374172D02*
X211229Y374072D01*
X210310Y332910D02*
Y336653D01*
X209000Y331600D02*
X210310Y332910D01*
X198200Y349100D02*
X206800D01*
X196400Y347300D02*
X198200Y349100D01*
D32*
X235000Y353356D02*
Y357800D01*
X226747Y349153D02*
X230797D01*
X226747Y347184D02*
X228829D01*
X234306Y317657D02*
X246643D01*
X246900Y317400D01*
X228829Y347184D02*
X230797Y349153D01*
X235000Y353356D01*
D33*
X171102Y360709D02*
D03*
D34*
X181102D02*
D03*
X171102Y350709D02*
D03*
X181102D02*
D03*
X171102Y340709D02*
D03*
X181102D02*
D03*
X171102Y330709D02*
D03*
X181102D02*
D03*
X171102Y320709D02*
D03*
X181102D02*
D03*
X171102Y310709D02*
D03*
X181102D02*
D03*
D35*
X212598Y263779D02*
D03*
X220472D02*
D03*
X311929Y262457D02*
D03*
X319803D02*
D03*
D36*
X287402Y314961D02*
D03*
X277402Y304961D02*
D03*
X267402Y314961D02*
D03*
D37*
X211700Y359500D02*
D03*
X209000Y331600D02*
D03*
X196400Y347300D02*
D03*
Y368800D02*
D03*
X235000Y357800D02*
D03*
X179700Y402800D02*
D03*
X315700Y302700D02*
D03*
X246900Y317400D02*
D03*
Y294900D02*
D03*
X261600Y362700D02*
D03*
X342900Y266100D02*
D03*
X227700Y388700D02*
D03*
X186800Y377200D02*
D03*
X176900Y287700D02*
D03*
X341900Y243900D02*
D03*
X300600Y344300D02*
D03*
X289300Y396400D02*
D03*
M02*
