M48
;Layer_Color=9474304
;FILE_FORMAT=2:5
INCH,TZ
;TYPE=PLATED
T1F00S00C0.01200
T2F00S00C0.02362
T3F00S00C0.03200
T4F00S00C0.03543
%
T01
X341900Y243900
X342900Y266100
X315700Y302700
X246900Y294900
X176900Y287700
X209000Y331600
X196400Y347300
Y368800
X186800Y377200
X179700Y402800
X227700Y388700
X235000Y357800
X211700Y359500
X261600Y362700
X300600Y344300
X289300Y396400
X246900Y317400
T02
X319803Y262457
X311929
X220472Y263779
X212598
T03
X277402Y304961
X287402Y314961
X267402
T04
X171102Y310709
X181102
Y320709
Y330709
Y340709
Y350709
Y360709
X171102
Y350709
Y340709
Y330709
Y320709
M30
