G04 Layer_Color=8388736*
%FSLAX25Y25*%
%MOIN*%
G70*
G01*
G75*
%ADD10R,0.01968X0.01968*%
%ADD52R,0.02172X0.02329*%
%ADD53R,0.03353X0.04140*%
%ADD54R,0.04140X0.03353*%
%ADD55R,0.03550X0.03943*%
%ADD56R,0.04140X0.03747*%
%ADD57R,0.03747X0.04140*%
%ADD58O,0.02762X0.06109*%
%ADD59R,0.04101X0.03707*%
%ADD60R,0.06305X0.06699*%
%ADD61R,0.05124X0.05124*%
%ADD62R,0.02762X0.03747*%
%ADD63R,0.09258X0.12802*%
%ADD64R,0.09258X0.03550*%
%ADD65O,0.07093X0.02762*%
%ADD66R,0.14967X0.14967*%
%ADD67O,0.03550X0.01384*%
%ADD68O,0.01384X0.03550*%
%ADD69R,0.03550X0.03550*%
%ADD70C,0.03600*%
%ADD71C,0.04337*%
%ADD72C,0.06305*%
%ADD73R,0.06305X0.06305*%
%ADD74C,0.02800*%
D10*
X281000Y409200D02*
D03*
X289200D02*
D03*
D52*
X187129Y249519D02*
D03*
X179452D02*
D03*
X182011D02*
D03*
X184570D02*
D03*
X187129Y257157D02*
D03*
X179452D02*
D03*
X182011D02*
D03*
X184570D02*
D03*
D53*
X200157Y388400D02*
D03*
X194843D02*
D03*
X200029Y398157D02*
D03*
X194714D02*
D03*
X180672Y267757D02*
D03*
X185987D02*
D03*
X180972Y274867D02*
D03*
X186287D02*
D03*
X240858Y364900D02*
D03*
X235542D02*
D03*
X199687Y407157D02*
D03*
X194372D02*
D03*
X341315Y296500D02*
D03*
X336000D02*
D03*
X278043Y370500D02*
D03*
X283358D02*
D03*
D54*
X247666Y281062D02*
D03*
Y286377D02*
D03*
X342029Y361757D02*
D03*
Y367072D02*
D03*
X313500Y361343D02*
D03*
Y366657D02*
D03*
D55*
X336267Y351857D02*
D03*
X340991D02*
D03*
X323300Y342000D02*
D03*
X328024D02*
D03*
X268400Y322800D02*
D03*
X263675D02*
D03*
D56*
X173000Y254958D02*
D03*
Y249642D02*
D03*
X211129Y368857D02*
D03*
Y374172D02*
D03*
X218232Y374072D02*
D03*
Y368757D02*
D03*
X280366Y286477D02*
D03*
Y281162D02*
D03*
X279929Y312499D02*
D03*
Y317814D02*
D03*
X242787Y313258D02*
D03*
Y307943D02*
D03*
X240929Y341190D02*
D03*
Y346505D02*
D03*
X261429Y346105D02*
D03*
Y340790D02*
D03*
X265763Y389757D02*
D03*
Y384442D02*
D03*
X248220Y345975D02*
D03*
X253929D02*
D03*
X248220Y341448D02*
D03*
X253929D02*
D03*
D57*
X235043Y353313D02*
D03*
X240357D02*
D03*
X246687Y245357D02*
D03*
X241372D02*
D03*
X246744Y254357D02*
D03*
X241429D02*
D03*
X335829Y342657D02*
D03*
X341144D02*
D03*
X336413Y288943D02*
D03*
X341728D02*
D03*
X328287Y351657D02*
D03*
X322972D02*
D03*
X263685Y307100D02*
D03*
X269000D02*
D03*
X258955Y389800D02*
D03*
X253640D02*
D03*
D58*
X340829Y330757D02*
D03*
X335829D02*
D03*
X330829D02*
D03*
X325829D02*
D03*
X320829D02*
D03*
X315829D02*
D03*
X310829D02*
D03*
X340829Y309300D02*
D03*
X335829D02*
D03*
X330829D02*
D03*
X325829D02*
D03*
X320829D02*
D03*
X315829D02*
D03*
X310829D02*
D03*
D59*
X332000Y366902D02*
D03*
Y362098D02*
D03*
X323029Y362013D02*
D03*
Y366816D02*
D03*
X246832Y384957D02*
D03*
Y389760D02*
D03*
D60*
X290709Y356000D02*
D03*
D61*
X277913Y359937D02*
D03*
Y352063D02*
D03*
D62*
X259926Y288939D02*
D03*
X267406D02*
D03*
Y278900D02*
D03*
X263666D02*
D03*
X259926D02*
D03*
D63*
X282648Y254257D02*
D03*
D64*
X260010Y245202D02*
D03*
Y254257D02*
D03*
Y263312D02*
D03*
D65*
X206353Y317657D02*
D03*
Y312657D02*
D03*
Y307657D02*
D03*
Y302657D02*
D03*
X234306Y317657D02*
D03*
Y312657D02*
D03*
Y307657D02*
D03*
Y302657D02*
D03*
D66*
X217200Y346200D02*
D03*
D67*
X226747Y353090D02*
D03*
Y351121D02*
D03*
Y349153D02*
D03*
Y347184D02*
D03*
Y345216D02*
D03*
Y343247D02*
D03*
Y341279D02*
D03*
Y339310D02*
D03*
X207653D02*
D03*
Y341279D02*
D03*
Y343247D02*
D03*
Y345216D02*
D03*
Y347184D02*
D03*
Y349153D02*
D03*
Y351121D02*
D03*
Y353090D02*
D03*
D68*
X224090Y336653D02*
D03*
X222121D02*
D03*
X220153D02*
D03*
X218184D02*
D03*
X216216D02*
D03*
X214247D02*
D03*
X212279D02*
D03*
X210310D02*
D03*
Y355747D02*
D03*
X212279D02*
D03*
X214247D02*
D03*
X216216D02*
D03*
X218184D02*
D03*
X220153D02*
D03*
X222121D02*
D03*
X224090D02*
D03*
D69*
X180533Y388157D02*
D03*
X187029D02*
D03*
X180029Y398157D02*
D03*
X186525D02*
D03*
X180029Y407157D02*
D03*
X186525D02*
D03*
D70*
X267402Y314961D02*
D03*
X277402Y304961D02*
D03*
X287402Y314961D02*
D03*
D71*
X330000Y263800D02*
D03*
X322126D02*
D03*
X220472Y263779D02*
D03*
X212598D02*
D03*
D72*
X181102Y310709D02*
D03*
X171102D02*
D03*
X181102Y320709D02*
D03*
X171102D02*
D03*
X181102Y330709D02*
D03*
X171102D02*
D03*
X181102Y340709D02*
D03*
X171102D02*
D03*
X181102Y350709D02*
D03*
X171102D02*
D03*
X181102Y360709D02*
D03*
D73*
X171102D02*
D03*
D74*
X300550Y260443D02*
D03*
X302518Y248632D02*
D03*
X304487Y244695D02*
D03*
X302518Y256506D02*
D03*
X304487Y252569D02*
D03*
X300550D02*
D03*
Y244695D02*
D03*
X304487Y260443D02*
D03*
X226378Y291339D02*
D03*
X224410Y287402D02*
D03*
X222441Y291339D02*
D03*
X220473Y287402D02*
D03*
X218504Y291339D02*
D03*
X216536Y287402D02*
D03*
X214567Y291339D02*
D03*
X212598Y287402D02*
D03*
X210630Y291339D02*
D03*
X208662Y287402D02*
D03*
X206693Y291339D02*
D03*
X204725Y287402D02*
D03*
X346457Y385827D02*
D03*
X344488Y389764D02*
D03*
X342520Y385827D02*
D03*
X340551Y389764D02*
D03*
X338583Y385827D02*
D03*
X336614Y389764D02*
D03*
X334646Y385827D02*
D03*
X332677Y389764D02*
D03*
X330709Y385827D02*
D03*
X328740Y389764D02*
D03*
X326772Y385827D02*
D03*
X324803Y389764D02*
D03*
X322835Y385827D02*
D03*
X320866Y389764D02*
D03*
X318898Y385827D02*
D03*
X316929Y389764D02*
D03*
X314961Y385827D02*
D03*
X312992Y389764D02*
D03*
X311024Y385827D02*
D03*
X289300Y396400D02*
D03*
X200500Y382700D02*
D03*
X246900Y294900D02*
D03*
Y317400D02*
D03*
X315700Y302700D02*
D03*
X179700Y402800D02*
D03*
X235000Y357800D02*
D03*
X196400Y368800D02*
D03*
Y347300D02*
D03*
X209000Y331600D02*
D03*
X211700Y359500D02*
D03*
M02*
