G04 Layer_Color=8421504*
%FSLAX25Y25*%
%MOIN*%
G70*
G01*
G75*
%ADD10R,0.01968X0.01968*%
%ADD11R,0.01772X0.01929*%
%ADD12R,0.02953X0.03740*%
%ADD13R,0.03740X0.02953*%
%ADD14R,0.03150X0.03543*%
%ADD15R,0.03740X0.03347*%
%ADD16R,0.03347X0.03740*%
%ADD17O,0.02362X0.05709*%
%ADD18R,0.03701X0.03307*%
%ADD19R,0.05905X0.06299*%
%ADD20R,0.04724X0.04724*%
%ADD21R,0.02362X0.03347*%
%ADD22R,0.08858X0.12402*%
%ADD23R,0.08858X0.03150*%
%ADD24O,0.06693X0.02362*%
%ADD25R,0.14567X0.14567*%
%ADD26O,0.03150X0.00984*%
%ADD27O,0.00984X0.03150*%
%ADD28R,0.03150X0.03150*%
D10*
X281000Y409200D02*
D03*
X289200D02*
D03*
D11*
X187129Y249519D02*
D03*
X179452D02*
D03*
X182011D02*
D03*
X184570D02*
D03*
X187129Y257157D02*
D03*
X179452D02*
D03*
X182011D02*
D03*
X184570D02*
D03*
D12*
X200157Y388400D02*
D03*
X194843D02*
D03*
X200029Y398157D02*
D03*
X194714D02*
D03*
X180672Y267757D02*
D03*
X185987D02*
D03*
X180972Y274867D02*
D03*
X186287D02*
D03*
X240858Y364900D02*
D03*
X235542D02*
D03*
X199687Y407157D02*
D03*
X194372D02*
D03*
X341315Y296500D02*
D03*
X336000D02*
D03*
X278043Y370500D02*
D03*
X283358D02*
D03*
D13*
X247666Y281062D02*
D03*
Y286377D02*
D03*
X342029Y361757D02*
D03*
Y367072D02*
D03*
X313500Y361343D02*
D03*
Y366657D02*
D03*
D14*
X336267Y351857D02*
D03*
X340991D02*
D03*
X323300Y342000D02*
D03*
X328024D02*
D03*
X268400Y322800D02*
D03*
X263675D02*
D03*
D15*
X173000Y254958D02*
D03*
Y249642D02*
D03*
X211129Y368857D02*
D03*
Y374172D02*
D03*
X218232Y374072D02*
D03*
Y368757D02*
D03*
X280366Y286477D02*
D03*
Y281162D02*
D03*
X279929Y312499D02*
D03*
Y317814D02*
D03*
X242787Y313258D02*
D03*
Y307943D02*
D03*
X240929Y341190D02*
D03*
Y346505D02*
D03*
X261429Y346105D02*
D03*
Y340790D02*
D03*
X265763Y389757D02*
D03*
Y384442D02*
D03*
X248220Y345975D02*
D03*
X253929D02*
D03*
X248220Y341448D02*
D03*
X253929D02*
D03*
D16*
X235043Y353313D02*
D03*
X240357D02*
D03*
X246687Y245357D02*
D03*
X241372D02*
D03*
X246744Y254357D02*
D03*
X241429D02*
D03*
X335829Y342657D02*
D03*
X341144D02*
D03*
X336413Y288943D02*
D03*
X341728D02*
D03*
X328287Y351657D02*
D03*
X322972D02*
D03*
X263685Y307100D02*
D03*
X269000D02*
D03*
X258955Y389800D02*
D03*
X253640D02*
D03*
D17*
X340829Y330757D02*
D03*
X335829D02*
D03*
X330829D02*
D03*
X325829D02*
D03*
X320829D02*
D03*
X315829D02*
D03*
X310829D02*
D03*
X340829Y309300D02*
D03*
X335829D02*
D03*
X330829D02*
D03*
X325829D02*
D03*
X320829D02*
D03*
X315829D02*
D03*
X310829D02*
D03*
D18*
X332000Y366902D02*
D03*
Y362098D02*
D03*
X323029Y362013D02*
D03*
Y366816D02*
D03*
X246832Y384957D02*
D03*
Y389760D02*
D03*
D19*
X290709Y356000D02*
D03*
D20*
X277913Y359937D02*
D03*
Y352063D02*
D03*
D21*
X259926Y288939D02*
D03*
X267406D02*
D03*
Y278900D02*
D03*
X263666D02*
D03*
X259926D02*
D03*
D22*
X282648Y254257D02*
D03*
D23*
X260010Y245202D02*
D03*
Y254257D02*
D03*
Y263312D02*
D03*
D24*
X206353Y317657D02*
D03*
Y312657D02*
D03*
Y307657D02*
D03*
Y302657D02*
D03*
X234306Y317657D02*
D03*
Y312657D02*
D03*
Y307657D02*
D03*
Y302657D02*
D03*
D25*
X217200Y346200D02*
D03*
D26*
X226747Y353090D02*
D03*
Y351121D02*
D03*
Y349153D02*
D03*
Y347184D02*
D03*
Y345216D02*
D03*
Y343247D02*
D03*
Y341279D02*
D03*
Y339310D02*
D03*
X207653D02*
D03*
Y341279D02*
D03*
Y343247D02*
D03*
Y345216D02*
D03*
Y347184D02*
D03*
Y349153D02*
D03*
Y351121D02*
D03*
Y353090D02*
D03*
D27*
X224090Y336653D02*
D03*
X222121D02*
D03*
X220153D02*
D03*
X218184D02*
D03*
X216216D02*
D03*
X214247D02*
D03*
X212279D02*
D03*
X210310D02*
D03*
Y355747D02*
D03*
X212279D02*
D03*
X214247D02*
D03*
X216216D02*
D03*
X218184D02*
D03*
X220153D02*
D03*
X222121D02*
D03*
X224090D02*
D03*
D28*
X180533Y388157D02*
D03*
X187029D02*
D03*
X180029Y398157D02*
D03*
X186525D02*
D03*
X180029Y407157D02*
D03*
X186525D02*
D03*
M02*
