G04 Layer_Color=32768*
%FSLAX25Y25*%
%MOIN*%
G70*
G01*
G75*
%ADD29C,0.00800*%
%ADD76C,0.00394*%
%ADD77C,0.00197*%
D29*
X204724Y271654D02*
X228346D01*
X204724Y244094D02*
Y271654D01*
Y244094D02*
X228346D01*
Y271654D01*
X304055Y270331D02*
X327677D01*
X304055Y242772D02*
Y270331D01*
Y242772D02*
X327677D01*
Y270331D01*
X278000Y364000D02*
X295000D01*
Y348000D02*
Y364000D01*
X274000Y348000D02*
X295000D01*
X274000D02*
Y364000D01*
X278000D01*
D76*
X177025Y409657D02*
X189525D01*
Y404657D02*
Y409657D01*
X177025Y404657D02*
X189525D01*
X177025D02*
Y409657D01*
Y400657D02*
X189525D01*
Y395657D02*
Y400657D01*
X177025Y395657D02*
X189525D01*
X177025D02*
Y400657D01*
X177529Y390657D02*
X190029D01*
Y385657D02*
Y390657D01*
X177529Y385657D02*
X190029D01*
X177529D02*
Y390657D01*
X217200Y344232D02*
Y348169D01*
X215231Y346200D02*
X219168D01*
X220329Y308188D02*
Y312125D01*
X218361Y310157D02*
X222298D01*
X269361Y254257D02*
X273298D01*
X271329Y252288D02*
Y256225D01*
X263666Y281951D02*
Y285888D01*
X261698Y283920D02*
X265635D01*
X266038Y321028D02*
Y324572D01*
X264266Y322800D02*
X267809D01*
X246832Y385587D02*
Y389130D01*
X245060Y387358D02*
X248604D01*
X323029Y362643D02*
Y366186D01*
X321257Y364414D02*
X324801D01*
X332000Y362728D02*
Y366272D01*
X330228Y364500D02*
X333772D01*
X323861Y320028D02*
X327798D01*
X325829Y318060D02*
Y321997D01*
X263992Y387100D02*
X267535D01*
X265763Y385328D02*
Y388872D01*
X259658Y343448D02*
X263201D01*
X261429Y341676D02*
Y345219D01*
X239158Y343848D02*
X242701D01*
X240929Y342076D02*
Y345619D01*
X241015Y310600D02*
X244558D01*
X242787Y308828D02*
Y312372D01*
X256298Y388028D02*
Y391572D01*
X254526Y389800D02*
X258069D01*
X266342Y305328D02*
Y308872D01*
X264571Y307100D02*
X268114D01*
X278157Y315157D02*
X281701D01*
X279929Y313385D02*
Y316928D01*
X325629Y349885D02*
Y353428D01*
X323857Y351657D02*
X327401D01*
X339071Y287172D02*
Y290715D01*
X337299Y288943D02*
X340843D01*
X338487Y340885D02*
Y344428D01*
X336715Y342657D02*
X340258D01*
X244087Y252585D02*
Y256128D01*
X242315Y254357D02*
X245858D01*
X244029Y243585D02*
Y247128D01*
X242257Y245357D02*
X245801D01*
X278594Y283820D02*
X282138D01*
X280366Y282048D02*
Y285591D01*
X216461Y371414D02*
X220004D01*
X218232Y369642D02*
Y373186D01*
X209358Y371514D02*
X212901D01*
X211129Y369742D02*
Y373286D01*
X237700Y351541D02*
Y355085D01*
X235928Y353313D02*
X239472D01*
X171266Y252300D02*
X174809D01*
X173038Y250528D02*
Y254072D01*
X325267Y340185D02*
Y343728D01*
X323495Y341957D02*
X327039D01*
X338629Y350085D02*
Y353628D01*
X336858Y351857D02*
X340401D01*
X278830Y370500D02*
X282570D01*
X280700Y368630D02*
Y372370D01*
X336787Y296500D02*
X340528D01*
X338657Y294630D02*
Y298370D01*
X195159Y407157D02*
X198899D01*
X197029Y405287D02*
Y409027D01*
X313500Y362130D02*
Y365870D01*
X311630Y364000D02*
X315370D01*
X342029Y362544D02*
Y366284D01*
X340159Y364414D02*
X343899D01*
X247666Y281850D02*
Y285590D01*
X245796Y283720D02*
X249536D01*
X236330Y364900D02*
X240070D01*
X238200Y363030D02*
Y366770D01*
X181759Y274867D02*
X185499D01*
X183629Y272997D02*
Y276737D01*
X181459Y267757D02*
X185199D01*
X183329Y265887D02*
Y269627D01*
X195502Y398157D02*
X199242D01*
X197372Y396287D02*
Y400027D01*
X195630Y388400D02*
X199370D01*
X197500Y386530D02*
Y390270D01*
D77*
X205094Y358306D02*
X229306D01*
X205094Y334094D02*
X229306D01*
Y358306D01*
X205094Y334094D02*
Y358306D01*
X202022Y298542D02*
X238636D01*
X202022Y321771D02*
X238636D01*
Y298542D02*
Y321771D01*
X202022Y298542D02*
Y321771D01*
X254597Y240477D02*
Y268036D01*
X288061Y240477D02*
Y268036D01*
X254597D02*
X288061D01*
X254597Y240477D02*
X288061D01*
X256776Y276341D02*
X270556D01*
X256776Y291498D02*
X270556D01*
X256776Y276341D02*
Y291498D01*
X270556Y276341D02*
Y291498D01*
X261117Y325556D02*
X270959D01*
X261117Y320044D02*
X270959D01*
X261117D02*
Y325556D01*
X270959Y320044D02*
Y325556D01*
X243879Y392476D02*
X249785D01*
X243879Y382240D02*
X249785D01*
Y392476D01*
X243879Y382240D02*
Y392476D01*
X320076Y369532D02*
X325982D01*
X320076Y359296D02*
X325982D01*
Y369532D01*
X320076Y359296D02*
Y369532D01*
X329047Y359382D02*
X334953D01*
X329047Y369618D02*
X334953D01*
X329047Y359382D02*
Y369618D01*
X334953Y359382D02*
Y369618D01*
X307522Y305461D02*
Y334595D01*
X344136Y305461D02*
Y334595D01*
X307522Y305461D02*
X344136D01*
X307522Y334595D02*
X344136D01*
X262810Y381785D02*
Y392415D01*
X268716Y381785D02*
Y392415D01*
X262810Y381785D02*
X268716D01*
X262810Y392415D02*
X268716D01*
X258476Y338133D02*
Y348763D01*
X264382Y338133D02*
Y348763D01*
X258476Y338133D02*
X264382D01*
X258476Y348763D02*
X264382D01*
X243882Y338533D02*
Y349163D01*
X237976Y338533D02*
Y349163D01*
X243882D01*
X237976Y338533D02*
X243882D01*
X239834Y305285D02*
Y315915D01*
X245740Y305285D02*
Y315915D01*
X239834Y305285D02*
X245740D01*
X239834Y315915D02*
X245740D01*
X250983Y392753D02*
X261613D01*
X250983Y386847D02*
X261613D01*
X250983D02*
Y392753D01*
X261613Y386847D02*
Y392753D01*
X261028Y304147D02*
X271657D01*
X261028Y310053D02*
X271657D01*
Y304147D02*
Y310053D01*
X261028Y304147D02*
Y310053D01*
X282882Y309842D02*
Y320472D01*
X276976Y309842D02*
Y320472D01*
X282882D01*
X276976Y309842D02*
X282882D01*
X320314Y354609D02*
X330944D01*
X320314Y348704D02*
X330944D01*
X320314D02*
Y354609D01*
X330944Y348704D02*
Y354609D01*
X333756Y285991D02*
X344386D01*
X333756Y291896D02*
X344386D01*
Y285991D02*
Y291896D01*
X333756Y285991D02*
Y291896D01*
X333172Y339704D02*
X343802D01*
X333172Y345609D02*
X343802D01*
Y339704D02*
Y345609D01*
X333172Y339704D02*
Y345609D01*
X238772Y257309D02*
X249402D01*
X238772Y251404D02*
X249402D01*
X238772D02*
Y257309D01*
X249402Y251404D02*
Y257309D01*
X238714Y248309D02*
X249344D01*
X238714Y242404D02*
X249344D01*
X238714D02*
Y248309D01*
X249344Y242404D02*
Y248309D01*
X277413Y278505D02*
Y289135D01*
X283319Y278505D02*
Y289135D01*
X277413Y278505D02*
X283319D01*
X277413Y289135D02*
X283319D01*
X215280Y366099D02*
Y376729D01*
X221185Y366099D02*
Y376729D01*
X215280Y366099D02*
X221185D01*
X215280Y376729D02*
X221185D01*
X214082Y366199D02*
Y376829D01*
X208176Y366199D02*
Y376829D01*
X214082D01*
X208176Y366199D02*
X214082D01*
X232385Y350360D02*
X243015D01*
X232385Y356266D02*
X243015D01*
Y350360D02*
Y356266D01*
X232385Y350360D02*
Y356266D01*
X170085Y246985D02*
Y257615D01*
X175990Y246985D02*
Y257615D01*
X170085Y246985D02*
X175990D01*
X170085Y257615D02*
X175990D01*
X320346Y339201D02*
X330188D01*
X320346Y344713D02*
X330188D01*
Y339201D02*
Y344713D01*
X320346Y339201D02*
Y344713D01*
X333708Y349101D02*
X343550D01*
X333708Y354613D02*
X343550D01*
Y349101D02*
Y354613D01*
X333708Y349101D02*
Y354613D01*
X285818Y367547D02*
Y373453D01*
X275582Y367547D02*
Y373453D01*
Y367547D02*
X285818D01*
X275582Y373453D02*
X285818D01*
X333539Y293547D02*
Y299453D01*
X343776Y293547D02*
Y299453D01*
X333539D02*
X343776D01*
X333539Y293547D02*
X343776D01*
X191911Y404204D02*
Y410110D01*
X202147Y404204D02*
Y410110D01*
X191911D02*
X202147D01*
X191911Y404204D02*
X202147D01*
X310547Y369118D02*
X316453D01*
X310547Y358882D02*
X316453D01*
Y369118D01*
X310547Y358882D02*
Y369118D01*
X339076Y369532D02*
X344982D01*
X339076Y359296D02*
X344982D01*
Y369532D01*
X339076Y359296D02*
Y369532D01*
X244713Y288838D02*
X250619D01*
X244713Y278602D02*
X250619D01*
Y288838D01*
X244713Y278602D02*
Y288838D01*
X233082Y361947D02*
Y367853D01*
X243318Y361947D02*
Y367853D01*
X233082D02*
X243318D01*
X233082Y361947D02*
X243318D01*
X188747Y271914D02*
Y277819D01*
X178511Y271914D02*
Y277819D01*
Y271914D02*
X188747D01*
X178511Y277819D02*
X188747D01*
X188447Y264804D02*
Y270709D01*
X178211Y264804D02*
Y270709D01*
Y264804D02*
X188447D01*
X178211Y270709D02*
X188447D01*
X192253Y395204D02*
Y401110D01*
X202490Y395204D02*
Y401110D01*
X192253D02*
X202490D01*
X192253Y395204D02*
X202490D01*
X192382Y385447D02*
Y391353D01*
X202618Y385447D02*
Y391353D01*
X192382D02*
X202618D01*
X192382Y385447D02*
X202618D01*
M02*
