G04 Layer_Color=16711935*
%FSLAX25Y25*%
%MOIN*%
G70*
G01*
G75*
%ADD70C,0.03600*%
%ADD71C,0.04337*%
%ADD72C,0.06305*%
%ADD73R,0.06305X0.06305*%
%ADD74C,0.02800*%
D70*
X267402Y314961D02*
D03*
X277402Y304961D02*
D03*
X287402Y314961D02*
D03*
D71*
X330000Y263800D02*
D03*
X322126D02*
D03*
X220472Y263779D02*
D03*
X212598D02*
D03*
D72*
X181102Y310709D02*
D03*
X171102D02*
D03*
X181102Y320709D02*
D03*
X171102D02*
D03*
X181102Y330709D02*
D03*
X171102D02*
D03*
X181102Y340709D02*
D03*
X171102D02*
D03*
X181102Y350709D02*
D03*
X171102D02*
D03*
X181102Y360709D02*
D03*
D73*
X171102D02*
D03*
D74*
X300550Y260443D02*
D03*
X302518Y248632D02*
D03*
X304487Y244695D02*
D03*
X302518Y256506D02*
D03*
X304487Y252569D02*
D03*
X300550D02*
D03*
Y244695D02*
D03*
X304487Y260443D02*
D03*
X226378Y291339D02*
D03*
X224410Y287402D02*
D03*
X222441Y291339D02*
D03*
X220473Y287402D02*
D03*
X218504Y291339D02*
D03*
X216536Y287402D02*
D03*
X214567Y291339D02*
D03*
X212598Y287402D02*
D03*
X210630Y291339D02*
D03*
X208662Y287402D02*
D03*
X206693Y291339D02*
D03*
X204725Y287402D02*
D03*
X346457Y385827D02*
D03*
X344488Y389764D02*
D03*
X342520Y385827D02*
D03*
X340551Y389764D02*
D03*
X338583Y385827D02*
D03*
X336614Y389764D02*
D03*
X334646Y385827D02*
D03*
X332677Y389764D02*
D03*
X330709Y385827D02*
D03*
X328740Y389764D02*
D03*
X326772Y385827D02*
D03*
X324803Y389764D02*
D03*
X322835Y385827D02*
D03*
X320866Y389764D02*
D03*
X318898Y385827D02*
D03*
X316929Y389764D02*
D03*
X314961Y385827D02*
D03*
X312992Y389764D02*
D03*
X311024Y385827D02*
D03*
X289300Y396400D02*
D03*
X200500Y382700D02*
D03*
X246900Y294900D02*
D03*
Y317400D02*
D03*
X315700Y302700D02*
D03*
X179700Y402800D02*
D03*
X235000Y357800D02*
D03*
X196400Y368800D02*
D03*
Y347300D02*
D03*
X209000Y331600D02*
D03*
X211700Y359500D02*
D03*
M02*
