G04 Layer_Physical_Order=1*
G04 Layer_Color=255*
%FSLAX25Y25*%
%MOIN*%
G70*
G01*
G75*
%ADD10R,0.01968X0.01968*%
%ADD11R,0.01772X0.01929*%
%ADD12R,0.02953X0.03740*%
%ADD13R,0.03740X0.02953*%
%ADD14R,0.03150X0.03543*%
%ADD15R,0.03740X0.03347*%
%ADD16R,0.03347X0.03740*%
%ADD17O,0.02362X0.05709*%
%ADD18R,0.03701X0.03307*%
%ADD19R,0.05905X0.06299*%
%ADD20R,0.04724X0.04724*%
%ADD21R,0.02362X0.03347*%
%ADD22R,0.08858X0.12402*%
%ADD23R,0.08858X0.03150*%
%ADD24O,0.06693X0.02362*%
%ADD25R,0.14567X0.14567*%
%ADD26O,0.03150X0.00984*%
%ADD27O,0.00984X0.03150*%
%ADD28R,0.03150X0.03150*%
%ADD29C,0.01000*%
%ADD30C,0.01600*%
%ADD31C,0.00800*%
%ADD32C,0.01200*%
%ADD33C,0.00600*%
%ADD34R,0.03543X0.19291*%
%ADD35R,0.01968X0.19291*%
%ADD36R,0.19685X0.01968*%
%ADD37R,0.01968X0.15512*%
%ADD38R,0.01968X0.10394*%
%ADD39R,0.07874X0.01968*%
%ADD40R,0.10630X0.01968*%
%ADD41C,0.03200*%
%ADD42C,0.03937*%
%ADD43C,0.05905*%
%ADD44R,0.05905X0.05905*%
%ADD45C,0.02400*%
G36*
X230100Y433693D02*
Y409400D01*
X279320D01*
Y408000D01*
X279510Y407541D01*
X279969Y407351D01*
X279978D01*
Y398765D01*
X272093Y390879D01*
X268283D01*
Y391431D01*
X268093Y391890D01*
X267633Y392080D01*
X263893D01*
X263434Y391890D01*
X263244Y391431D01*
Y390921D01*
X261278D01*
Y391670D01*
X261088Y392129D01*
X260628Y392319D01*
X257282D01*
X256823Y392129D01*
X256632Y391670D01*
Y387930D01*
X256823Y387471D01*
X257282Y387281D01*
X260628D01*
X261088Y387471D01*
X261278Y387930D01*
Y388678D01*
X263244D01*
Y388084D01*
X263434Y387625D01*
X263893Y387435D01*
X267633D01*
X268093Y387625D01*
X268283Y388084D01*
Y388636D01*
X272557D01*
X272557Y388636D01*
X272987Y388721D01*
X273351Y388964D01*
X281893Y397507D01*
X281893Y397507D01*
X282136Y397871D01*
X282222Y398300D01*
Y407468D01*
X282397Y407541D01*
X282587Y408000D01*
Y408104D01*
X282634Y408216D01*
Y409400D01*
X286800D01*
Y408000D01*
X286990Y407541D01*
X287450Y407351D01*
X288178D01*
Y396400D01*
X288264Y395971D01*
X288507Y395607D01*
X288871Y395364D01*
X289300Y395279D01*
X289729Y395364D01*
X290093Y395607D01*
X290336Y395971D01*
X290422Y396400D01*
Y407351D01*
X290993D01*
X291452Y407541D01*
X291642Y408000D01*
Y409400D01*
X295700D01*
X295900Y409600D01*
Y433200D01*
X354400D01*
Y236200D01*
X157400D01*
X156901Y433146D01*
X157254Y433500D01*
X229200D01*
X229600Y433900D01*
X230100Y433693D01*
D02*
G37*
%LPC*%
G36*
X163900Y419649D02*
X163441Y419459D01*
X159041Y415059D01*
X158851Y414600D01*
X158851Y400142D01*
X158851Y400142D01*
Y241753D01*
X159041Y241294D01*
X161893Y238442D01*
X162352Y238252D01*
X195901D01*
X196361Y238442D01*
X199959Y242041D01*
X200149Y242500D01*
Y273931D01*
X202322Y276104D01*
X226713D01*
X228351Y273619D01*
Y270140D01*
X228367Y270100D01*
X228356Y270059D01*
X228460Y269876D01*
X228541Y269681D01*
X228581Y269664D01*
X228602Y269627D01*
X231744Y267192D01*
X231947Y267136D01*
X232142Y267055D01*
X240077Y267055D01*
X243865Y264214D01*
Y254626D01*
X244055Y254166D01*
X244421Y253800D01*
Y252487D01*
X244612Y252027D01*
X245071Y251837D01*
X246384D01*
X246681Y251541D01*
X247140Y251351D01*
X261355Y251351D01*
X261571Y251440D01*
X261790Y251517D01*
X262362Y252032D01*
X264439D01*
X264742Y252158D01*
X265243Y251913D01*
X265249Y250368D01*
X263731Y248849D01*
X245024Y248849D01*
X244565Y248659D01*
X243241Y247335D01*
X243051Y246876D01*
Y242649D01*
X225869D01*
X224149Y244369D01*
X224149Y266700D01*
X224075Y266880D01*
X224034Y267070D01*
X223271Y268170D01*
X223220Y268203D01*
X223197Y268259D01*
X223017Y268334D01*
X222853Y268439D01*
X222794Y268426D01*
X222738Y268449D01*
X219100Y268449D01*
X219100Y268449D01*
X219100Y268449D01*
X218600Y268449D01*
X218363Y268352D01*
X218141Y268259D01*
X217141Y267259D01*
X216950Y266800D01*
X216951Y241085D01*
X217040Y240869D01*
X217119Y240649D01*
X219826Y237664D01*
X219841Y237656D01*
X219848Y237641D01*
X220064Y237551D01*
X220275Y237451D01*
X220291Y237457D01*
X220307Y237451D01*
X250715Y237451D01*
X250916Y237534D01*
X251125Y237596D01*
X252410Y238640D01*
X252426Y238671D01*
X252459Y238685D01*
X252542Y238885D01*
X252646Y239077D01*
X252636Y239111D01*
X252649Y239144D01*
Y240931D01*
X252669Y240951D01*
X265700Y240951D01*
X266159Y241141D01*
X270359Y245341D01*
X270549Y245800D01*
Y281800D01*
X270359Y282259D01*
X269900Y282449D01*
X266217D01*
X266082Y282394D01*
X265936Y282386D01*
X265519Y282186D01*
X265444Y282102D01*
X265341Y282059D01*
X265285Y281924D01*
X265187Y281816D01*
X265194Y281704D01*
X265151Y281600D01*
Y273000D01*
X265151Y272999D01*
X265151Y272997D01*
X265222Y256621D01*
X264723Y256363D01*
X264439Y256481D01*
X262737D01*
X261359Y257859D01*
X260900Y258049D01*
X251922D01*
X250049Y259923D01*
Y270400D01*
X249859Y270859D01*
X246559Y274159D01*
X246100Y274349D01*
X238669Y274349D01*
X236649Y276369D01*
Y290531D01*
X238369Y292251D01*
X320000Y292251D01*
X320200Y292333D01*
X320408Y292394D01*
X323508Y294895D01*
X323525Y294927D01*
X323559Y294941D01*
X323642Y295141D01*
X323746Y295331D01*
X323735Y295366D01*
X323749Y295400D01*
Y295700D01*
X323749Y295700D01*
Y306633D01*
X324249Y306785D01*
X324545Y306343D01*
X325134Y305949D01*
X325829Y305811D01*
X326524Y305949D01*
X327113Y306343D01*
X327507Y306932D01*
X327645Y307627D01*
Y310973D01*
X327507Y311668D01*
X327426Y311789D01*
X327650Y312354D01*
X327794Y312387D01*
X328251Y311931D01*
X328251Y306554D01*
X328441Y306094D01*
X328794Y305741D01*
X329254Y305551D01*
X329800Y305551D01*
X332146Y305551D01*
X332606Y305741D01*
X332959Y306094D01*
X333149Y306554D01*
Y312031D01*
X333769Y312651D01*
X334302D01*
X334474Y312151D01*
X334151Y311668D01*
X334013Y310973D01*
Y307627D01*
X334151Y306932D01*
X334545Y306343D01*
X334708Y306234D01*
Y299020D01*
X334524D01*
X334064Y298829D01*
X333874Y298370D01*
Y294630D01*
X334064Y294171D01*
X334524Y293981D01*
X335292D01*
Y291463D01*
X334740D01*
X334281Y291273D01*
X334091Y290813D01*
Y287073D01*
X334281Y286614D01*
X334740Y286424D01*
X338087D01*
X338546Y286614D01*
X338736Y287073D01*
Y290813D01*
X338546Y291273D01*
X338087Y291463D01*
X337535D01*
Y294005D01*
X337935Y294171D01*
X338126Y294630D01*
Y298370D01*
X337935Y298829D01*
X337476Y299020D01*
X336951D01*
Y306234D01*
X337113Y306343D01*
X337507Y306932D01*
X337645Y307627D01*
Y310973D01*
X337507Y311668D01*
X337319Y311950D01*
X337524Y312479D01*
X337826Y312544D01*
X338451Y312075D01*
Y305600D01*
X338641Y305141D01*
X339100Y304951D01*
X339708D01*
Y298965D01*
X339379Y298829D01*
X339189Y298370D01*
Y294630D01*
X339379Y294171D01*
X339839Y293981D01*
X342791D01*
X343250Y294171D01*
X343441Y294630D01*
Y298370D01*
X343250Y298829D01*
X342791Y299020D01*
X341951D01*
Y304951D01*
X342800D01*
X343259Y305141D01*
X343449Y305600D01*
X343449Y314928D01*
X343438Y314956D01*
X343447Y314984D01*
X343344Y315182D01*
X343259Y315387D01*
X343232Y315399D01*
X343218Y315425D01*
X341703Y316697D01*
X341491Y316764D01*
X341286Y316849D01*
X321500Y316849D01*
X321041Y316659D01*
X318541Y314159D01*
X318351Y313700D01*
X318351Y306200D01*
X318405Y306068D01*
X318448Y301067D01*
X315931Y298549D01*
X232400D01*
X231941Y298359D01*
X228541Y294959D01*
X228351Y294500D01*
Y290800D01*
Y286096D01*
X226615Y284303D01*
X197953Y284303D01*
X197494Y284113D01*
X193541Y280159D01*
X193351Y279700D01*
X193351Y247869D01*
X191684Y246203D01*
X178416Y246203D01*
X176750Y247869D01*
Y248623D01*
X177917D01*
Y248554D01*
X178107Y248095D01*
X178566Y247905D01*
X180338D01*
X180797Y248095D01*
X180987Y248554D01*
Y250483D01*
X180865Y250778D01*
X181114Y251278D01*
X182907D01*
X183157Y250778D01*
X183035Y250483D01*
Y248554D01*
X183225Y248095D01*
X183684Y247905D01*
X185456D01*
X185915Y248095D01*
X186105Y248554D01*
Y250483D01*
X185915Y250943D01*
X185692Y251035D01*
Y251830D01*
X185671Y251934D01*
X185868Y252201D01*
X186082Y252379D01*
X188000D01*
X188000Y252378D01*
X188429Y252464D01*
X188793Y252707D01*
X190793Y254707D01*
X190793Y254707D01*
X191036Y255071D01*
X191122Y255500D01*
X191122Y255500D01*
Y274000D01*
X191122Y274000D01*
X191036Y274429D01*
X190793Y274793D01*
X189926Y275660D01*
X189562Y275903D01*
X189133Y275988D01*
X189133Y275988D01*
X188412D01*
Y276737D01*
X188222Y277196D01*
X187763Y277386D01*
X187408D01*
Y278322D01*
X193793Y284707D01*
X193793Y284707D01*
X194036Y285071D01*
X194122Y285500D01*
X194122Y285500D01*
Y307134D01*
X194622Y307183D01*
X194664Y306971D01*
X194907Y306607D01*
X197307Y304207D01*
X197307Y304207D01*
X197671Y303964D01*
X198100Y303878D01*
X222000D01*
X222000Y303878D01*
X222429Y303964D01*
X222793Y304207D01*
X230121Y311535D01*
X230748D01*
X230856Y311373D01*
X231445Y310979D01*
X232140Y310841D01*
X236471D01*
X237166Y310979D01*
X237755Y311373D01*
X238149Y311962D01*
X238287Y312657D01*
X238149Y313352D01*
X238063Y313480D01*
X238330Y313980D01*
X240267D01*
Y311584D01*
X240458Y311125D01*
X240917Y310935D01*
X244657D01*
X245116Y311125D01*
X245306Y311584D01*
Y314931D01*
X245116Y315390D01*
X244657Y315580D01*
X242784D01*
X242667Y315729D01*
X242910Y316229D01*
X245517D01*
X245602Y316102D01*
X246198Y315704D01*
X246900Y315565D01*
X247602Y315704D01*
X248198Y316102D01*
X248378Y316373D01*
X248879Y316221D01*
Y305965D01*
X246692Y303778D01*
X237864D01*
X237755Y303941D01*
X237166Y304334D01*
X236471Y304473D01*
X232140D01*
X231445Y304334D01*
X230856Y303941D01*
X230462Y303352D01*
X230324Y302657D01*
X230462Y301962D01*
X230856Y301373D01*
X231445Y300979D01*
X232140Y300841D01*
X236471D01*
X237166Y300979D01*
X237755Y301373D01*
X237863Y301535D01*
X247157D01*
X247157Y301535D01*
X247586Y301620D01*
X247950Y301864D01*
X250793Y304707D01*
X250793Y304707D01*
X251036Y305071D01*
X251121Y305500D01*
Y309033D01*
X251559Y309190D01*
X251622Y309192D01*
X261407Y299407D01*
X261407Y299407D01*
X261771Y299164D01*
X262200Y299078D01*
X306700D01*
X306700Y299078D01*
X307129Y299164D01*
X307493Y299407D01*
X311622Y303536D01*
X311865Y303900D01*
X311951Y304329D01*
X311951Y304329D01*
Y306234D01*
X312113Y306343D01*
X312507Y306932D01*
X312645Y307627D01*
Y310973D01*
X312507Y311668D01*
X312113Y312257D01*
X311524Y312651D01*
X310829Y312789D01*
X310134Y312651D01*
X309545Y312257D01*
X309151Y311668D01*
X309013Y310973D01*
Y307627D01*
X309151Y306932D01*
X309545Y306343D01*
X309708Y306234D01*
Y304794D01*
X306235Y301322D01*
X274299D01*
X274263Y301416D01*
X274216Y301821D01*
X274493Y302007D01*
X275265Y302779D01*
X276074Y302039D01*
X276541Y301869D01*
X278529Y301955D01*
X278979Y302166D01*
X280324Y303633D01*
X280494Y304100D01*
X280407Y306088D01*
X280197Y306538D01*
X278730Y307883D01*
X278262Y308053D01*
X276274Y307966D01*
X275824Y307756D01*
X274480Y306289D01*
X274310Y305821D01*
X274344Y305030D01*
X273235Y303922D01*
X268450D01*
X266008Y306363D01*
Y308970D01*
X265817Y309429D01*
X265358Y309620D01*
X264797D01*
Y312587D01*
X265255Y312789D01*
X266074Y312039D01*
X266541Y311869D01*
X268529Y311955D01*
X268979Y312165D01*
X270324Y313633D01*
X270494Y314100D01*
X270407Y316088D01*
X270197Y316538D01*
X268730Y317883D01*
X268263Y318053D01*
X266274Y317966D01*
X265824Y317756D01*
X265263Y317144D01*
X264797Y317325D01*
Y320379D01*
X265250D01*
X265710Y320569D01*
X265900Y321028D01*
Y324572D01*
X265710Y325031D01*
X265250Y325221D01*
X264695D01*
Y327453D01*
X272522Y335280D01*
X317778D01*
X319464Y333594D01*
X319151Y333125D01*
X319013Y332430D01*
Y329083D01*
X319151Y328389D01*
X319545Y327799D01*
X320134Y327406D01*
X320829Y327268D01*
X321524Y327406D01*
X322113Y327799D01*
X322507Y328389D01*
X322645Y329083D01*
Y332430D01*
X322507Y333125D01*
X322113Y333714D01*
X321798Y333924D01*
X321771Y334061D01*
X321550Y334392D01*
X318921Y337021D01*
X318590Y337242D01*
X318200Y337320D01*
X272100D01*
X271710Y337242D01*
X271379Y337021D01*
X262955Y328597D01*
X262734Y328266D01*
X262656Y327876D01*
Y325221D01*
X262101D01*
X261642Y325031D01*
X261451Y324572D01*
Y321028D01*
X261642Y320569D01*
X262101Y320379D01*
X262554D01*
Y309620D01*
X262012D01*
X261553Y309429D01*
X261362Y308970D01*
Y305230D01*
X261553Y304771D01*
X262012Y304581D01*
X264618D01*
X267192Y302007D01*
X267192Y302007D01*
X267469Y301821D01*
X267422Y301416D01*
X267386Y301322D01*
X262665D01*
X253521Y310465D01*
Y322400D01*
X253522Y322400D01*
X253436Y322829D01*
X253193Y323193D01*
X247293Y329093D01*
X246929Y329336D01*
X246500Y329422D01*
X246500Y329421D01*
X230165D01*
X225211Y334375D01*
Y336653D01*
X225203Y336694D01*
Y337736D01*
X225194Y337780D01*
X225620Y338206D01*
X225664Y338197D01*
X227830D01*
X228256Y338282D01*
X228617Y338523D01*
X228859Y338884D01*
X228943Y339310D01*
X228859Y339737D01*
X228713Y339954D01*
X228652Y340295D01*
X228713Y340635D01*
X228859Y340853D01*
X228943Y341279D01*
X228874Y341626D01*
X228999Y341889D01*
X229179Y342126D01*
X232288D01*
X234017Y340397D01*
X234381Y340154D01*
X234810Y340069D01*
X234810Y340069D01*
X238410D01*
Y339517D01*
X238600Y339058D01*
X239059Y338867D01*
X242799D01*
X243258Y339058D01*
X243449Y339517D01*
Y342863D01*
X243258Y343323D01*
X242799Y343513D01*
X239059D01*
X238600Y343323D01*
X238410Y342863D01*
Y342312D01*
X235274D01*
X233839Y343747D01*
X233926Y344367D01*
X234009Y344423D01*
X238165Y348579D01*
X251430D01*
X251600Y348108D01*
X251410Y347648D01*
Y345441D01*
X250948Y345250D01*
X249574Y346624D01*
X249276Y346823D01*
X248925Y346893D01*
X248735D01*
X248727Y346934D01*
X248483Y347298D01*
X248120Y347541D01*
X247690Y347627D01*
X240929D01*
X240500Y347541D01*
X240136Y347298D01*
X239893Y346934D01*
X239808Y346505D01*
X239893Y346076D01*
X240136Y345712D01*
X240500Y345469D01*
X240929Y345384D01*
X247533D01*
X247571Y345326D01*
X247869Y345127D01*
X248220Y345058D01*
X248545D01*
X249370Y344232D01*
X249179Y343770D01*
X246350D01*
X245891Y343580D01*
X245701Y343121D01*
Y339774D01*
X245891Y339315D01*
X246350Y339125D01*
X250091D01*
X250550Y339315D01*
X250740Y339774D01*
Y342209D01*
X251202Y342400D01*
X252803Y340799D01*
X253101Y340600D01*
X253268Y340567D01*
X253500Y340411D01*
X253929Y340326D01*
X260307D01*
X260636Y339997D01*
X261000Y339754D01*
X261429Y339669D01*
X261858Y339754D01*
X262222Y339997D01*
X262465Y340361D01*
X262551Y340790D01*
X262465Y341219D01*
X262222Y341583D01*
X261565Y342241D01*
X261201Y342484D01*
X260772Y342569D01*
X260772Y342569D01*
X253929D01*
X253678Y342519D01*
X253007Y343191D01*
X253199Y343653D01*
X255799D01*
X256258Y343843D01*
X256449Y344302D01*
Y347648D01*
X256258Y348108D01*
X256428Y348579D01*
X257135D01*
X258910Y346804D01*
Y344432D01*
X259100Y343973D01*
X259559Y343782D01*
X263299D01*
X263758Y343973D01*
X263949Y344432D01*
Y347778D01*
X263758Y348238D01*
X263299Y348428D01*
X260458D01*
X258393Y350493D01*
X258029Y350736D01*
X257600Y350822D01*
X257600Y350821D01*
X237700D01*
X237700Y350822D01*
X237644Y350811D01*
X237285Y351249D01*
X237365Y351443D01*
Y355183D01*
X237175Y355643D01*
X236716Y355833D01*
X236427D01*
Y356696D01*
X236696Y357098D01*
X236835Y357800D01*
X236696Y358502D01*
X236298Y359098D01*
X235702Y359496D01*
X235000Y359635D01*
X234298Y359496D01*
X233702Y359098D01*
X233304Y358502D01*
X233165Y357800D01*
X233304Y357098D01*
X233573Y356696D01*
Y355905D01*
X233377Y355833D01*
X233369D01*
X233301Y355804D01*
X233113Y355735D01*
X232622Y356007D01*
Y360393D01*
X234609Y362381D01*
X237019D01*
X237478Y362571D01*
X237668Y363030D01*
Y366770D01*
X237478Y367229D01*
X237019Y367420D01*
X234066D01*
X233607Y367229D01*
X233417Y366770D01*
Y364360D01*
X230707Y361650D01*
X230464Y361286D01*
X230378Y360857D01*
X230379Y360857D01*
Y354465D01*
X229379Y353465D01*
X229174Y353485D01*
X228804Y353597D01*
X228617Y353877D01*
X228256Y354119D01*
X227830Y354203D01*
X225664D01*
X225620Y354194D01*
X225194Y354620D01*
X225203Y354665D01*
Y356830D01*
X225118Y357256D01*
X224877Y357617D01*
X224516Y357859D01*
X224090Y357944D01*
X223664Y357859D01*
X223641Y357844D01*
X223141Y358111D01*
Y368799D01*
X242822Y388480D01*
X244332D01*
Y388106D01*
X244523Y387647D01*
X244982Y387457D01*
X248682D01*
X249142Y387647D01*
X249332Y388106D01*
Y388780D01*
X251318D01*
Y387930D01*
X251508Y387471D01*
X251967Y387281D01*
X255313D01*
X255773Y387471D01*
X255963Y387930D01*
Y391670D01*
X255773Y392129D01*
X255313Y392319D01*
X251967D01*
X251508Y392129D01*
X251318Y391670D01*
Y390820D01*
X249332D01*
Y391413D01*
X249142Y391873D01*
X248682Y392063D01*
X244982D01*
X244523Y391873D01*
X244332Y391413D01*
Y390520D01*
X242400D01*
X242010Y390442D01*
X241679Y390221D01*
X221400Y369942D01*
X221252Y369720D01*
X220752Y369831D01*
Y370430D01*
X220562Y370889D01*
X220103Y371079D01*
X216362D01*
X215949Y370908D01*
X215449Y371089D01*
Y371800D01*
X215259Y372259D01*
X215045Y372348D01*
X215144Y372848D01*
X218232D01*
X218701Y372941D01*
X219098Y373206D01*
X219363Y373603D01*
X219456Y374072D01*
X219363Y374540D01*
X219098Y374937D01*
X218701Y375202D01*
X218232Y375295D01*
X211608D01*
X211597Y375302D01*
X211129Y375395D01*
X210661Y375302D01*
X210264Y375037D01*
X209999Y374640D01*
X209906Y374172D01*
X209999Y373703D01*
X210264Y373306D01*
X210364Y373206D01*
X210761Y372941D01*
X210670Y372449D01*
X168569D01*
X166949Y375138D01*
X166949Y400453D01*
X166949Y400453D01*
Y410431D01*
X169769Y413251D01*
X194431Y413251D01*
X196851Y410831D01*
Y409481D01*
X196351Y409381D01*
X196307Y409486D01*
X195848Y409676D01*
X192895D01*
X192436Y409486D01*
X192246Y409027D01*
Y408278D01*
X188749D01*
Y408732D01*
X188559Y409191D01*
X188100Y409381D01*
X184950D01*
X184491Y409191D01*
X184301Y408732D01*
Y405582D01*
X184491Y405123D01*
X184950Y404932D01*
X188100D01*
X188559Y405123D01*
X188749Y405582D01*
Y406035D01*
X192246D01*
Y405287D01*
X192436Y404827D01*
X192895Y404637D01*
X195848D01*
X196307Y404827D01*
X196351Y404932D01*
X196851Y404832D01*
X196851Y400939D01*
X196351Y400610D01*
X196191Y400676D01*
X193238D01*
X192779Y400486D01*
X192588Y400027D01*
Y399278D01*
X188749D01*
Y399731D01*
X188559Y400191D01*
X188100Y400381D01*
X184950D01*
X184491Y400191D01*
X184301Y399731D01*
Y396582D01*
X184491Y396123D01*
X184950Y395933D01*
X188100D01*
X188559Y396123D01*
X188749Y396582D01*
Y397035D01*
X192588D01*
Y396287D01*
X192779Y395827D01*
X193238Y395637D01*
X196191D01*
X196351Y395703D01*
X196851Y395375D01*
Y394900D01*
X197041Y394441D01*
X197500Y394251D01*
X202000D01*
X202459Y394441D01*
X202649Y394900D01*
X202649Y415400D01*
X202459Y415859D01*
X198859Y419459D01*
X198400Y419649D01*
X163900Y419649D01*
D02*
G37*
G36*
X181604Y409381D02*
X178454D01*
X177995Y409191D01*
X177805Y408732D01*
Y405582D01*
X177995Y405123D01*
X178454Y404932D01*
X178908D01*
Y404435D01*
X178402Y404098D01*
X178004Y403502D01*
X177865Y402800D01*
X178004Y402098D01*
X178402Y401502D01*
X178998Y401104D01*
X179700Y400965D01*
X180402Y401104D01*
X180998Y401502D01*
X181396Y402098D01*
X181535Y402800D01*
X181396Y403502D01*
X181151Y403869D01*
Y404932D01*
X181604D01*
X182063Y405123D01*
X182253Y405582D01*
Y408732D01*
X182063Y409191D01*
X181604Y409381D01*
D02*
G37*
G36*
X196319Y390919D02*
X193366D01*
X192907Y390729D01*
X192717Y390270D01*
Y389522D01*
X189253D01*
Y389732D01*
X189063Y390191D01*
X188604Y390381D01*
X185454D01*
X184995Y390191D01*
X184805Y389732D01*
Y386582D01*
X184995Y386123D01*
X185454Y385932D01*
X188604D01*
X189063Y386123D01*
X189253Y386582D01*
Y387279D01*
X192717D01*
Y386530D01*
X192907Y386071D01*
X193366Y385880D01*
X196319D01*
X196778Y386071D01*
X196968Y386530D01*
Y390270D01*
X196778Y390729D01*
X196319Y390919D01*
D02*
G37*
G36*
X180029Y389782D02*
X179600Y389697D01*
X179236Y389454D01*
X178993Y389090D01*
X178908Y388660D01*
X178993Y388231D01*
X179236Y387867D01*
X179740Y387364D01*
X180104Y387120D01*
X180533Y387035D01*
X180962Y387120D01*
X181326Y387364D01*
X181569Y387727D01*
X181655Y388157D01*
X181569Y388586D01*
X181326Y388950D01*
X180822Y389454D01*
X180458Y389697D01*
X180029Y389782D01*
D02*
G37*
G36*
X201634Y390919D02*
X198681D01*
X198222Y390729D01*
X198032Y390270D01*
Y386530D01*
X198222Y386071D01*
X198681Y385880D01*
X199036D01*
Y383749D01*
X198804Y383402D01*
X198665Y382700D01*
X198804Y381998D01*
X199202Y381402D01*
X199798Y381004D01*
X200500Y380865D01*
X201202Y381004D01*
X201798Y381402D01*
X202196Y381998D01*
X202335Y382700D01*
X202196Y383402D01*
X201798Y383998D01*
X201279Y384344D01*
Y385880D01*
X201634D01*
X202093Y386071D01*
X202283Y386530D01*
Y390270D01*
X202093Y390729D01*
X201634Y390919D01*
D02*
G37*
G36*
X342800Y374522D02*
X342800Y374521D01*
X308600D01*
X308600Y374522D01*
X308171Y374436D01*
X307807Y374193D01*
X307807Y374193D01*
X305107Y371493D01*
X304864Y371129D01*
X304778Y370700D01*
X304779Y370700D01*
Y360665D01*
X301236Y357122D01*
X294311D01*
Y359150D01*
X294121Y359609D01*
X293661Y359799D01*
X287756D01*
X287297Y359609D01*
X287106Y359150D01*
Y352850D01*
X286953Y352622D01*
X280925D01*
Y354425D01*
X280735Y354884D01*
X280276Y355075D01*
X275551D01*
X275092Y354884D01*
X274902Y354425D01*
Y349701D01*
X275092Y349242D01*
X275551Y349051D01*
X280276D01*
X280735Y349242D01*
X280925Y349701D01*
Y350378D01*
X301300D01*
X301300Y350378D01*
X301729Y350464D01*
X302093Y350707D01*
X309793Y358407D01*
X309793Y358407D01*
X310036Y358771D01*
X310121Y359200D01*
Y368835D01*
X310765Y369479D01*
X320741D01*
X320840Y368979D01*
X320720Y368929D01*
X320529Y368469D01*
Y367937D01*
X316020D01*
Y368134D01*
X315829Y368593D01*
X315370Y368783D01*
X311630D01*
X311171Y368593D01*
X310981Y368134D01*
Y365181D01*
X311171Y364722D01*
X311630Y364532D01*
X315370D01*
X315829Y364722D01*
X316020Y365181D01*
Y365694D01*
X320529D01*
Y365162D01*
X320720Y364703D01*
X320763Y364685D01*
Y364144D01*
X320720Y364125D01*
X320529Y363666D01*
Y360359D01*
X320720Y359900D01*
X321179Y359710D01*
X321908D01*
Y354176D01*
X321298D01*
X320839Y353986D01*
X320649Y353527D01*
Y349787D01*
X320839Y349327D01*
X321298Y349137D01*
X322179D01*
Y344421D01*
X321725D01*
X321266Y344231D01*
X321076Y343772D01*
Y340228D01*
X321266Y339769D01*
X321725Y339579D01*
X322179D01*
Y337300D01*
X322178Y337300D01*
X322264Y336871D01*
X322507Y336507D01*
X324708Y334306D01*
Y333823D01*
X324545Y333714D01*
X324151Y333125D01*
X324013Y332430D01*
Y329083D01*
X324151Y328389D01*
X324545Y327799D01*
X325134Y327406D01*
X325829Y327268D01*
X326524Y327406D01*
X327113Y327799D01*
X327507Y328389D01*
X327645Y329083D01*
Y332430D01*
X327507Y333125D01*
X327113Y333714D01*
X326951Y333823D01*
Y334771D01*
X326865Y335200D01*
X326622Y335564D01*
X326622Y335564D01*
X324422Y337765D01*
Y339579D01*
X324875D01*
X325334Y339769D01*
X325392Y339908D01*
X325933D01*
X325990Y339769D01*
X326450Y339579D01*
X326508D01*
Y337371D01*
X326508Y337371D01*
X326593Y336942D01*
X326836Y336578D01*
X329559Y333855D01*
X329545Y333714D01*
X329151Y333125D01*
X329013Y332430D01*
Y329083D01*
X329151Y328389D01*
X329545Y327799D01*
X329708Y327691D01*
Y324871D01*
X329708Y324871D01*
X329793Y324442D01*
X330036Y324078D01*
X330407Y323707D01*
X330771Y323464D01*
X331200Y323378D01*
X331200Y323378D01*
X341900D01*
X341900Y323378D01*
X342329Y323464D01*
X342693Y323707D01*
X347093Y328107D01*
X347336Y328471D01*
X347422Y328900D01*
X347422Y328900D01*
Y369900D01*
X347422Y369900D01*
X347336Y370329D01*
X347093Y370693D01*
X347093Y370693D01*
X343593Y374193D01*
X343229Y374436D01*
X342800Y374522D01*
D02*
G37*
G36*
X279519Y373020D02*
X276566D01*
X276107Y372829D01*
X275917Y372370D01*
Y368630D01*
X276107Y368171D01*
X276566Y367981D01*
X276792D01*
Y362949D01*
X275551D01*
X275092Y362758D01*
X274902Y362299D01*
Y357575D01*
X275092Y357116D01*
X275551Y356925D01*
X280276D01*
X280735Y357116D01*
X280925Y357575D01*
Y362299D01*
X280735Y362758D01*
X280276Y362949D01*
X279035D01*
Y367981D01*
X279519D01*
X279978Y368171D01*
X280168Y368630D01*
Y372370D01*
X279978Y372829D01*
X279519Y373020D01*
D02*
G37*
G36*
X315829Y334246D02*
X315134Y334108D01*
X314545Y333714D01*
X314151Y333125D01*
X314013Y332430D01*
Y329083D01*
X314151Y328389D01*
X314545Y327799D01*
X314810Y327623D01*
Y323652D01*
X307138Y315980D01*
X290411D01*
X290407Y316088D01*
X290197Y316538D01*
X288730Y317883D01*
X288263Y318053D01*
X286275Y317966D01*
X286075Y317873D01*
X285341Y318607D01*
X284977Y318850D01*
X284548Y318936D01*
X284548Y318936D01*
X282449D01*
Y319487D01*
X282258Y319947D01*
X281799Y320137D01*
X278059D01*
X277600Y319947D01*
X277410Y319487D01*
Y316141D01*
X277600Y315682D01*
X278059Y315492D01*
X281799D01*
X282258Y315682D01*
X282449Y316141D01*
Y316693D01*
X284083D01*
X284483Y316293D01*
X284480Y316289D01*
X284310Y315822D01*
X284396Y313833D01*
X284606Y313383D01*
X286074Y312039D01*
X286541Y311869D01*
X288529Y311955D01*
X288979Y312165D01*
X290324Y313633D01*
X290436Y313941D01*
X307561D01*
X307951Y314019D01*
X308282Y314240D01*
X316550Y322508D01*
X316771Y322839D01*
X316849Y323229D01*
Y327623D01*
X317113Y327799D01*
X317507Y328389D01*
X317645Y329083D01*
Y332430D01*
X317507Y333125D01*
X317113Y333714D01*
X316524Y334108D01*
X315829Y334246D01*
D02*
G37*
G36*
X244657Y310265D02*
X240917D01*
X240458Y310075D01*
X240267Y309616D01*
Y308676D01*
X237932D01*
X237755Y308941D01*
X237166Y309334D01*
X236471Y309473D01*
X232140D01*
X231445Y309334D01*
X230856Y308941D01*
X230462Y308352D01*
X230324Y307657D01*
X230462Y306962D01*
X230856Y306373D01*
X231445Y305979D01*
X232140Y305841D01*
X236471D01*
X237166Y305979D01*
X237755Y306373D01*
X237932Y306637D01*
X240267D01*
Y306269D01*
X240458Y305810D01*
X240917Y305620D01*
X244657D01*
X245116Y305810D01*
X245306Y306269D01*
Y309616D01*
X245116Y310075D01*
X244657Y310265D01*
D02*
G37*
G36*
X315829Y312789D02*
X315134Y312651D01*
X314545Y312257D01*
X314151Y311668D01*
X314013Y310973D01*
Y307627D01*
X314151Y306932D01*
X314545Y306343D01*
X314708Y306234D01*
Y304202D01*
X314402Y303998D01*
X314004Y303402D01*
X313865Y302700D01*
X314004Y301998D01*
X314402Y301402D01*
X314998Y301004D01*
X315700Y300865D01*
X316402Y301004D01*
X316998Y301402D01*
X317396Y301998D01*
X317535Y302700D01*
X317396Y303402D01*
X316998Y303998D01*
X316951Y304029D01*
Y306234D01*
X317113Y306343D01*
X317507Y306932D01*
X317645Y307627D01*
Y310973D01*
X317507Y311668D01*
X317113Y312257D01*
X316524Y312651D01*
X315829Y312789D01*
D02*
G37*
G36*
X261107Y291262D02*
X258745D01*
X258286Y291072D01*
X258095Y290613D01*
Y290061D01*
X250229D01*
X250228Y290061D01*
X249799Y289976D01*
X249435Y289733D01*
X249435Y289732D01*
X248206Y288503D01*
X245796D01*
X245337Y288313D01*
X245147Y287854D01*
Y284901D01*
X245337Y284442D01*
X245796Y284251D01*
X249536D01*
X249995Y284442D01*
X250186Y284901D01*
Y287311D01*
X250693Y287818D01*
X258095D01*
Y287266D01*
X258286Y286807D01*
X258745Y286617D01*
X261107D01*
X261566Y286807D01*
X261756Y287266D01*
Y290613D01*
X261566Y291072D01*
X261107Y291262D01*
D02*
G37*
G36*
Y281223D02*
X258745D01*
X258286Y281032D01*
X258095Y280573D01*
Y277227D01*
X258286Y276767D01*
X258745Y276577D01*
X261107D01*
X261566Y276767D01*
X261756Y277227D01*
Y280573D01*
X261566Y281032D01*
X261107Y281223D01*
D02*
G37*
G36*
X313900Y291649D02*
X264500D01*
X264041Y291459D01*
X263851Y291000D01*
Y286400D01*
X263900Y286281D01*
Y286152D01*
X263983Y285951D01*
X264074Y285860D01*
X264124Y285741D01*
X264243Y285691D01*
X264334Y285600D01*
X264463D01*
X264583Y285551D01*
X274731D01*
X277341Y282941D01*
X277800Y282751D01*
X278291D01*
X278411Y282800D01*
X278540D01*
X278625Y282835D01*
X282107D01*
X282193Y282800D01*
X282322D01*
X282441Y282751D01*
X312634D01*
X326451Y268934D01*
Y259300D01*
X326641Y258841D01*
X327100Y258651D01*
X333300Y258651D01*
X333759Y258841D01*
X333949Y259300D01*
Y271600D01*
X333759Y272059D01*
X314359Y291459D01*
X313900Y291649D01*
D02*
G37*
G36*
X287077Y261107D02*
X278219D01*
X277760Y260917D01*
X277570Y260457D01*
Y248056D01*
X277760Y247597D01*
X278219Y247407D01*
X287077D01*
X287536Y247597D01*
X287727Y248056D01*
Y260457D01*
X287536Y260917D01*
X287077Y261107D01*
D02*
G37*
%LPD*%
G36*
X198400Y419000D02*
X202000Y415400D01*
X202000Y394900D01*
X197500D01*
X197500Y411100D01*
X194700Y413900D01*
X169500Y413900D01*
X166300Y410700D01*
Y400453D01*
X166300D01*
X166300Y374957D01*
X168104Y371964D01*
X168006Y371800D01*
X214800D01*
Y369932D01*
X211680D01*
X211597Y369987D01*
X211129Y370080D01*
X210661Y369987D01*
X210264Y369722D01*
X209999Y369325D01*
X209906Y368857D01*
X209999Y368388D01*
X210264Y367991D01*
X210412Y367843D01*
X210809Y367578D01*
X211277Y367485D01*
X214214D01*
X214445Y367075D01*
X214341Y366900D01*
X206600D01*
X175200Y366973D01*
Y357700D01*
X175000Y357500D01*
X166300D01*
Y272725D01*
X168395Y269900D01*
X179550D01*
Y265900D01*
X168400D01*
X166300Y263800D01*
X166300Y253350D01*
X167497Y251853D01*
X175047Y251853D01*
X176100Y250800D01*
X176100Y247600D01*
X178147Y245553D01*
X191953Y245553D01*
X194000Y247600D01*
X194000Y279700D01*
X197953Y283653D01*
X226890Y283653D01*
X229000Y285833D01*
Y290800D01*
Y294500D01*
X232400Y297900D01*
X316200D01*
X319100Y300800D01*
X319054Y306200D01*
X319000D01*
X319000Y313700D01*
X321500Y316200D01*
X341286Y316200D01*
X342800Y314928D01*
X342800Y305600D01*
X341951D01*
Y309300D01*
X341865Y309729D01*
X341622Y310093D01*
X341258Y310336D01*
X340829Y310421D01*
X340400Y310336D01*
X340036Y310093D01*
X339793Y309729D01*
X339708Y309300D01*
Y305600D01*
X339100D01*
Y312400D01*
X337900Y313300D01*
X333500Y313300D01*
X332500Y312300D01*
Y306554D01*
X332146Y306200D01*
X329800Y306200D01*
X329254Y306200D01*
X328900Y306554D01*
X328900Y312200D01*
X327800Y313300D01*
X324300D01*
X323100Y312400D01*
Y307900D01*
Y306200D01*
Y295700D01*
X323100Y295700D01*
Y295400D01*
X320000Y292900D01*
X238100Y292900D01*
X236000Y290800D01*
Y276100D01*
X238400Y273700D01*
X246100Y273700D01*
X249400Y270400D01*
Y259653D01*
X251654Y257400D01*
X260900D01*
X262300Y256000D01*
X262300Y252850D01*
X261355Y252000D01*
X247140Y252000D01*
X244514Y254626D01*
Y264539D01*
X240294Y267705D01*
X232142Y267705D01*
X229000Y270140D01*
Y273814D01*
X227063Y276753D01*
X202053D01*
X199500Y274200D01*
Y242500D01*
X195901Y238901D01*
X162352D01*
X159500Y241753D01*
Y400142D01*
X159500D01*
X159500Y414600D01*
X163900Y419000D01*
X198400Y419000D01*
D02*
G37*
G36*
X215691Y367093D02*
X215728Y367046D01*
X215903Y366624D01*
X216362Y366434D01*
X217063D01*
Y360600D01*
X217063Y360600D01*
X217063Y360600D01*
Y358179D01*
X216826Y357999D01*
X216563Y357874D01*
X216216Y357944D01*
X215790Y357859D01*
X215767Y357844D01*
X215267Y358111D01*
Y359953D01*
X215189Y360343D01*
X214968Y360674D01*
X212921Y362721D01*
X212590Y362942D01*
X212200Y363020D01*
X192394D01*
X192004Y362942D01*
X191673Y362721D01*
X182802Y353850D01*
X182030Y354170D01*
X181102Y354292D01*
X180175Y354170D01*
X179311Y353812D01*
X178569Y353242D01*
X177999Y352500D01*
X177641Y351636D01*
X177519Y350709D01*
X177641Y349781D01*
X177999Y348917D01*
X178569Y348175D01*
X179162Y347720D01*
X178992Y347220D01*
X177000D01*
X176610Y347142D01*
X176279Y346921D01*
X173050Y343692D01*
X172894Y343812D01*
X172030Y344170D01*
X171102Y344292D01*
X170175Y344170D01*
X169311Y343812D01*
X168569Y343243D01*
X167999Y342500D01*
X167641Y341636D01*
X167519Y340709D01*
X167641Y339781D01*
X167999Y338917D01*
X168569Y338175D01*
X169311Y337605D01*
X170175Y337247D01*
X171102Y337125D01*
X172030Y337247D01*
X172894Y337605D01*
X173636Y338175D01*
X174206Y338917D01*
X174564Y339781D01*
X174686Y340709D01*
X174564Y341636D01*
X174363Y342121D01*
X177422Y345180D01*
X183700D01*
X184090Y345258D01*
X184421Y345479D01*
X193670Y354728D01*
X208607D01*
X208617Y354703D01*
X208283Y354203D01*
X207693D01*
X207653Y354211D01*
X195590D01*
X195590Y354211D01*
X195161Y354126D01*
X194797Y353883D01*
X194797Y353883D01*
X186207Y345293D01*
X185964Y344929D01*
X185878Y344500D01*
X185878Y344500D01*
Y337965D01*
X184035Y336122D01*
X175394D01*
X175394Y336122D01*
X174965Y336036D01*
X174601Y335793D01*
X174601Y335793D01*
X172700Y333892D01*
X172030Y334170D01*
X171102Y334292D01*
X170175Y334170D01*
X169311Y333812D01*
X168569Y333243D01*
X167999Y332500D01*
X167641Y331636D01*
X167519Y330709D01*
X167641Y329781D01*
X167999Y328917D01*
X168569Y328175D01*
X169311Y327605D01*
X170175Y327247D01*
X171102Y327125D01*
X172030Y327247D01*
X172894Y327605D01*
X173636Y328175D01*
X174206Y328917D01*
X174564Y329781D01*
X174686Y330709D01*
X174564Y331636D01*
X174286Y332306D01*
X175858Y333878D01*
X178576D01*
X178746Y333379D01*
X178569Y333243D01*
X177999Y332500D01*
X177641Y331636D01*
X177519Y330709D01*
X177641Y329781D01*
X177999Y328917D01*
X178569Y328175D01*
X179311Y327605D01*
X180175Y327247D01*
X181102Y327125D01*
X182030Y327247D01*
X182894Y327605D01*
X183636Y328175D01*
X184206Y328917D01*
X184483Y329587D01*
X186208D01*
X186209Y329587D01*
X186638Y329672D01*
X187002Y329915D01*
X190093Y333007D01*
X190336Y333371D01*
X190422Y333800D01*
X190422Y333800D01*
Y343335D01*
X194110Y347024D01*
X194652Y346859D01*
X194704Y346598D01*
X195102Y346002D01*
X195698Y345604D01*
X196209Y345503D01*
X196409Y344996D01*
X191607Y340193D01*
X191364Y339829D01*
X191278Y339400D01*
X191278Y339400D01*
Y329865D01*
X187535Y326121D01*
X175394D01*
X175394Y326122D01*
X174965Y326036D01*
X174601Y325793D01*
X174601Y325793D01*
X172700Y323892D01*
X172030Y324170D01*
X171102Y324292D01*
X170175Y324170D01*
X169311Y323812D01*
X168569Y323242D01*
X167999Y322500D01*
X167641Y321636D01*
X167519Y320709D01*
X167641Y319781D01*
X167999Y318917D01*
X168569Y318175D01*
X169311Y317605D01*
X170175Y317247D01*
X171102Y317125D01*
X172030Y317247D01*
X172894Y317605D01*
X173636Y318175D01*
X174206Y318917D01*
X174564Y319781D01*
X174686Y320709D01*
X174564Y321636D01*
X174286Y322306D01*
X175858Y323879D01*
X178576D01*
X178746Y323378D01*
X178569Y323242D01*
X177999Y322500D01*
X177641Y321636D01*
X177519Y320709D01*
X177641Y319781D01*
X177999Y318917D01*
X178569Y318175D01*
X179311Y317605D01*
X180175Y317247D01*
X181102Y317125D01*
X182030Y317247D01*
X182894Y317605D01*
X183636Y318175D01*
X184206Y318917D01*
X184483Y319587D01*
X186294D01*
X186501Y319087D01*
X183535Y316122D01*
X175394D01*
X175394Y316122D01*
X174965Y316036D01*
X174601Y315793D01*
X174601Y315793D01*
X172700Y313892D01*
X172030Y314170D01*
X171102Y314292D01*
X170175Y314170D01*
X169311Y313812D01*
X168569Y313243D01*
X167999Y312500D01*
X167641Y311636D01*
X167519Y310709D01*
X167641Y309781D01*
X167999Y308917D01*
X168569Y308175D01*
X169311Y307605D01*
X170175Y307247D01*
X171102Y307125D01*
X172030Y307247D01*
X172894Y307605D01*
X173636Y308175D01*
X174206Y308917D01*
X174564Y309781D01*
X174686Y310709D01*
X174564Y311636D01*
X174286Y312306D01*
X175858Y313878D01*
X184000D01*
X184000Y313878D01*
X184429Y313964D01*
X184793Y314207D01*
X189082Y318496D01*
X189582Y318289D01*
Y286880D01*
X182851Y280149D01*
X182652Y279851D01*
X182582Y279500D01*
Y277476D01*
X182448Y277386D01*
X179495D01*
X179036Y277196D01*
X178846Y276737D01*
Y272997D01*
X179036Y272537D01*
X179495Y272347D01*
X179550D01*
Y270549D01*
X168722D01*
X166949Y272940D01*
Y356851D01*
X175000D01*
X175459Y357041D01*
X175659Y357241D01*
X175849Y357700D01*
Y365968D01*
X176203Y366321D01*
X206598Y366251D01*
X206599Y366251D01*
X206600Y366251D01*
X214341D01*
X214418Y366283D01*
X214500Y366270D01*
X214640Y366374D01*
X214800Y366441D01*
X214832Y366518D01*
X214899Y366568D01*
X215003Y366743D01*
X215016Y366831D01*
X215071Y366901D01*
X215233Y367020D01*
X215659Y367109D01*
X215691Y367093D01*
D02*
G37*
G36*
X210190Y360480D02*
X210004Y360202D01*
X209865Y359500D01*
X210004Y358798D01*
X210253Y358426D01*
X210039Y357890D01*
X209884Y357859D01*
X209523Y357617D01*
X209281Y357256D01*
X209197Y356830D01*
Y356767D01*
X193247D01*
X192857Y356689D01*
X192526Y356468D01*
X184378Y348319D01*
X184001Y348650D01*
X184206Y348917D01*
X184564Y349781D01*
X184686Y350709D01*
X184564Y351636D01*
X184244Y352408D01*
X192816Y360980D01*
X209923D01*
X210190Y360480D01*
D02*
G37*
G36*
X209206Y337780D02*
X209197Y337736D01*
Y337146D01*
X209180Y337121D01*
X209087Y336653D01*
Y333506D01*
X209000Y333435D01*
X208298Y333296D01*
X207702Y332898D01*
X207304Y332302D01*
X207165Y331600D01*
X207304Y330898D01*
X207702Y330302D01*
X208298Y329904D01*
X209000Y329765D01*
X209702Y329904D01*
X210298Y330302D01*
X210391Y330441D01*
X211060Y330543D01*
X211157Y330465D01*
Y324243D01*
X211035Y324121D01*
X201500D01*
X201500Y324122D01*
X201394Y324100D01*
X201147Y324561D01*
X201793Y325207D01*
X201793Y325207D01*
X202036Y325571D01*
X202122Y326000D01*
X202122Y326000D01*
Y335035D01*
X205275Y338189D01*
X207653D01*
X207693Y338197D01*
X208735D01*
X208780Y338206D01*
X209206Y337780D01*
D02*
G37*
G36*
X228207Y325207D02*
X228207Y325207D01*
X228571Y324964D01*
X229000Y324879D01*
X245035D01*
X248879Y321035D01*
Y318579D01*
X248378Y318427D01*
X248198Y318698D01*
X247602Y319096D01*
X246900Y319235D01*
X246198Y319096D01*
X246180Y319084D01*
X237541D01*
X237166Y319335D01*
X236471Y319473D01*
X232140D01*
X231445Y319335D01*
X230856Y318941D01*
X230462Y318352D01*
X230324Y317657D01*
X230462Y316962D01*
X230758Y316520D01*
X230553Y316020D01*
X228954D01*
X228929Y316036D01*
X228500Y316122D01*
X228071Y316036D01*
X227707Y315793D01*
X223035Y311122D01*
X216141D01*
X216086Y311620D01*
X216450Y311863D01*
X220946Y316359D01*
X220946Y316359D01*
X221189Y316723D01*
X221274Y317153D01*
Y331433D01*
X221774Y331640D01*
X228207Y325207D01*
D02*
G37*
G36*
X269758Y316059D02*
X269845Y314071D01*
X268500Y312604D01*
X266512Y312517D01*
X265045Y313862D01*
X264958Y315850D01*
X266303Y317317D01*
X268291Y317404D01*
X269758Y316059D01*
D02*
G37*
G36*
X223853Y308439D02*
X221535Y306121D01*
X210236D01*
X209969Y306622D01*
X210196Y306962D01*
X210334Y307657D01*
X210196Y308352D01*
X210139Y308437D01*
X210374Y308878D01*
X223500D01*
X223500Y308878D01*
X223606Y308900D01*
X223853Y308439D01*
D02*
G37*
G36*
X279758Y306059D02*
X279845Y304071D01*
X278500Y302604D01*
X276512Y302517D01*
X275045Y303862D01*
X274958Y305850D01*
X276303Y307317D01*
X278291Y307404D01*
X279758Y306059D01*
D02*
G37*
G36*
X179195Y265237D02*
X179550D01*
Y264329D01*
X179550Y264328D01*
X179635Y263899D01*
X179878Y263535D01*
X180889Y262524D01*
Y258673D01*
X180666Y258580D01*
X180476Y258121D01*
Y256192D01*
X180666Y255733D01*
X181125Y255543D01*
X182897D01*
X182949Y255564D01*
X183449Y255230D01*
Y254930D01*
X183449Y254930D01*
X183534Y254501D01*
X183777Y254137D01*
X183892Y254022D01*
X183685Y253521D01*
X180200D01*
X179771Y253436D01*
X179407Y253193D01*
X179407Y253193D01*
X178659Y252445D01*
X178416Y252081D01*
X178330Y251652D01*
X178330Y251652D01*
Y251035D01*
X178107Y250943D01*
X177991Y250662D01*
X176750D01*
Y250800D01*
X176638Y251069D01*
X176559Y251259D01*
X175506Y252312D01*
X175047Y252503D01*
X167809Y252503D01*
X166949Y253578D01*
X166949Y263531D01*
X168669Y265251D01*
X179163D01*
X179195Y265237D01*
D02*
G37*
G36*
X269900Y245800D02*
X265700Y241600D01*
X252400Y241600D01*
X252000Y241200D01*
Y239144D01*
X250715Y238100D01*
X220307Y238100D01*
X217600Y241085D01*
X217600Y266800D01*
X218600Y267800D01*
X219100Y267800D01*
X222738Y267800D01*
X223500Y266700D01*
X223500Y244100D01*
X225600Y242000D01*
X243700D01*
Y246876D01*
X245024Y248200D01*
X264000Y248200D01*
X265900Y250100D01*
X265800Y273000D01*
Y281600D01*
X266217Y281800D01*
X269900D01*
Y245800D01*
D02*
G37*
%LPC*%
G36*
X171102Y354292D02*
X170175Y354170D01*
X169311Y353812D01*
X168569Y353242D01*
X167999Y352500D01*
X167641Y351636D01*
X167519Y350709D01*
X167641Y349781D01*
X167999Y348917D01*
X168569Y348175D01*
X169311Y347605D01*
X170175Y347247D01*
X171102Y347125D01*
X172030Y347247D01*
X172894Y347605D01*
X173636Y348175D01*
X174206Y348917D01*
X174564Y349781D01*
X174686Y350709D01*
X174564Y351636D01*
X174206Y352500D01*
X173636Y353242D01*
X172894Y353812D01*
X172030Y354170D01*
X171102Y354292D01*
D02*
G37*
%LPD*%
G36*
X345179Y369435D02*
Y329365D01*
X341435Y325622D01*
X331951D01*
Y327691D01*
X332113Y327799D01*
X332507Y328389D01*
X332645Y329083D01*
Y332430D01*
X332507Y333125D01*
X332113Y333714D01*
X331951Y333823D01*
Y334171D01*
X331865Y334600D01*
X331622Y334964D01*
X331622Y334964D01*
X328751Y337835D01*
Y339579D01*
X329599D01*
X330058Y339769D01*
X330249Y340228D01*
Y343772D01*
X330058Y344231D01*
X329599Y344421D01*
X329408D01*
Y349137D01*
X329960D01*
X330419Y349327D01*
X330609Y349787D01*
Y353527D01*
X330419Y353986D01*
X329960Y354176D01*
X326613D01*
X326154Y353986D01*
X325964Y353527D01*
Y349787D01*
X326154Y349327D01*
X326613Y349137D01*
X327165D01*
Y344421D01*
X326450D01*
X325990Y344231D01*
X325933Y344092D01*
X325392D01*
X325334Y344231D01*
X324875Y344421D01*
X324422D01*
Y349137D01*
X324645D01*
X325104Y349327D01*
X325294Y349787D01*
Y353527D01*
X325104Y353986D01*
X324645Y354176D01*
X324151D01*
Y359710D01*
X324880D01*
X325339Y359900D01*
X325529Y360359D01*
Y360977D01*
X329500D01*
Y360445D01*
X329690Y359986D01*
X330150Y359795D01*
X333850D01*
X334310Y359986D01*
X334500Y360445D01*
Y363752D01*
X334310Y364211D01*
X334266Y364229D01*
Y364771D01*
X334310Y364789D01*
X334500Y365248D01*
Y365950D01*
X339510D01*
Y365595D01*
X339700Y365136D01*
X340159Y364946D01*
X343899D01*
X344358Y365136D01*
X344549Y365595D01*
Y368548D01*
X344358Y369007D01*
X343899Y369198D01*
X340159D01*
X339700Y369007D01*
X339510Y368548D01*
Y368193D01*
X334500D01*
Y368555D01*
X334310Y369014D01*
X333850Y369205D01*
X330150D01*
X329690Y369014D01*
X329500Y368555D01*
Y365248D01*
X329690Y364789D01*
X329734Y364771D01*
Y364229D01*
X329690Y364211D01*
X329500Y363752D01*
Y363220D01*
X328821D01*
Y368300D01*
X328822Y368300D01*
X328736Y368729D01*
X328493Y369093D01*
X328493Y369093D01*
X326193Y371393D01*
X325829Y371636D01*
X325400Y371722D01*
X325400Y371722D01*
X310300D01*
X310300Y371722D01*
X309871Y371636D01*
X309507Y371393D01*
X309507Y371393D01*
X308207Y370093D01*
X307964Y369729D01*
X307878Y369300D01*
X307878Y369300D01*
Y359665D01*
X300835Y352622D01*
X294464D01*
X294311Y352850D01*
Y354878D01*
X301700D01*
X301700Y354878D01*
X302129Y354964D01*
X302493Y355207D01*
X306693Y359407D01*
X306936Y359771D01*
X307022Y360200D01*
X307021Y360200D01*
Y370235D01*
X309065Y372278D01*
X342335D01*
X345179Y369435D01*
D02*
G37*
%LPC*%
G36*
X343899Y363882D02*
X340159D01*
X339700Y363692D01*
X339510Y363233D01*
Y360280D01*
X339700Y359821D01*
X340159Y359631D01*
X341010D01*
Y358041D01*
X337246Y354278D01*
X334692D01*
X334233Y354088D01*
X334043Y353628D01*
Y350085D01*
X334233Y349626D01*
X334692Y349436D01*
X334708D01*
Y345176D01*
X334156D01*
X333697Y344986D01*
X333506Y344527D01*
Y340787D01*
X333697Y340327D01*
X334156Y340137D01*
X334708D01*
Y333823D01*
X334545Y333714D01*
X334151Y333125D01*
X334013Y332430D01*
Y329083D01*
X334151Y328389D01*
X334545Y327799D01*
X335134Y327406D01*
X335829Y327268D01*
X336524Y327406D01*
X337113Y327799D01*
X337507Y328389D01*
X337645Y329083D01*
Y332430D01*
X337507Y333125D01*
X337113Y333714D01*
X336951Y333823D01*
Y340137D01*
X337502D01*
X337962Y340327D01*
X338152Y340787D01*
Y344527D01*
X337962Y344986D01*
X337502Y345176D01*
X336951D01*
Y349436D01*
X337842D01*
X338301Y349626D01*
X338358Y349765D01*
X338900D01*
X338957Y349626D01*
X339417Y349436D01*
X339870D01*
Y345176D01*
X339471D01*
X339012Y344986D01*
X338821Y344527D01*
Y340787D01*
X339012Y340327D01*
X339471Y340137D01*
X340023D01*
Y334033D01*
X339545Y333714D01*
X339151Y333125D01*
X339013Y332430D01*
Y329083D01*
X339151Y328389D01*
X339545Y327799D01*
X340134Y327406D01*
X340829Y327268D01*
X341524Y327406D01*
X342113Y327799D01*
X342507Y328389D01*
X342645Y329083D01*
Y332430D01*
X342507Y333125D01*
X342266Y333486D01*
Y340137D01*
X342817D01*
X343277Y340327D01*
X343467Y340787D01*
Y344527D01*
X343277Y344986D01*
X342817Y345176D01*
X342113D01*
Y349436D01*
X342566D01*
X343025Y349626D01*
X343216Y350085D01*
Y353628D01*
X343025Y354088D01*
X342566Y354278D01*
X340783D01*
X340592Y354740D01*
X342750Y356898D01*
X342971Y357229D01*
X343049Y357619D01*
Y359631D01*
X343899D01*
X344358Y359821D01*
X344549Y360280D01*
Y363233D01*
X344358Y363692D01*
X343899Y363882D01*
D02*
G37*
%LPD*%
G36*
X289758Y316059D02*
X289845Y314071D01*
X288500Y312604D01*
X286512Y312517D01*
X285045Y313862D01*
X284958Y315850D01*
X286303Y317317D01*
X288291Y317404D01*
X289758Y316059D01*
D02*
G37*
G36*
X333300Y271600D02*
Y259300D01*
X327100Y259300D01*
Y269203D01*
X312903Y283400D01*
X282441D01*
X282236Y283485D01*
X278496D01*
X278291Y283400D01*
X277800D01*
X275000Y286200D01*
X264583D01*
X264500Y286400D01*
Y291000D01*
X313900D01*
X333300Y271600D01*
D02*
G37*
D10*
X281000Y409200D02*
D03*
X289200D02*
D03*
D11*
X187129Y249519D02*
D03*
X179452D02*
D03*
X182011D02*
D03*
X184570D02*
D03*
X187129Y257157D02*
D03*
X179452D02*
D03*
X182011D02*
D03*
X184570D02*
D03*
D12*
X200157Y388400D02*
D03*
X194843D02*
D03*
X200029Y398157D02*
D03*
X194714D02*
D03*
X180672Y267757D02*
D03*
X185987D02*
D03*
X180972Y274867D02*
D03*
X186287D02*
D03*
X240858Y364900D02*
D03*
X235542D02*
D03*
X199687Y407157D02*
D03*
X194372D02*
D03*
X341315Y296500D02*
D03*
X336000D02*
D03*
X278043Y370500D02*
D03*
X283358D02*
D03*
D13*
X247666Y281062D02*
D03*
Y286377D02*
D03*
X342029Y361757D02*
D03*
Y367072D02*
D03*
X313500Y361343D02*
D03*
Y366657D02*
D03*
D14*
X336267Y351857D02*
D03*
X340991D02*
D03*
X323300Y342000D02*
D03*
X328024D02*
D03*
X268400Y322800D02*
D03*
X263675D02*
D03*
D15*
X173000Y254958D02*
D03*
Y249642D02*
D03*
X211129Y368857D02*
D03*
Y374172D02*
D03*
X218232Y374072D02*
D03*
Y368757D02*
D03*
X280366Y286477D02*
D03*
Y281162D02*
D03*
X279929Y312499D02*
D03*
Y317814D02*
D03*
X242787Y313258D02*
D03*
Y307943D02*
D03*
X240929Y341190D02*
D03*
Y346505D02*
D03*
X261429Y346105D02*
D03*
Y340790D02*
D03*
X265763Y389757D02*
D03*
Y384442D02*
D03*
X248220Y345975D02*
D03*
X253929D02*
D03*
X248220Y341448D02*
D03*
X253929D02*
D03*
D16*
X235043Y353313D02*
D03*
X240357D02*
D03*
X246687Y245357D02*
D03*
X241372D02*
D03*
X246744Y254357D02*
D03*
X241429D02*
D03*
X335829Y342657D02*
D03*
X341144D02*
D03*
X336413Y288943D02*
D03*
X341728D02*
D03*
X328287Y351657D02*
D03*
X322972D02*
D03*
X263685Y307100D02*
D03*
X269000D02*
D03*
X258955Y389800D02*
D03*
X253640D02*
D03*
D17*
X340829Y330757D02*
D03*
X335829D02*
D03*
X330829D02*
D03*
X325829D02*
D03*
X320829D02*
D03*
X315829D02*
D03*
X310829D02*
D03*
X340829Y309300D02*
D03*
X335829D02*
D03*
X330829D02*
D03*
X325829D02*
D03*
X320829D02*
D03*
X315829D02*
D03*
X310829D02*
D03*
D18*
X332000Y366902D02*
D03*
Y362098D02*
D03*
X323029Y362013D02*
D03*
Y366816D02*
D03*
X246832Y384957D02*
D03*
Y389760D02*
D03*
D19*
X290709Y356000D02*
D03*
D20*
X277913Y359937D02*
D03*
Y352063D02*
D03*
D21*
X259926Y288939D02*
D03*
X267406D02*
D03*
Y278900D02*
D03*
X263666D02*
D03*
X259926D02*
D03*
D22*
X282648Y254257D02*
D03*
D23*
X260010Y245202D02*
D03*
Y254257D02*
D03*
Y263312D02*
D03*
D24*
X206353Y317657D02*
D03*
Y312657D02*
D03*
Y307657D02*
D03*
Y302657D02*
D03*
X234306Y317657D02*
D03*
Y312657D02*
D03*
Y307657D02*
D03*
Y302657D02*
D03*
D25*
X217200Y346200D02*
D03*
D26*
X226747Y353090D02*
D03*
Y351121D02*
D03*
Y349153D02*
D03*
Y347184D02*
D03*
Y345216D02*
D03*
Y343247D02*
D03*
Y341279D02*
D03*
Y339310D02*
D03*
X207653D02*
D03*
Y341279D02*
D03*
Y343247D02*
D03*
Y345216D02*
D03*
Y347184D02*
D03*
Y349153D02*
D03*
Y351121D02*
D03*
Y353090D02*
D03*
D27*
X224090Y336653D02*
D03*
X222121D02*
D03*
X220153D02*
D03*
X218184D02*
D03*
X216216D02*
D03*
X214247D02*
D03*
X212279D02*
D03*
X210310D02*
D03*
Y355747D02*
D03*
X212279D02*
D03*
X214247D02*
D03*
X216216D02*
D03*
X218184D02*
D03*
X220153D02*
D03*
X222121D02*
D03*
X224090D02*
D03*
D28*
X180533Y388157D02*
D03*
X187029D02*
D03*
X180029Y398157D02*
D03*
X186525D02*
D03*
X180029Y407157D02*
D03*
X186525D02*
D03*
D29*
X335829Y296671D02*
X336413Y296087D01*
X263676Y307109D02*
X267985Y302800D01*
X330829Y324871D02*
Y334171D01*
X281100Y398300D02*
Y412700D01*
X180672Y264328D02*
Y274567D01*
X289300Y396400D02*
Y412700D01*
X200157Y383043D02*
X200500Y382700D01*
X200157Y383043D02*
Y388400D01*
X322972Y351657D02*
X323300Y351328D01*
Y337300D02*
Y351328D01*
Y337300D02*
X325829Y334771D01*
Y330757D02*
Y334771D01*
X327629Y341605D02*
X328024Y342000D01*
X327629Y337371D02*
Y341605D01*
X328287Y342262D01*
Y351657D01*
X305900Y360200D02*
Y370700D01*
X301700Y356000D02*
X305900Y360200D01*
X290709Y356000D02*
X301700D01*
X218184Y360600D02*
Y368708D01*
Y355747D02*
Y360600D01*
X180200Y252400D02*
X184000D01*
X184570Y251830D01*
Y249519D02*
Y251830D01*
X179452Y251652D02*
X180200Y252400D01*
X179452Y249519D02*
Y251652D01*
X272557Y389757D02*
X281100Y398300D01*
X265763Y389757D02*
X272557D01*
X265721Y389800D02*
X265763Y389757D01*
X258955Y389800D02*
X265721D01*
X315700Y302700D02*
X315829Y302829D01*
Y309300D01*
X179700Y402800D02*
X180029Y403129D01*
Y407157D01*
X231500Y360857D02*
X235543Y364900D01*
X231500Y354000D02*
Y360857D01*
X228621Y351121D02*
X231500Y354000D01*
X226747Y351121D02*
X228621D01*
X200184Y347184D02*
X207653D01*
X262200Y300200D02*
X306700D01*
X310829Y304329D01*
X277913Y359937D02*
Y370371D01*
X247666Y286377D02*
X250228Y288939D01*
X259926D01*
X224090Y333910D02*
Y336653D01*
X310829Y304329D02*
Y309300D01*
X305900Y370700D02*
X308600Y373400D01*
X342800D01*
X331200Y324500D02*
X341900D01*
X330829Y324871D02*
X331200Y324500D01*
X327700Y362098D02*
Y368300D01*
X325400Y370600D02*
X327700Y368300D01*
X310300Y370600D02*
X325400D01*
X309000Y369300D02*
X310300Y370600D01*
X309000Y359200D02*
Y369300D01*
X284548Y317814D02*
X287402Y314961D01*
X279929Y317814D02*
X284548D01*
X267985Y302800D02*
X273700D01*
X275861Y304961D01*
X277402D01*
X263676Y307109D02*
Y322800D01*
X186525Y407157D02*
X194372D01*
X186525Y398157D02*
X194714D01*
X187029Y388157D02*
X187273Y388400D01*
X194843D01*
X180029Y388660D02*
X180533Y388157D01*
X218184Y360600D02*
X220153Y358632D01*
Y355747D02*
Y358632D01*
X226747Y345216D02*
X233216D01*
X237700Y349700D01*
X257600D01*
X261195Y346105D01*
X261429D01*
X260772Y341448D02*
X261429Y340790D01*
X253929Y341448D02*
X260772D01*
X240929Y346505D02*
X247690D01*
X234810Y341190D02*
X240929D01*
X232753Y343247D02*
X234810Y341190D01*
X226747Y343247D02*
X232753D01*
X171102Y330709D02*
X175394Y335000D01*
X184500D01*
X187000Y337500D01*
Y344500D01*
X195590Y353090D01*
X207653D01*
X171102Y320709D02*
X175394Y325000D01*
X181102Y320709D02*
X186709D01*
X194500Y328500D01*
Y338000D01*
X201716Y345216D01*
X207653D01*
X171102Y310709D02*
X175394Y315000D01*
X184000D01*
X197000Y328000D01*
Y337500D01*
X202747Y343247D01*
X207653D01*
X180672Y274567D02*
X180972Y274867D01*
X180672Y264328D02*
X182011Y262989D01*
Y257157D02*
Y262989D01*
X184570Y254930D02*
Y257157D01*
Y254930D02*
X186000Y253500D01*
X188000D01*
X190000Y255500D01*
Y274000D01*
X189133Y274867D02*
X190000Y274000D01*
X186287Y274867D02*
X189133D01*
X187129Y257157D02*
Y261371D01*
X185987Y262513D02*
X187129Y261371D01*
X185987Y262513D02*
Y267757D01*
X186287Y274867D02*
Y278787D01*
X193000Y285500D01*
Y318000D01*
X201000Y326000D01*
Y335500D01*
X204810Y339310D01*
X207653D01*
X223500Y310000D02*
X228500Y315000D01*
X202500Y310000D02*
X223500D01*
X229657Y312657D02*
X234306D01*
X222000Y305000D02*
X229657Y312657D01*
X201500Y323000D02*
X211500D01*
X212279Y323779D01*
Y336653D01*
X200500Y311500D02*
X202000Y310000D01*
X200500Y311500D02*
Y314000D01*
X201500Y315000D01*
X214500D01*
X218184Y318684D01*
Y336653D01*
X199343Y307657D02*
X206353D01*
X198500Y308500D02*
X199343Y307657D01*
X198500Y308500D02*
Y317000D01*
X201500Y320000D01*
X211500D01*
X214247Y322747D01*
Y336653D01*
X216216Y320216D02*
Y336653D01*
X213657Y317657D02*
X216216Y320216D01*
X206353Y317657D02*
X213657D01*
X206353Y312657D02*
X215657D01*
X220153Y317153D01*
Y336653D01*
X234306Y302657D02*
X247157D01*
X250000Y305500D01*
Y321500D01*
X245500Y326000D02*
X250000Y321500D01*
X222121Y332879D02*
Y336653D01*
X335829Y296671D02*
Y309300D01*
X336413Y288943D02*
Y296087D01*
X340829Y296986D02*
Y309300D01*
X327629Y337371D02*
X330829Y334171D01*
X340829Y330757D02*
X341144Y331072D01*
Y342657D01*
X322905Y351590D02*
X323029Y351714D01*
Y362013D01*
X313500Y366657D02*
X313658Y366816D01*
X323029D01*
X340991Y342809D02*
Y351857D01*
X332000Y366902D02*
X332170Y367072D01*
X342029D01*
X323029Y362013D02*
X323115Y362098D01*
X332000D01*
X301300Y351500D02*
X309000Y359200D01*
X285100Y351500D02*
X301300D01*
X278476D02*
X285100D01*
X342800Y373400D02*
X346300Y369900D01*
X341900Y324500D02*
X346300Y328900D01*
Y369900D01*
X196621Y351121D02*
X207653D01*
X189300Y343800D02*
X196621Y351121D01*
X189300Y333800D02*
Y343800D01*
X181102Y330709D02*
X186209D01*
X189300Y333800D01*
X175394Y325000D02*
X188000D01*
X192400Y329400D01*
Y339400D01*
X200184Y347184D01*
X252400Y310000D02*
X262200Y300200D01*
X252400Y310000D02*
Y322400D01*
X229000Y326000D02*
X245500D01*
X222121Y332879D02*
X229000Y326000D01*
X224090Y333910D02*
X229700Y328300D01*
X246500D01*
X252400Y322400D01*
X195700Y317200D02*
X201500Y323000D01*
X195700Y307400D02*
Y317200D01*
Y307400D02*
X198100Y305000D01*
X222000D01*
X335600Y351200D02*
X335610D01*
X335829Y350981D01*
Y330757D02*
Y350981D01*
D30*
X230797Y349153D02*
X235000Y353356D01*
X228829Y347184D02*
X230797Y349153D01*
X246643Y317657D02*
X246900Y317400D01*
X234306Y317657D02*
X246643D01*
X226747Y347184D02*
X228829D01*
X226747Y349153D02*
X230797D01*
X235000Y353356D02*
Y357800D01*
D31*
X246572Y389500D02*
X246872Y389800D01*
X287402Y314961D02*
X307561D01*
X320829Y330757D02*
Y333671D01*
X315829Y323229D02*
Y330757D01*
X307561Y314961D02*
X315829Y323229D01*
X171102Y340709D02*
X171509D01*
X246872Y389800D02*
X253640D01*
X242400Y389500D02*
X246572D01*
X222121Y369221D02*
X242400Y389500D01*
X222121Y355747D02*
Y369221D01*
X234306Y307657D02*
X242501D01*
X228500Y315000D02*
X241600D01*
X242787Y313813D01*
X173038Y249642D02*
X179328D01*
X211700Y359500D02*
X212279Y358921D01*
Y355747D02*
Y358921D01*
X214247Y355747D02*
Y359953D01*
X212200Y362000D02*
X214247Y359953D01*
X192394Y362000D02*
X212200D01*
X181102Y350709D02*
X192394Y362000D01*
X342029Y357619D02*
Y361757D01*
X336267Y351857D02*
X342029Y357619D01*
X171509Y340709D02*
X177000Y346200D01*
X183700D01*
X193247Y355747D01*
X210310D01*
X263676Y322800D02*
Y327876D01*
X272100Y336300D01*
X318200D01*
X320829Y333671D01*
D32*
X196400Y347300D02*
X198200Y349100D01*
X206800D01*
X209000Y331600D02*
X210310Y332910D01*
Y336653D01*
X211129Y374172D02*
X211229Y374072D01*
X218232D01*
X211129Y368857D02*
X211277Y368708D01*
X218184D01*
X218232Y368757D01*
D33*
X248220Y345975D02*
X248925D01*
X253452Y341448D01*
X253929D01*
X199000Y336500D02*
X203779Y341279D01*
X207653D01*
X199000Y327000D02*
Y336500D01*
X190500Y318500D02*
X199000Y327000D01*
X190500Y286500D02*
Y318500D01*
X183500Y270243D02*
X185987Y267757D01*
X183500Y270243D02*
Y279500D01*
X190500Y286500D01*
D34*
X289221Y417646D02*
D03*
D35*
X280954D02*
D03*
D36*
X281151Y428276D02*
D03*
D37*
X235284Y419535D02*
D03*
D38*
X243946Y422094D02*
D03*
X253788D02*
D03*
X262450D02*
D03*
X272292D02*
D03*
D39*
X248867Y417882D02*
D03*
X267371D02*
D03*
D40*
X239615Y428276D02*
D03*
X258119D02*
D03*
D41*
X267402Y314961D02*
D03*
X277402Y304961D02*
D03*
X287402Y314961D02*
D03*
D42*
X330000Y263800D02*
D03*
X322126D02*
D03*
X220472Y263779D02*
D03*
X212598D02*
D03*
D43*
X181102Y310709D02*
D03*
X171102D02*
D03*
X181102Y320709D02*
D03*
X171102D02*
D03*
X181102Y330709D02*
D03*
X171102D02*
D03*
X181102Y340709D02*
D03*
X171102D02*
D03*
X181102Y350709D02*
D03*
X171102D02*
D03*
X181102Y360709D02*
D03*
D44*
X171102D02*
D03*
D45*
X300550Y260443D02*
D03*
X302518Y248632D02*
D03*
X304487Y244695D02*
D03*
X302518Y256506D02*
D03*
X304487Y252569D02*
D03*
X300550D02*
D03*
Y244695D02*
D03*
X304487Y260443D02*
D03*
X226378Y291339D02*
D03*
X224410Y287402D02*
D03*
X222441Y291339D02*
D03*
X220473Y287402D02*
D03*
X218504Y291339D02*
D03*
X216536Y287402D02*
D03*
X214567Y291339D02*
D03*
X212598Y287402D02*
D03*
X210630Y291339D02*
D03*
X208662Y287402D02*
D03*
X206693Y291339D02*
D03*
X204725Y287402D02*
D03*
X346457Y385827D02*
D03*
X344488Y389764D02*
D03*
X342520Y385827D02*
D03*
X340551Y389764D02*
D03*
X338583Y385827D02*
D03*
X336614Y389764D02*
D03*
X334646Y385827D02*
D03*
X332677Y389764D02*
D03*
X330709Y385827D02*
D03*
X328740Y389764D02*
D03*
X326772Y385827D02*
D03*
X324803Y389764D02*
D03*
X322835Y385827D02*
D03*
X320866Y389764D02*
D03*
X318898Y385827D02*
D03*
X316929Y389764D02*
D03*
X314961Y385827D02*
D03*
X312992Y389764D02*
D03*
X311024Y385827D02*
D03*
X289300Y396400D02*
D03*
X200500Y382700D02*
D03*
X246900Y294900D02*
D03*
Y317400D02*
D03*
X315700Y302700D02*
D03*
X179700Y402800D02*
D03*
X235000Y357800D02*
D03*
X196400Y368800D02*
D03*
Y347300D02*
D03*
X209000Y331600D02*
D03*
X211700Y359500D02*
D03*
M02*
