M48
;Layer_Color=9474304
;FILE_FORMAT=2:5
INCH,TZ
;TYPE=PLATED
T1F00S00C0.01200
T2F00S00C0.02362
T3F00S00C0.03200
T4F00S00C0.03543
%
T01
X315700Y302700
X304487Y260443
X300550
X302518Y256506
X300550Y252569
X304487
X302518Y248632
X300550Y244695
X304487
X246900Y294900
X226378Y291339
X222441
X218504
X214567
X210630
X206693
X204725Y287402
X208662
X212598
X216536
X220473
X224410
X246900Y317400
X209000Y331600
X196400Y347300
Y368800
X200500Y382700
X211700Y359500
X235000Y357800
X289300Y396400
X311024Y385827
X179700Y402800
X312992Y389764
X316929
X320866
X324803
X328740
X332677
X336614
X340551
X344488
X342520Y385827
X346457
X338583
X334646
X330709
X326772
X322835
X318898
X314961
T02
X322126Y263800
X330000
X220472Y263779
X212598
T03
X277402Y304961
X267402Y314961
X287402
T04
X171102Y310709
X181102
Y320709
X171102
Y330709
X181102
Y340709
X171102
Y350709
X181102
Y360709
X171102
M30
